<?xml version="1.0" encoding="UTF-8" standalone="no"?>
<!-- Created with Inkscape (http://www.inkscape.org/) -->

<svg
   xmlns:dc="http://purl.org/dc/elements/1.1/"
   xmlns:cc="http://creativecommons.org/ns#"
   xmlns:rdf="http://www.w3.org/1999/02/22-rdf-syntax-ns#"
   xmlns:svg="http://www.w3.org/2000/svg"
   xmlns="http://www.w3.org/2000/svg"
   xmlns:sodipodi="http://sodipodi.sourceforge.net/DTD/sodipodi-0.dtd"
   xmlns:inkscape="http://www.inkscape.org/namespaces/inkscape"
   version="1.0"
   width="330.07999"
   height="172.22569"
   id="svg2"
   inkscape:version="0.48.5 r10040"
   sodipodi:docname="Constant_function2.svg">
  <metadata
     id="metadata3117">
    <rdf:RDF>
      <cc:Work
         rdf:about="">
        <dc:format>image/svg+xml</dc:format>
        <dc:type
           rdf:resource="http://purl.org/dc/dcmitype/StillImage" />
      </cc:Work>
    </rdf:RDF>
  </metadata>
  <sodipodi:namedview
     pagecolor="#ffffff"
     bordercolor="#666666"
     borderopacity="1"
     objecttolerance="10"
     gridtolerance="10"
     guidetolerance="10"
     inkscape:pageopacity="0"
     inkscape:pageshadow="2"
     inkscape:window-width="1536"
     inkscape:window-height="803"
     id="namedview3115"
     showgrid="false"
     fit-margin-top="0"
     fit-margin-left="0"
     fit-margin-right="0"
     fit-margin-bottom="0"
     inkscape:zoom="0.95365124"
     inkscape:cx="-22.629428"
     inkscape:cy="86.111495"
     inkscape:window-x="-8"
     inkscape:window-y="-8"
     inkscape:window-maximized="1"
     inkscape:current-layer="svg2" />
  <defs
     id="defs4">
    <marker
       markerUnits="strokeWidth"
       refX="0"
       refY="5"
       markerWidth="4"
       markerHeight="3"
       orient="auto"
       viewBox="0 0 10 10"
       id="ArrowEnd">
      <path
         d="M 0,0 10,5 0,10 0,0 z"
         id="path7"
         inkscape:connector-curvature="0" />
    </marker>
    <marker
       markerUnits="strokeWidth"
       refX="10"
       refY="5"
       markerWidth="4"
       markerHeight="3"
       orient="auto"
       viewBox="0 0 10 10"
       id="ArrowStart">
      <path
         d="M 10,0 0,5 10,10 10,0 z"
         id="path10"
         inkscape:connector-curvature="0" />
    </marker>
  </defs>
  <g
     id="g12"
     transform="matrix(1.100368,0,0,1.100368,0.0700407,0.00270277)">
    <path
       d="m 0.95,73.893 294.774,0"
       style="fill:none;stroke:#ff0000;stroke-width:1.89999998;stroke-linecap:round;stroke-linejoin:round"
       id="path14"
       inkscape:connector-curvature="0" />
    <path
       d="m 0.2,147.587 299.5,0"
       style="fill:none;stroke:#000000;stroke-width:0.40000001;stroke-linecap:round;stroke-linejoin:round"
       id="path16"
       inkscape:connector-curvature="0" />
    <path
       d="m 148.337,147.587 0,-147.387003"
       style="fill:none;stroke:#000000;stroke-width:0.40000001;stroke-linecap:round;stroke-linejoin:round"
       id="path18"
       inkscape:connector-curvature="0" />
    <path
       d="m 194.02,64.2122 c -0.42,0.5905 -1.026,1.119 -1.787,1.119 -0.187,0 -0.933,-0.0311 -1.166,-0.746 0.047,0.0155 0.124,0.0155 0.155,0.0155 0.467,0 0.778,-0.4041 0.778,-0.7615 0,-0.3575 -0.296,-0.4818 -0.529,-0.4818 -0.249,0 -0.792,0.1865 -0.792,0.948 0,0.7927 0.668,1.3366 1.554,1.3366 1.554,0 3.124,-1.4298 3.559,-3.1549 l 1.523,-6.0611 c 0.015,-0.078 0.046,-0.171 0.046,-0.264 0,-0.234 -0.186,-0.389 -0.419,-0.389 -0.14,0 -0.466,0.062 -0.591,0.528 l -1.15,4.5697 c -0.078,0.2798 -0.078,0.3108 -0.202,0.4818 -0.311,0.4352 -0.824,0.9636 -1.57,0.9636 -0.87,0 -0.948,-0.8548 -0.948,-1.2744 0,-0.8859 0.42,-2.0826 0.84,-3.2016 0.171,-0.4507 0.264,-0.6681 0.264,-0.9791 0,-0.653 -0.466,-1.243 -1.228,-1.243 -1.43,0 -2.005,2.2532 -2.005,2.3775 0,0.0622 0.062,0.1399 0.171,0.1399 0.14,0 0.156,-0.0622 0.218,-0.2798 0.373,-1.3056 0.963,-1.9276 1.569,-1.9276 0.14,0 0.404,0 0.404,0.513 0,0.404 -0.17,0.8551 -0.404,1.4457 -0.761,2.036 -0.761,2.5488 -0.761,2.9218 0,1.4765 1.057,1.8184 1.834,1.8184 0.45,0 1.01,-0.1398 1.554,-0.7149 l 0.015,0.0155 c -0.233,0.917 -0.388,1.5231 -0.932,2.2847 z"
       style="fill:#ff0000;fill-rule:evenodd;stroke:none"
       id="path20"
       inkscape:connector-curvature="0" />
    <path
       d="m 212.746,57.436 c 0.217,0 0.497,0 0.497,-0.28 0,-0.295 -0.264,-0.295 -0.497,-0.295 l -9.154,0 c -0.218,0 -0.498,0 -0.498,0.28 0,0.295 0.264,0.295 0.498,0.295 l 9.154,0 z m 0,2.8908 c 0.217,0 0.497,0 0.497,-0.2798 0,-0.2953 -0.264,-0.2953 -0.497,-0.2953 l -9.154,0 c -0.218,0 -0.498,0 -0.498,0.2797 0,0.2954 0.264,0.2954 0.498,0.2954 l 9.154,0 z"
       style="fill:#ff0000;fill-rule:evenodd;stroke:none"
       id="path22"
       inkscape:connector-curvature="0" />
    <path
       d="m 224.562,56.628 c -0.295,0 -0.435,0 -0.653,0.186 -0.093,0.078 -0.264,0.311 -0.264,0.5598 0,0.3109 0.233,0.4974 0.528,0.4974 0.373,0 0.793,-0.3109 0.793,-0.9322 0,-0.746 -0.715,-1.321 -1.787,-1.321 -2.036,0 -4.072,2.2221 -4.072,4.429 0,1.3521 0.839,2.5799 2.424,2.5799 2.114,0 3.45,-1.6474 3.45,-1.8494 0,-0.0933 -0.093,-0.171 -0.155,-0.171 -0.047,0 -0.062,0.0155 -0.202,0.1554 -0.995,1.3211 -2.471,1.5542 -3.062,1.5542 -1.072,0 -1.414,-0.9325 -1.414,-1.7096 0,-0.544 0.264,-2.0515 0.824,-3.1083 0.404,-0.7302 1.243,-1.5702 2.222,-1.5702 0.202,0 1.057,0.032 1.368,0.7 z"
       style="fill:#ff0000;fill-rule:evenodd;stroke:none"
       id="path24"
       inkscape:connector-curvature="0" />
    <path
       d="m 232.112,58.1976 c 0,-1.4766 -0.964,-2.5796 -2.378,-2.5796 -2.051,0 -4.072,2.2376 -4.072,4.429 0,1.4765 0.964,2.5799 2.378,2.5799 2.067,0 4.072,-2.238 4.072,-4.4293 z m -4.056,4.1185 c -0.777,0 -1.352,-0.6217 -1.352,-1.7096 0,-0.7149 0.373,-2.3002 0.808,-3.0772 0.699,-1.1963 1.569,-1.6013 2.207,-1.6013 0.761,0 1.352,0.622 1.352,1.71 0,0.6217 -0.327,2.2847 -0.917,3.2327 -0.637,1.0413 -1.492,1.4454 -2.098,1.4454 z"
       style="fill:#ff0000;fill-rule:evenodd;stroke:none"
       id="path26"
       inkscape:connector-curvature="0" />
    <path
       d="m 235.569,57.9178 c 0.031,-0.0933 0.42,-0.8708 0.995,-1.3678 0.404,-0.373 0.932,-0.622 1.538,-0.622 0.622,0 0.84,0.467 0.84,1.088 0,0.8862 -0.638,2.658 -0.948,3.4972 -0.14,0.373 -0.218,0.5751 -0.218,0.8548 0,0.6994 0.482,1.2589 1.228,1.2589 1.445,0 1.989,-2.2846 1.989,-2.3779 0,-0.0777 -0.062,-0.1398 -0.155,-0.1398 -0.14,0 -0.156,0.0466 -0.233,0.3108 -0.358,1.2744 -0.948,1.8961 -1.555,1.8961 -0.155,0 -0.404,-0.0155 -0.404,-0.5129 0,-0.3885 0.171,-0.8548 0.265,-1.0724 0.31,-0.8548 0.963,-2.5954 0.963,-3.4813 0,-0.9325 -0.544,-1.6315 -1.725,-1.6315 -1.383,0 -2.114,0.979 -2.393,1.367 -0.047,-0.886 -0.684,-1.367 -1.368,-1.367 -0.497,0 -0.839,0.295 -1.104,0.823 -0.279,0.56 -0.497,1.4923 -0.497,1.5545 0,0.0622 0.062,0.1399 0.171,0.1399 0.124,0 0.14,-0.0156 0.233,-0.373 0.249,-0.9484 0.529,-1.8344 1.15,-1.8344 0.358,0 0.482,0.249 0.482,0.715 0,0.342 -0.155,0.9484 -0.264,1.4302 -0.14,0.5595 -0.295,1.119 -0.435,1.6785 -0.062,0.2953 -0.233,0.9947 -0.311,1.2744 -0.109,0.4041 -0.28,1.1346 -0.28,1.2123 0,0.2176 0.171,0.3885 0.404,0.3885 0.187,0 0.404,-0.0932 0.529,-0.3263 0.031,-0.0778 0.171,-0.6217 0.248,-0.9326 0.109,-0.4662 0.233,-0.9325 0.342,-1.3987 l 0.513,-2.0515 z"
       style="fill:#ff0000;fill-rule:evenodd;stroke:none"
       id="path28"
       inkscape:connector-curvature="0" />
    <path
       d="m 244.949,59.3632 c 0.264,0.0466 0.683,0.1399 0.777,0.1554 0.202,0.0621 0.901,0.3108 0.901,1.0568 0,0.4818 -0.435,1.7407 -2.238,1.7407 -0.326,0 -1.492,-0.0466 -1.803,-0.9014 0.622,0.0777 0.933,-0.4041 0.933,-0.746 0,-0.3264 -0.218,-0.4974 -0.529,-0.4974 -0.342,0 -0.792,0.2642 -0.792,0.9636 0,0.917 0.932,1.492 2.175,1.492 2.363,0 3.062,-1.7407 3.062,-2.5488 0,-0.2332 0,-0.6683 -0.497,-1.1656 -0.389,-0.3731 -0.762,-0.4507 -1.601,-0.6217 -0.42,-0.0932 -1.088,-0.2331 -1.088,-0.9325 0,-0.3113 0.28,-1.4303 1.756,-1.4303 0.653,0 1.29,0.249 1.446,0.809 -0.684,0 -0.715,0.5902 -0.715,0.6058 0,0.3263 0.295,0.4196 0.435,0.4196 0.218,0 0.653,-0.171 0.653,-0.8234 0,-0.653 -0.591,-1.321 -1.803,-1.321 -2.036,0 -2.58,1.6 -2.58,2.2376 0,1.1812 1.15,1.4299 1.508,1.5076 z"
       style="fill:#ff0000;fill-rule:evenodd;stroke:none"
       id="path30"
       inkscape:connector-curvature="0" />
    <path
       d="m 251.699,56.224 1.43,0 c 0.295,0 0.45,0 0.45,-0.28 0,-0.171 -0.093,-0.171 -0.404,-0.171 l -1.367,0 0.575,-2.269 c 0.062,-0.218 0.062,-0.249 0.062,-0.357 0,-0.249 -0.202,-0.389 -0.404,-0.389 -0.125,0 -0.482,0.047 -0.606,0.544 l -0.606,2.471 -1.461,0 c -0.311,0 -0.451,0 -0.451,0.295 0,0.156 0.109,0.156 0.404,0.156 l 1.383,0 -1.026,4.1028 c -0.124,0.5439 -0.171,0.6993 -0.171,0.9014 0,0.7304 0.513,1.3987 1.384,1.3987 1.569,0 2.409,-2.2691 2.409,-2.3779 0,-0.0932 -0.062,-0.1398 -0.156,-0.1398 -0.031,0 -0.093,0 -0.124,0.0621 -0.016,0.0156 -0.031,0.0311 -0.14,0.2798 -0.326,0.7771 -1.041,1.865 -1.943,1.865 -0.466,0 -0.497,-0.3886 -0.497,-0.7305 0,-0.0155 0,-0.3108 0.047,-0.4973 l 1.212,-4.8643 z"
       style="fill:#ff0000;fill-rule:evenodd;stroke:none"
       id="path32"
       inkscape:connector-curvature="0" />
    <path
       d="m 297.817,151.516 c -0.383,0.072 -0.526,0.359 -0.526,0.586 0,0.287 0.227,0.383 0.394,0.383 0.359,0 0.61,-0.311 0.61,-0.634 0,-0.502 -0.574,-0.729 -1.076,-0.729 -0.729,0 -1.136,0.717 -1.243,0.944 -0.275,-0.896 -1.017,-0.944 -1.232,-0.944 -1.219,0 -1.865,1.566 -1.865,1.829 0,0.048 0.048,0.107 0.132,0.107 0.095,0 0.119,-0.071 0.143,-0.119 0.407,-1.327 1.208,-1.578 1.554,-1.578 0.538,0 0.646,0.502 0.646,0.789 0,0.263 -0.072,0.538 -0.215,1.112 -0.191,0.765 -0.239,0.944 -0.407,1.638 -0.179,0.717 -0.526,1.374 -1.159,1.374 -0.06,0 -0.359,0 -0.61,-0.155 0.43,-0.084 0.526,-0.442 0.526,-0.586 0,-0.239 -0.179,-0.382 -0.406,-0.382 -0.287,0 -0.598,0.251 -0.598,0.633 0,0.502 0.562,0.73 1.076,0.73 0.574,0 0.98,-0.455 1.231,-0.945 0.191,0.705 0.789,0.945 1.231,0.945 1.22,0 1.866,-1.567 1.866,-1.83 0,-0.059 -0.048,-0.107 -0.12,-0.107 -0.108,0 -0.12,0.06 -0.155,0.155 -0.323,1.052 -1.017,1.542 -1.555,1.542 -0.418,0 -0.645,-0.31 -0.645,-0.801 0,-0.263 0.048,-0.454 0.239,-1.243 0.143,-0.55 0.299,-1.183 0.418,-1.626 0.18,-0.717 0.586,-1.243 1.136,-1.243 0.024,0 0.359,0 0.61,0.155 z"
       style="fill:#000000;fill-rule:evenodd;stroke:none"
       id="path34"
       inkscape:connector-curvature="0" />
    <path
       d="m 141.814,7.61299 c -0.323,0.454 -0.789,0.86101 -1.375,0.86101 -0.143,0 -0.717,-0.024 -0.896,-0.57401 0.036,0.012 0.095,0.012 0.119,0.012 0.359,0 0.598,-0.31099 0.598,-0.586 0,-0.275 -0.227,-0.371 -0.406,-0.371 -0.192,0 -0.61,0.14401 -0.61,0.73001 0,0.60899 0.514,1.028 1.195,1.028 1.196,0 2.403,-1.10001 2.738,-2.427 l 1.172,-4.663 c 0.012,-0.059 0.036,-0.13101 0.036,-0.203 0,-0.179 -0.144,-0.29901 -0.323,-0.29901 -0.108,0 -0.359,0.048 -0.454,0.40701 l -0.885,3.515 c -0.06,0.215 -0.06,0.239 -0.156,0.36999 -0.239,0.33501 -0.633,0.741 -1.207,0.741 -0.67,0 -0.729,-0.657 -0.729,-0.97999 0,-0.681 0.322,-1.60201 0.645,-2.463 0.132,-0.34601 0.203,-0.51401 0.203,-0.75301 0,-0.502 -0.358,-0.95599 -0.944,-0.95599 -1.1,0 -1.542,1.733 -1.542,1.82899 0,0.04801 0.048,0.107 0.131,0.107 0.108,0 0.12,-0.047 0.168,-0.215 0.287,-1.004 0.741,-1.48199 1.207,-1.48199 0.108,0 0.311,0 0.311,0.39399 0,0.31101 -0.132,0.65801 -0.311,1.112 -0.586,1.566 -0.586,1.961 -0.586,2.24801 0,1.136 0.813,1.399 1.411,1.399 0.347,0 0.777,-0.108 1.196,-0.55001 l 0.012,0.012 c -0.18,0.705 -0.299,1.171 -0.718,1.757 z"
       style="fill:#000000;fill-rule:evenodd;stroke:none"
       id="path36"
       inkscape:connector-curvature="0" />
  </g>
</svg>
