<?xml version="1.0" encoding="UTF-8" standalone="no"?>
<svg
   xmlns:dc="http://purl.org/dc/elements/1.1/"
   xmlns:cc="http://creativecommons.org/ns#"
   xmlns:rdf="http://www.w3.org/1999/02/22-rdf-syntax-ns#"
   xmlns:svg="http://www.w3.org/2000/svg"
   xmlns="http://www.w3.org/2000/svg"
   xmlns:xlink="http://www.w3.org/1999/xlink"
   xmlns:sodipodi="http://sodipodi.sourceforge.net/DTD/sodipodi-0.dtd"
   xmlns:inkscape="http://www.inkscape.org/namespaces/inkscape"
   width="330.0004"
   height="353.772"
   viewBox="0 0 330.0004 353.772"
   id="svg2"
   version="1.1"
   inkscape:version="0.48.5 r10040"
   sodipodi:docname="Function-x.svg">
  <metadata
     id="metadata306">
    <rdf:RDF>
      <cc:Work
         rdf:about="">
        <dc:format>image/svg+xml</dc:format>
        <dc:type
           rdf:resource="http://purl.org/dc/dcmitype/StillImage" />
      </cc:Work>
    </rdf:RDF>
  </metadata>
  <sodipodi:namedview
     pagecolor="#ffffff"
     bordercolor="#666666"
     borderopacity="1"
     objecttolerance="10"
     gridtolerance="10"
     guidetolerance="10"
     inkscape:pageopacity="0"
     inkscape:pageshadow="2"
     inkscape:window-width="1536"
     inkscape:window-height="803"
     id="namedview304"
     showgrid="false"
     fit-margin-top="0"
     fit-margin-left="0"
     fit-margin-right="0"
     fit-margin-bottom="0"
     inkscape:zoom="1.7412345"
     inkscape:cx="165.0002"
     inkscape:cy="176.886"
     inkscape:window-x="-8"
     inkscape:window-y="-8"
     inkscape:window-maximized="1"
     inkscape:current-layer="svg2" />
  <desc
     id="desc4">Produced by GNUPLOT 4.0 patchlevel 0 </desc>
  <defs
     id="defs6">
    <circle
       id="gpDot"
       r="1"
       cx="0"
       cy="0"
       sodipodi:cx="0"
       sodipodi:cy="0"
       sodipodi:rx="1"
       sodipodi:ry="1" />
    <path
       id="gpPt0"
       style="stroke-width:0.074"
       d="M -1,0 H 1 M 0,-1 v 2"
       inkscape:connector-curvature="0" />
    <path
       id="gpPt1"
       style="stroke-width:0.074"
       d="M -1,-1 1,1 M 1,-1 -1,1"
       inkscape:connector-curvature="0" />
    <path
       id="gpPt2"
       style="stroke-width:0.074"
       d="M -1,0 1,0 M 0,-1 0,1 m -1,-2 2,2 m -2,0 2,-2"
       inkscape:connector-curvature="0" />
    <rect
       id="gpPt3"
       style="stroke-width:0.074"
       x="-1"
       y="-1"
       width="2"
       height="2" />
    <use
       xlink:href="#gpPt3"
       id="gpPt4"
       style="fill:currentColor;stroke:none"
       x="0"
       y="0"
       width="1000"
       height="1000" />
    <circle
       id="gpPt5"
       style="stroke-width:0.074"
       cx="0"
       cy="0"
       r="1"
       sodipodi:cx="0"
       sodipodi:cy="0"
       sodipodi:rx="1"
       sodipodi:ry="1" />
    <use
       xlink:href="#gpPt5"
       id="gpPt6"
       style="fill:currentColor;stroke:none"
       x="0"
       y="0"
       width="1000"
       height="1000" />
    <path
       id="gpPt7"
       style="stroke-width:0.074"
       d="m 0,-1.33 -1.33,2 2.66,0 z"
       inkscape:connector-curvature="0" />
    <use
       xlink:href="#gpPt7"
       id="gpPt8"
       style="fill:currentColor;stroke:none"
       x="0"
       y="0"
       width="1000"
       height="1000" />
    <use
       xlink:href="#gpPt7"
       id="gpPt9"
       transform="scale(-1,-1)"
       x="0"
       y="0"
       width="1000"
       height="1000" />
    <use
       xlink:href="#gpPt9"
       id="gpPt10"
       style="fill:currentColor;stroke:none"
       x="0"
       y="0"
       width="1000"
       height="1000" />
    <use
       xlink:href="#gpPt3"
       id="gpPt11"
       transform="matrix(0.70710678,0.70710678,-0.70710678,0.70710678,0,0)"
       x="0"
       y="0"
       width="1000"
       height="1000" />
    <use
       xlink:href="#gpPt11"
       id="gpPt12"
       style="fill:currentColor;stroke:none"
       x="0"
       y="0"
       width="1000"
       height="1000" />
  </defs>
  <g
     style="color:#000000;fill:none;stroke:currentColor;stroke-width:1"
     id="g22"
     transform="matrix(0.33,0,0,0.33,-0.41229491,12.452866)" />
  <g
     style="color:#000000;fill:none;stroke:currentColor;stroke-width:4"
     id="g284"
     transform="matrix(0.33,0,0,0.33,-0.41229491,12.452866)" />
  <g
     style="color:#ff0000;fill:none;stroke:currentColor;stroke-width:4"
     id="g286"
     transform="matrix(0.33,0,0,0.33,-0.41229491,12.452866)" />
  <g
     style="color:#ff0000;fill:none;stroke:currentColor;stroke-width:1"
     id="g298"
     transform="matrix(0.33,0,0,0.33,-0.41229491,12.452866)" />
  <g
     id="g4200"
     transform="scale(1.1623328,1.1623328)">
    <g
       transform="matrix(0.33,0,0,0.33,-23.456426,-12.25125)"
       id="g24"
       style="color:#808080;fill:none;stroke:currentColor;stroke-width:1">
      <path
         inkscape:connector-curvature="0"
         id="path26"
         d="m 127,892 796,0" />
    </g>
    <g
       transform="matrix(0.33,0,0,0.33,-23.456426,-12.25125)"
       id="g28"
       style="color:#000000;fill:none;stroke:currentColor;stroke-width:1">
      <path
         inkscape:connector-curvature="0"
         id="path30"
         d="m 127,892 27,0 m 769,0 -27,0" />
      <g
         id="g32"
         style="font-size:36px;text-anchor:end;fill:#000000;stroke:none;font-family:Times"
         transform="translate(102,905)">
        <text
           id="text34">
          <tspan
             id="tspan36">-8</tspan>
        </text>
      </g>
    </g>
    <g
       transform="matrix(0.33,0,0,0.33,-23.456426,-12.25125)"
       id="g38"
       style="color:#808080;fill:none;stroke:currentColor;stroke-width:1">
      <path
         inkscape:connector-curvature="0"
         id="path40"
         d="m 127,787 796,0" />
    </g>
    <g
       transform="matrix(0.33,0,0,0.33,-23.456426,-12.25125)"
       id="g42"
       style="color:#000000;fill:none;stroke:currentColor;stroke-width:1">
      <path
         inkscape:connector-curvature="0"
         id="path44"
         d="m 127,787 27,0 m 769,0 -27,0" />
      <g
         id="g46"
         style="font-size:36px;text-anchor:end;fill:#000000;stroke:none;font-family:Times"
         transform="translate(102,800)">
        <text
           id="text48">
          <tspan
             id="tspan50">-6</tspan>
        </text>
      </g>
    </g>
    <g
       transform="matrix(0.33,0,0,0.33,-23.456426,-12.25125)"
       id="g52"
       style="color:#808080;fill:none;stroke:currentColor;stroke-width:1">
      <path
         inkscape:connector-curvature="0"
         id="path54"
         d="m 127,681 796,0" />
    </g>
    <g
       transform="matrix(0.33,0,0,0.33,-23.456426,-12.25125)"
       id="g56"
       style="color:#000000;fill:none;stroke:currentColor;stroke-width:1">
      <path
         inkscape:connector-curvature="0"
         id="path58"
         d="m 127,681 27,0 m 769,0 -27,0" />
      <g
         id="g60"
         style="font-size:36px;text-anchor:end;fill:#000000;stroke:none;font-family:Times"
         transform="translate(102,694)">
        <text
           id="text62">
          <tspan
             id="tspan64">-4</tspan>
        </text>
      </g>
    </g>
    <g
       transform="matrix(0.33,0,0,0.33,-23.456426,-12.25125)"
       id="g66"
       style="color:#808080;fill:none;stroke:currentColor;stroke-width:1">
      <path
         inkscape:connector-curvature="0"
         id="path68"
         d="m 127,576 796,0" />
    </g>
    <g
       transform="matrix(0.33,0,0,0.33,-23.456426,-12.25125)"
       id="g70"
       style="color:#000000;fill:none;stroke:currentColor;stroke-width:1">
      <path
         inkscape:connector-curvature="0"
         id="path72"
         d="m 127,576 27,0 m 769,0 -27,0" />
      <g
         id="g74"
         style="font-size:36px;text-anchor:end;fill:#000000;stroke:none;font-family:Times"
         transform="translate(102,589)">
        <text
           id="text76">
          <tspan
             id="tspan78">-2</tspan>
        </text>
      </g>
    </g>
    <g
       transform="matrix(0.33,0,0,0.33,-23.456426,-12.25125)"
       id="g80"
       style="color:#808080;fill:none;stroke:currentColor;stroke-width:1">
      <path
         inkscape:connector-curvature="0"
         id="path82"
         d="m 127,471 796,0" />
    </g>
    <g
       transform="matrix(0.33,0,0,0.33,-23.456426,-12.25125)"
       id="g84"
       style="color:#000000;fill:none;stroke:currentColor;stroke-width:1">
      <path
         inkscape:connector-curvature="0"
         id="path86"
         d="m 127,471 27,0 m 769,0 -27,0" />
      <g
         id="g88"
         style="font-size:36px;text-anchor:end;fill:#000000;stroke:none;font-family:Times"
         transform="translate(102,484)">
        <text
           id="text90">
          <tspan
             id="tspan92">0</tspan>
        </text>
      </g>
    </g>
    <g
       transform="matrix(0.33,0,0,0.33,-23.456426,-12.25125)"
       id="g94"
       style="color:#808080;fill:none;stroke:currentColor;stroke-width:1">
      <path
         inkscape:connector-curvature="0"
         id="path96"
         d="m 127,366 796,0" />
    </g>
    <g
       transform="matrix(0.33,0,0,0.33,-23.456426,-12.25125)"
       id="g98"
       style="color:#000000;fill:none;stroke:currentColor;stroke-width:1">
      <path
         inkscape:connector-curvature="0"
         id="path100"
         d="m 127,366 27,0 m 769,0 -27,0" />
      <g
         id="g102"
         style="font-size:36px;text-anchor:end;fill:#000000;stroke:none;font-family:Times"
         transform="translate(102,379)">
        <text
           id="text104">
          <tspan
             id="tspan106">2</tspan>
        </text>
      </g>
    </g>
    <g
       transform="matrix(0.33,0,0,0.33,-23.456426,-12.25125)"
       id="g108"
       style="color:#808080;fill:none;stroke:currentColor;stroke-width:1">
      <path
         inkscape:connector-curvature="0"
         id="path110"
         d="m 127,260 796,0" />
    </g>
    <g
       transform="matrix(0.33,0,0,0.33,-23.456426,-12.25125)"
       id="g112"
       style="color:#000000;fill:none;stroke:currentColor;stroke-width:1">
      <path
         inkscape:connector-curvature="0"
         id="path114"
         d="m 127,260 27,0 m 769,0 -27,0" />
      <g
         id="g116"
         style="font-size:36px;text-anchor:end;fill:#000000;stroke:none;font-family:Times"
         transform="translate(102,273)">
        <text
           id="text118">
          <tspan
             id="tspan120">4</tspan>
        </text>
      </g>
    </g>
    <g
       transform="matrix(0.33,0,0,0.33,-23.456426,-12.25125)"
       id="g122"
       style="color:#808080;fill:none;stroke:currentColor;stroke-width:1">
      <path
         inkscape:connector-curvature="0"
         id="path124"
         d="m 127,155 796,0" />
    </g>
    <g
       transform="matrix(0.33,0,0,0.33,-23.456426,-12.25125)"
       id="g126"
       style="color:#000000;fill:none;stroke:currentColor;stroke-width:1">
      <path
         inkscape:connector-curvature="0"
         id="path128"
         d="m 127,155 27,0 m 769,0 -27,0" />
      <g
         id="g130"
         style="font-size:36px;text-anchor:end;fill:#000000;stroke:none;font-family:Times"
         transform="translate(102,168)">
        <text
           id="text132">
          <tspan
             id="tspan134">6</tspan>
        </text>
      </g>
    </g>
    <g
       transform="matrix(0.33,0,0,0.33,-23.456426,-12.25125)"
       id="g136"
       style="color:#808080;fill:none;stroke:currentColor;stroke-width:1">
      <path
         inkscape:connector-curvature="0"
         id="path138"
         d="m 127,50 796,0" />
    </g>
    <g
       transform="matrix(0.33,0,0,0.33,-23.456426,-12.25125)"
       id="g140"
       style="color:#000000;fill:none;stroke:currentColor;stroke-width:1">
      <path
         inkscape:connector-curvature="0"
         id="path142"
         d="m 127,50 27,0 m 769,0 -27,0" />
      <g
         id="g144"
         style="font-size:36px;text-anchor:end;fill:#000000;stroke:none;font-family:Times"
         transform="translate(102,63)">
        <text
           id="text146">
          <tspan
             id="tspan148">8</tspan>
        </text>
      </g>
    </g>
    <g
       transform="matrix(0.33,0,0,0.33,-23.456426,-12.25125)"
       id="g150"
       style="color:#808080;fill:none;stroke:currentColor;stroke-width:1">
      <path
         inkscape:connector-curvature="0"
         id="path152"
         d="M 127,892 127,50" />
    </g>
    <g
       transform="matrix(0.33,0,0,0.33,-23.456426,-12.25125)"
       id="g154"
       style="color:#000000;fill:none;stroke:currentColor;stroke-width:1">
      <path
         inkscape:connector-curvature="0"
         id="path156"
         d="m 127,892 0,-27 m 0,-815 0,27" />
      <g
         id="g158"
         style="font-size:36px;text-anchor:middle;fill:#000000;stroke:none;font-family:Times"
         transform="translate(127,959)">
        <text
           id="text160">
          <tspan
             id="tspan162">-8</tspan>
        </text>
      </g>
    </g>
    <g
       transform="matrix(0.33,0,0,0.33,-23.456426,-12.25125)"
       id="g164"
       style="color:#808080;fill:none;stroke:currentColor;stroke-width:1">
      <path
         inkscape:connector-curvature="0"
         id="path166"
         d="m 227,892 0,-761 m 0,-54 0,-27" />
    </g>
    <g
       transform="matrix(0.33,0,0,0.33,-23.456426,-12.25125)"
       id="g168"
       style="color:#000000;fill:none;stroke:currentColor;stroke-width:1">
      <path
         inkscape:connector-curvature="0"
         id="path170"
         d="m 227,892 0,-27 m 0,-815 0,27" />
      <g
         id="g172"
         style="font-size:36px;text-anchor:middle;fill:#000000;stroke:none;font-family:Times"
         transform="translate(227,959)">
        <text
           id="text174">
          <tspan
             id="tspan176">-6</tspan>
        </text>
      </g>
    </g>
    <g
       transform="matrix(0.33,0,0,0.33,-23.456426,-12.25125)"
       id="g178"
       style="color:#808080;fill:none;stroke:currentColor;stroke-width:1">
      <path
         inkscape:connector-curvature="0"
         id="path180"
         d="m 326,892 0,-761 m 0,-54 0,-27" />
    </g>
    <g
       transform="matrix(0.33,0,0,0.33,-23.456426,-12.25125)"
       id="g182"
       style="color:#000000;fill:none;stroke:currentColor;stroke-width:1">
      <path
         inkscape:connector-curvature="0"
         id="path184"
         d="m 326,892 0,-27 m 0,-815 0,27" />
      <g
         id="g186"
         style="font-size:36px;text-anchor:middle;fill:#000000;stroke:none;font-family:Times"
         transform="translate(326,959)">
        <text
           id="text188">
          <tspan
             id="tspan190">-4</tspan>
        </text>
      </g>
    </g>
    <g
       transform="matrix(0.33,0,0,0.33,-23.456426,-12.25125)"
       id="g192"
       style="color:#808080;fill:none;stroke:currentColor;stroke-width:1">
      <path
         inkscape:connector-curvature="0"
         id="path194"
         d="M 426,892 426,50" />
    </g>
    <g
       transform="matrix(0.33,0,0,0.33,-23.456426,-12.25125)"
       id="g196"
       style="color:#000000;fill:none;stroke:currentColor;stroke-width:1">
      <path
         inkscape:connector-curvature="0"
         id="path198"
         d="m 426,892 0,-27 m 0,-815 0,27" />
      <g
         id="g200"
         style="font-size:36px;text-anchor:middle;fill:#000000;stroke:none;font-family:Times"
         transform="translate(426,959)">
        <text
           id="text202">
          <tspan
             id="tspan204">-2</tspan>
        </text>
      </g>
    </g>
    <g
       transform="matrix(0.33,0,0,0.33,-23.456426,-12.25125)"
       id="g206"
       style="color:#808080;fill:none;stroke:currentColor;stroke-width:1">
      <path
         inkscape:connector-curvature="0"
         id="path208"
         d="M 525,892 525,50" />
    </g>
    <g
       transform="matrix(0.33,0,0,0.33,-23.456426,-12.25125)"
       id="g210"
       style="color:#000000;fill:none;stroke:currentColor;stroke-width:1">
      <path
         inkscape:connector-curvature="0"
         id="path212"
         d="m 525,892 0,-27 m 0,-815 0,27" />
      <g
         id="g214"
         style="font-size:36px;text-anchor:middle;fill:#000000;stroke:none;font-family:Times"
         transform="translate(525,959)">
        <text
           id="text216">
          <tspan
             id="tspan218">0</tspan>
        </text>
      </g>
    </g>
    <g
       transform="matrix(0.33,0,0,0.33,-23.456426,-12.25125)"
       id="g220"
       style="color:#808080;fill:none;stroke:currentColor;stroke-width:1">
      <path
         inkscape:connector-curvature="0"
         id="path222"
         d="M 625,892 625,50" />
    </g>
    <g
       transform="matrix(0.33,0,0,0.33,-23.456426,-12.25125)"
       id="g224"
       style="color:#000000;fill:none;stroke:currentColor;stroke-width:1">
      <path
         inkscape:connector-curvature="0"
         id="path226"
         d="m 625,892 0,-27 m 0,-815 0,27" />
      <g
         id="g228"
         style="font-size:36px;text-anchor:middle;fill:#000000;stroke:none;font-family:Times"
         transform="translate(625,959)">
        <text
           id="text230">
          <tspan
             id="tspan232">2</tspan>
        </text>
      </g>
    </g>
    <g
       transform="matrix(0.33,0,0,0.33,-23.456426,-12.25125)"
       id="g234"
       style="color:#808080;fill:none;stroke:currentColor;stroke-width:1">
      <path
         inkscape:connector-curvature="0"
         id="path236"
         d="M 724,892 724,50" />
    </g>
    <g
       transform="matrix(0.33,0,0,0.33,-23.456426,-12.25125)"
       id="g238"
       style="color:#000000;fill:none;stroke:currentColor;stroke-width:1">
      <path
         inkscape:connector-curvature="0"
         id="path240"
         d="m 724,892 0,-27 m 0,-815 0,27" />
      <g
         id="g242"
         style="font-size:36px;text-anchor:middle;fill:#000000;stroke:none;font-family:Times"
         transform="translate(724,959)">
        <text
           id="text244">
          <tspan
             id="tspan246">4</tspan>
        </text>
      </g>
    </g>
    <g
       transform="matrix(0.33,0,0,0.33,-23.456426,-12.25125)"
       id="g248"
       style="color:#808080;fill:none;stroke:currentColor;stroke-width:1">
      <path
         inkscape:connector-curvature="0"
         id="path250"
         d="M 824,892 824,50" />
    </g>
    <g
       transform="matrix(0.33,0,0,0.33,-23.456426,-12.25125)"
       id="g252"
       style="color:#000000;fill:none;stroke:currentColor;stroke-width:1">
      <path
         inkscape:connector-curvature="0"
         id="path254"
         d="m 824,892 0,-27 m 0,-815 0,27" />
      <g
         id="g256"
         style="font-size:36px;text-anchor:middle;fill:#000000;stroke:none;font-family:Times"
         transform="translate(824,959)">
        <text
           id="text258">
          <tspan
             id="tspan260">6</tspan>
        </text>
      </g>
    </g>
    <g
       transform="matrix(0.33,0,0,0.33,-23.456426,-12.25125)"
       id="g262"
       style="color:#808080;fill:none;stroke:currentColor;stroke-width:1">
      <path
         inkscape:connector-curvature="0"
         id="path264"
         d="M 923,892 923,50" />
    </g>
    <g
       transform="matrix(0.33,0,0,0.33,-23.456426,-12.25125)"
       id="g266"
       style="color:#000000;fill:none;stroke:currentColor;stroke-width:1">
      <path
         inkscape:connector-curvature="0"
         id="path268"
         d="m 923,892 0,-27 m 0,-815 0,27" />
      <g
         id="g270"
         style="font-size:36px;text-anchor:middle;fill:#000000;stroke:none;font-family:Times"
         transform="translate(923,959)">
        <text
           id="text272">
          <tspan
             id="tspan274">8</tspan>
        </text>
      </g>
    </g>
    <g
       transform="matrix(0.33,0,0,0.33,-23.456426,-12.25125)"
       id="g276"
       style="color:#000000;fill:none;stroke:currentColor;stroke-width:2">
      <path
         inkscape:connector-curvature="0"
         id="path278"
         d="m 127,471 796,0 M 525,892 525,50" />
    </g>
    <g
       transform="matrix(0.33,0,0,0.33,-23.456426,-12.25125)"
       id="g280"
       style="color:#000000;fill:none;stroke:currentColor;stroke-width:1">
      <path
         inkscape:connector-curvature="0"
         id="path282"
         d="m 127,892 796,0 0,-842 -796,0 0,842" />
    </g>
    <g
       transform="matrix(0.33,0,0,0.33,-23.456426,-12.25125)"
       id="g288"
       style="color:#000000;fill:none;stroke:currentColor;stroke-width:4">
      <g
         id="g290"
         style="font-size:36px;text-anchor:end;fill:#000000;stroke:none;font-family:Times"
         transform="translate(177,117)">
        <text
           id="text292">x</text>
      </g>
    </g>
    <g
       transform="matrix(0.33,0,0,0.33,-23.456426,-12.25125)"
       id="g294"
       style="color:#ff0000;fill:none;stroke:currentColor;stroke-width:4">
      <path
         inkscape:connector-curvature="0"
         id="path296"
         d="m 202,104 127,0 m -202,788 88,-94 89,-93 88,-94 89,-93 88,-94 89,-93 88,-94 89,-93 88,-94" />
    </g>
    <g
       transform="matrix(0.33,0,0,0.33,-23.456426,-12.25125)"
       id="g300"
       style="color:#000000;fill:none;stroke:currentColor;stroke-width:1">
      <path
         inkscape:connector-curvature="0"
         id="path302"
         d="m 127,892 796,0 0,-842 -796,0 0,842" />
    </g>
  </g>
</svg>
