<?xml version="1.0" encoding="UTF-8" standalone="no"?>
<svg
   xmlns:dc="http://purl.org/dc/elements/1.1/"
   xmlns:cc="http://creativecommons.org/ns#"
   xmlns:rdf="http://www.w3.org/1999/02/22-rdf-syntax-ns#"
   xmlns:svg="http://www.w3.org/2000/svg"
   xmlns="http://www.w3.org/2000/svg"
   xmlns:xlink="http://www.w3.org/1999/xlink"
   xmlns:sodipodi="http://sodipodi.sourceforge.net/DTD/sodipodi-0.dtd"
   xmlns:inkscape="http://www.inkscape.org/namespaces/inkscape"
   version="1.1"
   width="349.50745"
   height="246.49513"
   viewBox="-1.5 -5 6.9901489 4.9299026"
   id="svg7890"
   inkscape:version="0.48.5 r10040"
   sodipodi:docname="Log4.svg">
  <metadata
     id="metadata8138">
    <rdf:RDF>
      <cc:Work
         rdf:about="">
        <dc:format>image/svg+xml</dc:format>
        <dc:type
           rdf:resource="http://purl.org/dc/dcmitype/StillImage" />
      </cc:Work>
    </rdf:RDF>
  </metadata>
  <sodipodi:namedview
     pagecolor="#ffffff"
     bordercolor="#666666"
     borderopacity="1"
     objecttolerance="10"
     gridtolerance="10"
     guidetolerance="10"
     inkscape:pageopacity="0"
     inkscape:pageshadow="2"
     inkscape:window-width="1536"
     inkscape:window-height="803"
     id="namedview8136"
     showgrid="false"
     fit-margin-top="0"
     fit-margin-left="0"
     fit-margin-right="0"
     fit-margin-bottom="0"
     inkscape:zoom="0.472"
     inkscape:cx="-246.60758"
     inkscape:cy="123.17443"
     inkscape:window-x="-8"
     inkscape:window-y="-8"
     inkscape:window-maximized="1"
     inkscape:current-layer="svg7890" />
  <title
     id="title7892">Logs to Base e, 2 and 0.5</title>
  <defs
     id="defs7894">
    <path
       id="g"
       d="M 1.428,-2.172 C 1.992,-1.8 2.472,-1.8 2.604,-1.8 c 1.08,0 1.884,-0.816 1.884,-1.74 0,-0.324 -0.096,-0.78 -0.48,-1.164 0.468,-0.48 1.032,-0.48 1.092,-0.48 0.048,0 0.108,0 0.156,0.024 -0.12,0.048 -0.18,0.168 -0.18,0.3 0,0.168 0.12,0.312 0.312,0.312 0.096,0 0.312,-0.06 0.312,-0.324 0,-0.216 -0.168,-0.552 -0.588,-0.552 -0.624,0 -1.092,0.384 -1.26,0.564 -0.36,-0.276 -0.78,-0.432 -1.236,-0.432 -1.08,0 -1.884,0.816 -1.884,1.74 0,0.684 0.42,1.128 0.54,1.236 -0.144,0.18 -0.36,0.528 -0.36,0.996 0,0.696 0.42,0.996 0.516,1.056 -0.552,0.156 -1.104,0.588 -1.104,1.212 0,0.828 1.128,1.512 2.604,1.512 1.428,0 2.616,-0.636 2.616,-1.536 0,-0.3 -0.084,-1.008 -0.804,-1.38 -0.612,-0.312 -1.212,-0.312 -2.244,-0.312 -0.732,0 -0.816,0 -1.032,-0.228 -0.12,-0.12 -0.228,-0.348 -0.228,-0.6 0,-0.204 0.072,-0.408 0.192,-0.576 z m 1.188,0.12 c -1.056,0 -1.056,-1.212 -1.056,-1.488 0,-0.216 0,-0.708 0.204,-1.032 0.228,-0.348 0.588,-0.468 0.84,-0.468 1.056,0 1.056,1.212 1.056,1.488 0,0.216 0,0.708 -0.204,1.032 -0.228,0.348 -0.588,0.468 -0.84,0.468 z m 0.324,4.26 c -1.152,0 -2.028,-0.588 -2.028,-1.272 0,-0.096 0.024,-0.564 0.48,-0.876 0.264,-0.168 0.372,-0.168 1.212,-0.168 0.996,0 2.352,0 2.352,1.044 0,0.708 -0.912,1.272 -2.016,1.272 z"
       inkscape:connector-curvature="0" />
    <path
       id="l"
       d="m 2.064,-8.328 -1.668,0.132 v 0.348 c 0.816,0 0.912,0.084 0.912,0.672 v 6.288 c 0,0.54 -0.132,0.54 -0.912,0.54 V 0 c 0.336,-0.024 0.924,-0.024 1.284,-0.024 0.36,0 0.96,0 1.296,0.024 v -0.348 c -0.768,0 -0.912,0 -0.912,-0.54 v -7.44 z"
       inkscape:connector-curvature="0" />
    <path
       id="n"
       d="m 5.34,-2.916 c 0,-1.116 0,-1.452 -0.276,-1.836 -0.348,-0.468 -0.912,-0.54 -1.32,-0.54 -1.164,0 -1.62,0.996 -1.716,1.236 H 2.016 V -5.292 L 0.384,-5.16 v 0.348 c 0.816,0 0.912,0.084 0.912,0.672 v 3.252 c 0,0.54 -0.132,0.54 -0.912,0.54 V 0 c 0.312,-0.024 0.96,-0.024 1.296,-0.024 0.348,0 0.996,0 1.308,0.024 v -0.348 c -0.768,0 -0.912,0 -0.912,-0.54 V -3.12 c 0,-1.26 0.828,-1.932 1.572,-1.932 0.744,0 0.912,0.612 0.912,1.344 v 2.82 c 0,0.54 -0.132,0.54 -0.912,0.54 V 0 c 0.312,-0.024 0.96,-0.024 1.296,-0.024 0.348,0 0.996,0 1.308,0.024 v -0.348 c -0.6,0 -0.9,0 -0.912,-0.36 v -2.208 z"
       inkscape:connector-curvature="0" />
    <path
       id="o"
       d="m 5.508,-2.568 c 0,-1.548 -1.176,-2.784 -2.568,-2.784 -1.44,0 -2.58,1.272 -2.58,2.784 0,1.536 1.2,2.688 2.568,2.688 1.416,0 2.58,-1.176 2.58,-2.688 z M 2.94,-0.144 c -0.444,0 -0.984,-0.192 -1.332,-0.78 -0.324,-0.54 -0.336,-1.248 -0.336,-1.752 0,-0.456 0,-1.188 0.372,-1.728 0.336,-0.516 0.864,-0.708 1.284,-0.708 0.468,0 0.972,0.216 1.296,0.684 0.372,0.552 0.372,1.308 0.372,1.752 0,0.42 0,1.164 -0.312,1.728 -0.336,0.576 -0.888,0.804 -1.344,0.804 z"
       inkscape:connector-curvature="0" />
    <path
       id="_2"
       d="m 2.256,-1.632 c 0.128,-0.12 0.464,-0.384 0.592,-0.496 0.496,-0.456 0.968,-0.896 0.968,-1.624 0,-0.952 -0.8,-1.568 -1.8,-1.568 -0.96,0 -1.592,0.728 -1.592,1.44 0,0.392 0.312,0.448 0.424,0.448 0.168,0 0.416,-0.12 0.416,-0.424 0,-0.416 -0.4,-0.416 -0.496,-0.416 0.232,-0.584 0.768,-0.784 1.16,-0.784 0.744,0 1.128,0.632 1.128,1.304 0,0.832 -0.584,1.44 -1.528,2.408 L 0.52,-0.304 C 0.424,-0.216 0.424,-0.2 0.424,0 h 3.16 L 3.816,-1.432 H 3.568 C 3.544,-1.272 3.48,-0.872 3.384,-0.72 3.336,-0.656 2.728,-0.656 2.6,-0.656 H 1.176 l 1.08,-0.976 z"
       inkscape:connector-curvature="0" />
    <path
       id="__1"
       d="m 2.154,-3.81 c 0,-0.18 -0.024,-0.18 -0.204,-0.18 -0.396,0.384 -1.008,0.384 -1.224,0.384 v 0.234 c 0.156,0 0.552,0 0.912,-0.168 v 3.03 c 0,0.198 0,0.276 -0.618,0.276 H 0.762 V 0 c 0.33,-0.024 0.798,-0.024 1.134,-0.024 0.336,0 0.804,0 1.134,0.024 V -0.234 H 2.772 c -0.618,0 -0.618,-0.078 -0.618,-0.276 v -3.3 z"
       inkscape:connector-curvature="0" />
    <path
       id="__2"
       d="M 3.228,-1.122 H 3.006 C 2.994,-1.038 2.934,-0.642 2.844,-0.576 2.802,-0.54 2.316,-0.54 2.232,-0.54 H 1.11 c 0.174,-0.138 0.594,-0.486 0.768,-0.624 0.204,-0.162 0.738,-0.546 0.924,-0.726 0.18,-0.18 0.426,-0.486 0.426,-0.912 0,-0.75 -0.678,-1.188 -1.482,-1.188 -0.774,0 -1.314,0.51 -1.314,1.074 0,0.306 0.258,0.342 0.324,0.342 0.15,0 0.324,-0.108 0.324,-0.324 0,-0.132 -0.078,-0.324 -0.342,-0.324 0.138,-0.306 0.504,-0.534 0.918,-0.534 0.63,0 0.966,0.468 0.966,0.954 0,0.426 -0.282,0.864 -0.702,1.248 L 0.498,-0.252 C 0.438,-0.192 0.432,-0.186 0.432,0 h 2.61 l 0.186,-1.122 z"
       inkscape:connector-curvature="0" />
    <path
       id="x"
       d="m 5.688,-4.896 c -0.384,0.072 -0.528,0.36 -0.528,0.588 0,0.288 0.228,0.384 0.396,0.384 0.36,0 0.612,-0.312 0.612,-0.636 0,-0.504 -0.576,-0.732 -1.08,-0.732 -0.732,0 -1.14,0.72 -1.248,0.948 -0.276,-0.9 -1.02,-0.948 -1.236,-0.948 -1.224,0 -1.872,1.572 -1.872,1.836 0,0.048 0.048,0.108 0.132,0.108 0.096,0 0.12,-0.072 0.144,-0.12 0.408,-1.332 1.212,-1.584 1.56,-1.584 0.54,0 0.648,0.504 0.648,0.792 0,0.264 -0.072,0.54 -0.216,1.116 -0.192,0.768 -0.24,0.948 -0.408,1.644 -0.18,0.72 -0.528,1.38 -1.164,1.38 -0.06,0 -0.36,0 -0.612,-0.156 0.432,-0.084 0.528,-0.444 0.528,-0.588 0,-0.24 -0.18,-0.384 -0.408,-0.384 -0.288,0 -0.6,0.252 -0.6,0.636 0,0.504 0.564,0.732 1.08,0.732 0.576,0 0.984,-0.456 1.236,-0.948 0.192,0.708 0.792,0.948 1.236,0.948 1.224,0 1.872,-1.572 1.872,-1.836 0,-0.06 -0.048,-0.108 -0.12,-0.108 -0.108,0 -0.12,0.06 -0.156,0.156 -0.324,1.056 -1.02,1.548 -1.56,1.548 -0.42,0 -0.648,-0.312 -0.648,-0.804 0,-0.264 0.048,-0.456 0.24,-1.248 0.144,-0.552 0.3,-1.188 0.42,-1.632 0.18,-0.72 0.588,-1.248 1.14,-1.248 0.024,0 0.36,0 0.612,0.156 z"
       inkscape:connector-curvature="0" />
    <path
       id="f"
       d="m 3.65625,-3.984375 0.859375,0 c 0.203125,0 0.296875,0 0.296875,-0.203125 0,-0.109375 -0.09375,-0.109375 -0.265625,-0.109375 l -0.828125,0 C 3.828125,-4.875 3.8125,-4.859375 3.921875,-5.4375 c 0.046875,-0.203125 0.1875,-0.90625 0.25,-1.03125 0.078125,-0.1875 0.25,-0.34375 0.46875,-0.34375 0.03125,0 0.296875,0 0.484375,0.1875 -0.4375,0.03125 -0.546875,0.390625 -0.546875,0.53125 0,0.234375 0.1875,0.359375 0.375,0.359375 C 5.21875,-5.734375 5.5,-5.96875 5.5,-6.34375 c 0,-0.453125 -0.453125,-0.6875 -0.859375,-0.6875 -0.34375,0 -0.96875,0.1875 -1.265625,1.171875 -0.0625,0.203125 -0.09375,0.3125 -0.328125,1.5625 l -0.6875,0 c -0.203125,0 -0.3125,0 -0.3125,0.1875 0,0.125 0.09375,0.125 0.28125,0.125 l 0.65625,0 -0.734375,3.9375 c -0.1875,0.96875 -0.359375,1.875 -0.875,1.875 -0.046875,0 -0.28125,0 -0.484375,-0.1875 C 1.359375,1.609375 1.453125,1.25 1.453125,1.109375 1.453125,0.875 1.265625,0.75 1.078125,0.75 0.8125,0.75 0.53125,0.984375 0.53125,1.359375 c 0,0.4375 0.4375,0.6875 0.84375,0.6875 0.546875,0 0.953125,-0.59375 1.125,-0.96875 0.328125,-0.625 0.546875,-1.828125 0.5625,-1.90625 l 0.59375,-3.15625 z m 0,0"
       inkscape:connector-curvature="0" />
    <path
       id="l-paren"
       d="m 3.296875,2.390625 c 0,-0.03125 0,-0.046875 -0.171875,-0.21875 C 1.890625,0.921875 1.5625,-0.96875 1.5625,-2.5 c 0,-1.734375 0.375,-3.46875 1.609375,-4.703125 0.125,-0.125 0.125,-0.140625 0.125,-0.171875 0,-0.078125 -0.03125,-0.109375 -0.09375,-0.109375 -0.109375,0 -1,0.6875 -1.59375,1.953125 -0.5,1.09375 -0.625,2.203125 -0.625,3.03125 0,0.78125 0.109375,1.984375 0.65625,3.125 C 2.25,1.84375 3.09375,2.5 3.203125,2.5 c 0.0625,0 0.09375,-0.03125 0.09375,-0.109375 z m 0,0"
       inkscape:connector-curvature="0" />
    <path
       id="r-paren"
       d="m 2.875,-2.5 c 0,-0.765625 -0.109375,-1.96875 -0.65625,-3.109375 -0.59375,-1.21875 -1.453125,-1.875 -1.546875,-1.875 -0.0625,0 -0.109375,0.046875 -0.109375,0.109375 0,0.03125 0,0.046875 0.1875,0.234375 0.984375,0.984375 1.546875,2.5625 1.546875,4.640625 0,1.71875 -0.359375,3.46875 -1.59375,4.71875 C 0.5625,2.34375 0.5625,2.359375 0.5625,2.390625 0.5625,2.453125 0.609375,2.5 0.671875,2.5 0.765625,2.5 1.671875,1.8125 2.25,0.546875 2.765625,-0.546875 2.875,-1.65625 2.875,-2.5 z m 0,0"
       inkscape:connector-curvature="0" />
    <path
       id="minus"
       d="m 6.59375,-2.296875 c 0.140625,0 0.328125,0 0.328125,-0.203125 0,-0.1875 -0.1875,-0.1875 -0.328125,-0.1875 l -5.4375,0 c -0.140625,0 -0.328125,0 -0.328125,0.1875 0,0.203125 0.1875,0.203125 0.328125,0.203125 l 5.4375,0 z m 0,0"
       inkscape:connector-curvature="0" />
    <path
       id="d1"
       d="m 2.9375,-6.375 c 0,-0.25 0,-0.265625 -0.234375,-0.265625 C 2.078125,-6 1.203125,-6 0.890625,-6 l 0,0.3125 c 0.203125,0 0.78125,0 1.296875,-0.265625 l 0,5.171875 c 0,0.359375 -0.03125,0.46875 -0.921875,0.46875 l -0.3125,0 0,0.3125 c 0.34375,-0.03125 1.203125,-0.03125 1.609375,-0.03125 0.390625,0 1.265625,0 1.609375,0.03125 l 0,-0.3125 -0.3125,0 c -0.90625,0 -0.921875,-0.109375 -0.921875,-0.46875 l 0,-5.59375 z m 0,0"
       inkscape:connector-curvature="0" />
    <path
       id="d2"
       d="m 4.46875,-1.734375 -0.234375,0 C 4.171875,-1.4375 4.109375,-1 4,-0.84375 3.9375,-0.765625 3.28125,-0.765625 3.0625,-0.765625 l -1.796875,0 1.0625,-1.03125 c 1.546875,-1.375 2.140625,-1.90625 2.140625,-2.90625 0,-1.140625 -0.890625,-1.9375 -2.109375,-1.9375 -1.125,0 -1.859375,0.921875 -1.859375,1.8125 0,0.546875 0.5,0.546875 0.53125,0.546875 0.171875,0 0.515625,-0.109375 0.515625,-0.53125 0,-0.25 -0.1875,-0.515625 -0.53125,-0.515625 -0.078125,0 -0.09375,0 -0.125,0.015625 0.21875,-0.65625 0.765625,-1.015625 1.34375,-1.015625 0.90625,0 1.328125,0.8125 1.328125,1.625 C 3.5625,-3.90625 3.078125,-3.125 2.515625,-2.5 l -1.90625,2.125 C 0.5,-0.265625 0.5,-0.234375 0.5,0 L 4.203125,0 4.46875,-1.734375 z m 0,0"
       inkscape:connector-curvature="0" />
    <path
       id="d3"
       d="m 2.890625,-3.515625 c 0.8125,-0.265625 1.390625,-0.953125 1.390625,-1.75 0,-0.8125 -0.875,-1.375 -1.828125,-1.375 -1,0 -1.765625,0.59375 -1.765625,1.359375 0,0.328125 0.21875,0.515625 0.515625,0.515625 0.296875,0 0.5,-0.21875 0.5,-0.515625 0,-0.484375 -0.46875,-0.484375 -0.609375,-0.484375 0.296875,-0.5 0.953125,-0.625 1.3125,-0.625 0.421875,0 0.96875,0.21875 0.96875,1.109375 0,0.125 -0.03125,0.703125 -0.28125,1.140625 C 2.796875,-3.65625 2.453125,-3.625 2.203125,-3.625 2.125,-3.609375 1.890625,-3.59375 1.8125,-3.59375 c -0.078125,0.015625 -0.140625,0.03125 -0.140625,0.125 0,0.109375 0.0625,0.109375 0.234375,0.109375 l 0.4375,0 c 0.8125,0 1.1875,0.671875 1.1875,1.65625 0,1.359375 -0.6875,1.640625 -1.125,1.640625 -0.4375,0 -1.1875,-0.171875 -1.53125,-0.75 0.34375,0.046875 0.65625,-0.171875 0.65625,-0.546875 0,-0.359375 -0.265625,-0.5625 -0.546875,-0.5625 -0.25,0 -0.5625,0.140625 -0.5625,0.578125 0,0.90625 0.921875,1.5625 2.015625,1.5625 1.21875,0 2.125,-0.90625 2.125,-1.921875 0,-0.8125 -0.640625,-1.59375 -1.671875,-1.8125 z m 0,0"
       inkscape:connector-curvature="0" />
    <path
       id="d4"
       d="m 0.28125,-1.640625 2.65625,0 0,0.859375 c 0,0.359375 -0.03125,0.46875 -0.765625,0.46875 l -0.203125,0 0,0.3125 C 2.375,-0.03125 2.890625,-0.03125 3.3125,-0.03125 c 0.421875,0 0.9375,0 1.359375,0.03125 l 0,-0.3125 -0.21875,0 c -0.734375,0 -0.75,-0.109375 -0.75,-0.46875 l 0,-0.859375 0.984375,0 0,-0.3125 -0.984375,0 0,-4.53125 c 0,-0.203125 0,-0.265625 -0.171875,-0.265625 -0.078125,0 -0.109375,0 -0.1875,0.125 l -3.0625,4.671875 0,0.3125 z m 2.703125,-0.3125 -2.421875,0 2.421875,-3.71875 0,3.71875 z m 0,0"
       inkscape:connector-curvature="0" />
    <path
       id="d5"
       d="m 4.46875,-2 c 0,-1.1875 -0.8125,-2.1875 -1.890625,-2.1875 -0.46875,0 -0.90625,0.15625 -1.265625,0.515625 l 0,-1.953125 c 0.203125,0.0625 0.53125,0.125 0.84375,0.125 1.234375,0 1.9375,-0.90625 1.9375,-1.03125 0,-0.0625 -0.03125,-0.109375 -0.109375,-0.109375 0,0 -0.03125,0 -0.078125,0.03125 C 3.703125,-6.515625 3.21875,-6.3125 2.546875,-6.3125 2.15625,-6.3125 1.6875,-6.390625 1.21875,-6.59375 1.140625,-6.625 1.125,-6.625 1.109375,-6.625 1,-6.625 1,-6.546875 1,-6.390625 L 1,-3.4375 c 0,0.171875 0,0.25 0.140625,0.25 0.078125,0 0.09375,-0.015625 0.140625,-0.078125 C 1.390625,-3.421875 1.75,-3.96875 2.5625,-3.96875 c 0.515625,0 0.765625,0.453125 0.84375,0.640625 0.15625,0.375 0.1875,0.75 0.1875,1.25 0,0.359375 0,0.953125 -0.25,1.375 C 3.109375,-0.3125 2.734375,-0.0625 2.28125,-0.0625 c -0.71875,0 -1.296875,-0.53125 -1.46875,-1.109375 0.03125,0 0.0625,0.015625 0.171875,0.015625 0.328125,0 0.5,-0.25 0.5,-0.484375 0,-0.25 -0.171875,-0.5 -0.5,-0.5 C 0.84375,-2.140625 0.5,-2.0625 0.5,-1.609375 0.5,-0.75 1.1875,0.21875 2.296875,0.21875 3.453125,0.21875 4.46875,-0.734375 4.46875,-2 z m 0,0"
       inkscape:connector-curvature="0" />
    <path
       id="d6"
       d="m 1.3125,-3.265625 0,-0.25 c 0,-2.515625 1.234375,-2.875 1.75,-2.875 0.234375,0 0.65625,0.0625 0.875,0.40625 -0.15625,0 -0.546875,0 -0.546875,0.4375 0,0.3125 0.234375,0.46875 0.453125,0.46875 0.15625,0 0.46875,-0.09375 0.46875,-0.484375 0,-0.59375 -0.4375,-1.078125 -1.265625,-1.078125 -1.28125,0 -2.625,1.28125 -2.625,3.484375 0,2.671875 1.15625,3.375 2.078125,3.375 1.109375,0 2.0625,-0.9375 2.0625,-2.25 0,-1.265625 -0.890625,-2.21875 -2,-2.21875 -0.671875,0 -1.046875,0.5 -1.25,0.984375 z M 2.5,-0.0625 c -0.625,0 -0.921875,-0.59375 -0.984375,-0.75 -0.1875,-0.46875 -0.1875,-1.265625 -0.1875,-1.4375 0,-0.78125 0.328125,-1.78125 1.21875,-1.78125 0.171875,0 0.625,0 0.9375,0.625 0.171875,0.359375 0.171875,0.875 0.171875,1.359375 0,0.484375 0,0.984375 -0.171875,1.34375 C 3.1875,-0.109375 2.734375,-0.0625 2.5,-0.0625 z m 0,0"
       inkscape:connector-curvature="0" />
    <path
       id="d7"
       d="m 4.75,-6.078125 c 0.078125,-0.109375 0.078125,-0.125 0.078125,-0.34375 l -2.421875,0 c -1.203125,0 -1.234375,-0.125 -1.265625,-0.3125 l -0.25,0 -0.328125,2.046875 0.25,0 c 0.03125,-0.15625 0.109375,-0.78125 0.25,-0.90625 0.0625,-0.0625 0.84375,-0.0625 0.96875,-0.0625 l 2.0625,0 C 3.984375,-5.5 3.203125,-4.40625 2.984375,-4.078125 2.078125,-2.734375 1.75,-1.34375 1.75,-0.328125 c 0,0.09375 0,0.546875 0.46875,0.546875 0.453125,0 0.453125,-0.453125 0.453125,-0.546875 l 0,-0.515625 c 0,-0.546875 0.03125,-1.09375 0.109375,-1.625 0.046875,-0.234375 0.171875,-1.09375 0.625,-1.703125 L 4.75,-6.078125 z m 0,0"
       inkscape:connector-curvature="0" />
    <path
       id="d8"
       d="m 1.625,-4.5625 c -0.453125,-0.296875 -0.5,-0.625 -0.5,-0.796875 0,-0.609375 0.65625,-1.03125 1.359375,-1.03125 0.71875,0 1.359375,0.515625 1.359375,1.234375 0,0.578125 -0.390625,1.046875 -0.984375,1.390625 L 1.625,-4.5625 z m 1.453125,0.953125 C 3.796875,-3.984375 4.28125,-4.5 4.28125,-5.15625 c 0,-0.921875 -0.875,-1.484375 -1.78125,-1.484375 -1,0 -1.8125,0.734375 -1.8125,1.671875 0,0.171875 0.015625,0.625 0.4375,1.09375 0.109375,0.109375 0.484375,0.359375 0.734375,0.53125 C 1.28125,-3.046875 0.421875,-2.5 0.421875,-1.5 c 0,1.046875 1.015625,1.71875 2.0625,1.71875 1.125,0 2.078125,-0.828125 2.078125,-1.890625 0,-0.359375 -0.109375,-0.8125 -0.5,-1.234375 C 3.875,-3.109375 3.71875,-3.203125 3.078125,-3.609375 z m -1,0.421875 c 0.28125,0.171875 0.75,0.46875 1.234375,0.78125 0.28125,0.1875 0.75,0.484375 0.75,1.09375 0,0.734375 -0.75,1.25 -1.5625,1.25 -0.859375,0 -1.578125,-0.609375 -1.578125,-1.4375 0,-0.578125 0.3125,-1.21875 1.15625,-1.6875 z m 0,0"
       inkscape:connector-curvature="0" />
    <path
       id="d9"
       d="m 3.65625,-3.171875 0,0.328125 c 0,2.328125 -1.03125,2.78125 -1.609375,2.78125 -0.171875,0 -0.71875,-0.015625 -0.984375,-0.359375 0.4375,0 0.515625,-0.28125 0.515625,-0.453125 0,-0.3125 -0.234375,-0.453125 -0.453125,-0.453125 -0.15625,0 -0.453125,0.078125 -0.453125,0.46875 0,0.671875 0.53125,1.078125 1.375,1.078125 1.296875,0 2.515625,-1.359375 2.515625,-3.5 0,-2.6875 -1.15625,-3.359375 -2.046875,-3.359375 -0.546875,0 -1.03125,0.1875 -1.453125,0.625 -0.421875,0.453125 -0.640625,0.875 -0.640625,1.625 0,1.234375 0.875,2.21875 1.984375,2.21875 0.609375,0 1.015625,-0.421875 1.25,-1 z M 2.421875,-2.40625 c -0.15625,0 -0.625,0 -0.921875,-0.625 -0.1875,-0.375 -0.1875,-0.859375 -0.1875,-1.359375 0,-0.53125 0,-1 0.21875,-1.375 0.265625,-0.5 0.640625,-0.625 0.984375,-0.625 0.46875,0 0.796875,0.34375 0.96875,0.78125 0.109375,0.328125 0.15625,0.953125 0.15625,1.40625 0,0.828125 -0.34375,1.796875 -1.21875,1.796875 z m 0,0"
       inkscape:connector-curvature="0" />
    <!-- We cannot reuse Graphs of Log for different bases because
	     Scaling in y-Direction would also scale the Strokes in
	     y-Direction -->
    <!-- ln -->
    <path
       id="ln"
       d="m 0.006738,-5 q 0.001824,0.270747 0.004371,0.5 0.003008,0.270747 0.007207,0.5 0.004959,0.270747 0.011881,0.5 0.008176,0.270747 0.01959,0.5 0.01348,0.270747 0.032298,0.5 0.022224,0.270747 0.05325,0.5 0.036642,0.270747 0.087795,0.5 0.060412,0.270747 0.144749,0.5 0.099603,0.270747 0.238652,0.5 Q 0.770747,-0.229253 1,0 1.270747,0.270747 1.648721,0.5 2.095108,0.770747 2.718282,1 3.454249,1.270747 4.481689,1.5 5.695093,1.770747 7.389056,2 9.389621,2.270747 12.182494,2.5"
       inkscape:connector-curvature="0" />
    <!-- log_2 x -->
    <path
       id="log2"
       d="m 0.03125,-5 q 0.005727,0.264412 0.012944,0.5 0.0081,0.264412 0.018306,0.5 0.011455,0.264412 0.025888,0.5 0.0162,0.264412 0.036612,0.5 0.02291,0.264412 0.051777,0.5 Q 0.209176,-2.235588 0.25,-2 0.295819,-1.735588 0.353553,-1.5 0.418351,-1.235588 0.5,-1 0.591638,-0.735588 0.707107,-0.5 0.836703,-0.235588 1,0 1.183276,0.264412 1.414214,0.5 1.673405,0.764412 2,1 2.366553,1.264412 2.828427,1.5 3.346811,1.764412 4,2 4.733105,2.264412 5.656854,2.5 6.693621,2.764412 8,3 9.46621,3.264412 11.313708,3.5"
       inkscape:connector-curvature="0" />
    <!-- pstricks-style arrow, zoom 3 -->
    <marker
       id="Arrow"
       refX="6"
       refY="5"
       markerUnits="strokeWidth"
       markerWidth="12"
       markerHeight="9"
       orient="auto">
      <path
         d="M 5,5 0,9 12,5 0,0 z"
         id="path7920"
         inkscape:connector-curvature="0" />
    </marker>
    <!-- Pattern used to x-Ticks on Axes -->
    <pattern
       id="tick-x"
       width="1"
       height="1"
       patternUnits="userSpaceOnUse">
      <path
         style="stroke:black; stroke-width:0.023;"
         d="M 0,-1 v 2"
         id="path7923" />
    </pattern>
    <!-- Pattern used to y-Ticks on Axes -->
    <pattern
       id="tick-y"
       width="1"
       height="1"
       patternUnits="userSpaceOnUse">
      <path
         style="stroke:black; stroke-width:0.023;"
         d="M -1,0 h 2"
         id="path7926" />
    </pattern>
  </defs>
  <rect
     x="-1.2536513"
     y="-4.9970746"
     width="5.6660237"
     height="4.9269772"
     style="fill:#ffffff;fill-opacity:0.8"
     id="rect7928" />
  <g
     style="fill:#000000;stroke:none"
     id="g7930"
     transform="matrix(0.49269773,0,0,0.49269773,-0.51460454,-2.533586)">
    <!-- Label for x-Axis -->
    <g
       transform="translate(9.3,-0.2)"
       id="g7932">
      <g
         transform="scale(0.04,0.04)"
         id="g7934">
        <use
           xlink:href="#x"
           id="use7936"
           x="0"
           y="0"
           width="11.5"
           height="10" />
      </g>
    </g>
    <!-- Label for y-Axis -->
    <g
       transform="translate(0.2,-4.3)"
       id="g7938">
      <g
         transform="scale(0.045,0.045)"
         id="g7940">
        <use
           xlink:href="#f"
           x="0.303516"
           id="use7942"
           y="0"
           width="11.5"
           height="10" />
        <use
           xlink:href="#l-paren"
           x="6.2535162"
           id="use7944"
           y="0"
           width="11.5"
           height="10" />
        <use
           xlink:href="#r-paren"
           x="15.821876"
           id="use7946"
           y="0"
           width="11.5"
           height="10" />
      </g>
      <g
         transform="scale(0.04,0.04)"
         id="g7948">
        <use
           xlink:href="#x"
           x="11.3"
           id="use7950"
           y="0"
           width="11.5"
           height="10" />
      </g>
    </g>
    <!-- Labels for graphs -->
    <g
       transform="translate(9.1,-1.7)"
       id="g7952">
      <g
         transform="scale(0.04,0.04)"
         id="g7954">
        <use
           xlink:href="#l"
           id="use7956"
           x="0"
           y="0"
           width="11.5"
           height="10" />
        <use
           xlink:href="#n"
           x="3.26"
           id="use7958"
           y="0"
           width="11.5"
           height="10" />
        <use
           xlink:href="#x"
           x="11.8"
           id="use7960"
           y="0"
           width="11.5"
           height="10" />
      </g>
    </g>
    <g
       transform="translate(8.7,-3.5)"
       id="g7962">
      <g
         transform="scale(0.04,0.04)"
         id="g7964">
        <use
           xlink:href="#l"
           id="use7966"
           x="0"
           y="0"
           width="11.5"
           height="10" />
        <use
           xlink:href="#o"
           x="3.26"
           id="use7968"
           y="0"
           width="11.5"
           height="10" />
        <use
           xlink:href="#g"
           x="9.1400003"
           id="use7970"
           y="0"
           width="11.5"
           height="10" />
        <use
           xlink:href="#_2"
           x="15.18"
           y="2.8299999"
           id="use7972"
           width="11.5"
           height="10" />
        <use
           xlink:href="#x"
           x="21.9"
           id="use7974"
           y="0"
           width="11.5"
           height="10" />
      </g>
    </g>
    <g
       transform="translate(8.6,3.7)"
       id="g7976">
      <g
         transform="scale(0.04,0.04)"
         id="g7978">
        <use
           xlink:href="#l"
           id="use7980"
           x="0"
           y="0"
           width="11.5"
           height="10" />
        <use
           xlink:href="#o"
           x="3.26"
           id="use7982"
           y="0"
           width="11.5"
           height="10" />
        <use
           xlink:href="#g"
           x="9.1400003"
           id="use7984"
           y="0"
           width="11.5"
           height="10" />
        <use
           xlink:href="#__1"
           x="16.4"
           y="-0.266"
           id="use7986"
           width="11.5"
           height="10" />
        <rect
           height="0.40000001"
           width="3.6700001"
           x="16.4"
           y="0.80000001"
           id="rect7988" />
        <use
           xlink:href="#__2"
           x="16.4"
           y="6.1420002"
           id="use7990"
           width="11.5"
           height="10" />
        <use
           xlink:href="#x"
           x="23.299999"
           id="use7992"
           y="0"
           width="11.5"
           height="10" />
      </g>
    </g>
    <!-- Scaling for x-Axis -->
    <g
       transform="translate(0.3,0.4)"
       id="g7994">
      <g
         transform="translate(-1,0)"
         id="g7996">
        <g
           transform="scale(0.035,0.035)"
           id="g7998">
          <use
             xlink:href="#minus"
             x="-15.73"
             y="2.8"
             id="use8000"
             width="11.5"
             height="10" />
          <use
             xlink:href="#d1"
             x="-8"
             y="2.8"
             id="use8002"
             width="11.5"
             height="10" />
        </g>
      </g>
      <g
         transform="translate(1,0)"
         id="g8004">
        <g
           transform="scale(0.035,0.035)"
           id="g8006">
          <use
             xlink:href="#d1"
             x="-11"
             y="2.8"
             id="use8008"
             width="11.5"
             height="10" />
        </g>
      </g>
      <g
         transform="translate(2,0)"
         id="g8010">
        <g
           transform="scale(0.035,0.035)"
           id="g8012">
          <use
             xlink:href="#d2"
             x="-11"
             y="2.8"
             id="use8014"
             width="11.5"
             height="10" />
        </g>
      </g>
      <g
         transform="translate(3,0)"
         id="g8016">
        <g
           transform="scale(0.035,0.035)"
           id="g8018">
          <use
             xlink:href="#d3"
             x="-11"
             y="2.8"
             id="use8020"
             width="11.5"
             height="10" />
        </g>
      </g>
      <g
         transform="translate(4,0)"
         id="g8022">
        <g
           transform="scale(0.035,0.035)"
           id="g8024">
          <use
             xlink:href="#d4"
             x="-11"
             y="2.8"
             id="use8026"
             width="11.5"
             height="10" />
        </g>
      </g>
      <g
         transform="translate(5,0)"
         id="g8028">
        <g
           transform="scale(0.035,0.035)"
           id="g8030">
          <use
             xlink:href="#d5"
             x="-11"
             y="2.8"
             id="use8032"
             width="11.5"
             height="10" />
        </g>
      </g>
      <g
         transform="translate(6,0)"
         id="g8034">
        <g
           transform="scale(0.035,0.035)"
           id="g8036">
          <use
             xlink:href="#d6"
             x="-11"
             y="2.8"
             id="use8038"
             width="11.5"
             height="10" />
        </g>
      </g>
      <g
         transform="translate(7,0)"
         id="g8040">
        <g
           transform="scale(0.035,0.035)"
           id="g8042">
          <use
             xlink:href="#d7"
             x="-11"
             y="2.8"
             id="use8044"
             width="11.5"
             height="10" />
        </g>
      </g>
      <g
         transform="translate(8,0)"
         id="g8046">
        <g
           transform="scale(0.035,0.035)"
           id="g8048">
          <use
             xlink:href="#d8"
             x="-11"
             y="2.8"
             id="use8050"
             width="11.5"
             height="10" />
        </g>
      </g>
      <g
         transform="translate(9,0)"
         id="g8052">
        <g
           transform="scale(0.035,0.035)"
           id="g8054">
          <use
             xlink:href="#d9"
             x="-11"
             y="2.8"
             id="use8056"
             width="11.5"
             height="10" />
        </g>
      </g>
    </g>
    <!-- Scaling for y-Axis -->
    <g
       transform="translate(-0.15,0)"
       id="g8058">
      <g
         transform="translate(0,4)"
         id="g8060">
        <g
           transform="scale(0.035,0.035)"
           id="g8062">
          <use
             xlink:href="#minus"
             x="-15.73"
             y="2.8"
             id="use8064"
             width="11.5"
             height="10" />
          <use
             xlink:href="#d4"
             x="-8"
             y="2.8"
             id="use8066"
             width="11.5"
             height="10" />
        </g>
      </g>
      <g
         transform="translate(0,3)"
         id="g8068">
        <g
           transform="scale(0.035,0.035)"
           id="g8070">
          <use
             xlink:href="#minus"
             x="-15.73"
             y="2.8"
             id="use8072"
             width="11.5"
             height="10" />
          <use
             xlink:href="#d3"
             x="-8"
             y="2.8"
             id="use8074"
             width="11.5"
             height="10" />
        </g>
      </g>
      <g
         transform="translate(0,2)"
         id="g8076">
        <g
           transform="scale(0.035,0.035)"
           id="g8078">
          <use
             xlink:href="#minus"
             x="-15.73"
             y="2.8"
             id="use8080"
             width="11.5"
             height="10" />
          <use
             xlink:href="#d2"
             x="-8"
             y="2.8"
             id="use8082"
             width="11.5"
             height="10" />
        </g>
      </g>
      <g
         transform="translate(0,1)"
         id="g8084">
        <g
           transform="scale(0.035,0.035)"
           id="g8086">
          <use
             xlink:href="#minus"
             x="-15.73"
             y="2.8"
             id="use8088"
             width="11.5"
             height="10" />
          <use
             xlink:href="#d1"
             x="-8"
             y="2.8"
             id="use8090"
             width="11.5"
             height="10" />
        </g>
      </g>
      <g
         transform="translate(0,-1)"
         id="g8092">
        <g
           transform="scale(0.035,0.035)"
           id="g8094">
          <use
             xlink:href="#d1"
             x="-8"
             y="3.2"
             id="use8096"
             width="11.5"
             height="10" />
        </g>
      </g>
      <g
         transform="translate(0,-2)"
         id="g8098">
        <g
           transform="scale(0.035,0.035)"
           id="g8100">
          <use
             xlink:href="#d2"
             x="-8"
             y="3.2"
             id="use8102"
             width="11.5"
             height="10" />
        </g>
      </g>
      <g
         transform="translate(0,-3)"
         id="g8104">
        <g
           transform="scale(0.035,0.035)"
           id="g8106">
          <use
             xlink:href="#d3"
             x="-8"
             y="3.2"
             id="use8108"
             width="11.5"
             height="10" />
        </g>
      </g>
      <g
         transform="translate(0,-4)"
         id="g8110">
        <g
           transform="scale(0.035,0.035)"
           id="g8112">
          <use
             xlink:href="#d4"
             x="-8"
             y="3.2"
             id="use8114"
             width="11.5"
             height="10" />
        </g>
      </g>
    </g>
  </g>
  <g
     transform="matrix(0.49269773,0,0,-0.49269773,-0.51460454,-2.533586)"
     style="fill:none"
     id="g8116">
    <!-- Ticks on x-Axis -->
    <rect
       x="-1.5"
       y="-0.15000001"
       width="11"
       height="0.30000001"
       style="fill:url(#tick-x);stroke:none"
       id="rect8118" />
    <!-- Ticks on y-Axis -->
    <rect
       x="-0.15000001"
       y="-4.5"
       width="0.30000001"
       height="9"
       style="fill:url(#tick-y);stroke:none"
       id="rect8120" />
    <g
       style="stroke:#000000;stroke-width:0.025"
       id="g8122">
      <!-- Axes shortened by 6*width because of Arrow -->
      <path
         d="M -2,0 9.82,0"
         id="path8124"
         inkscape:connector-curvature="0"
         style="marker-end:url(#Arrow)" />
      <path
         d="M 0,-5 0,4.82"
         id="path8126"
         inkscape:connector-curvature="0"
         style="marker-end:url(#Arrow)" />
    </g>
    <!-- The Graphs -->
    <g
       style="stroke-width:0.025"
       id="g8128">
      <!-- log_0.5 x -->
      <use
         xlink:href="#log2"
         style="stroke:#3333ff"
         transform="scale(1,-1)"
         id="use8130"
         x="0"
         y="0"
         width="11.5"
         height="10" />
      <!-- log_2 x -->
      <use
         xlink:href="#log2"
         style="stroke:#339900"
         id="use8132"
         x="0"
         y="0"
         width="11.5"
         height="10" />
      <!-- ln x -->
      <use
         xlink:href="#ln"
         style="stroke:#ff0000"
         id="use8134"
         x="0"
         y="0"
         width="11.5"
         height="10" />
    </g>
  </g>
</svg>
