<?xml version="1.0" encoding="UTF-8" standalone="no"?>
<svg
   xmlns:dc="http://purl.org/dc/elements/1.1/"
   xmlns:cc="http://creativecommons.org/ns#"
   xmlns:rdf="http://www.w3.org/1999/02/22-rdf-syntax-ns#"
   xmlns:svg="http://www.w3.org/2000/svg"
   xmlns="http://www.w3.org/2000/svg"
   xmlns:xlink="http://www.w3.org/1999/xlink"
   xmlns:sodipodi="http://sodipodi.sourceforge.net/DTD/sodipodi-0.dtd"
   xmlns:inkscape="http://www.inkscape.org/namespaces/inkscape"
   id="sine"
   version="1.1"
   width="330"
   height="132"
   inkscape:version="0.48.5 r10040"
   sodipodi:docname="Sine_cosine_one_period.svg">
  <metadata
     id="metadata172">
    <rdf:RDF>
      <cc:Work
         rdf:about="">
        <dc:format>image/svg+xml</dc:format>
        <dc:type
           rdf:resource="http://purl.org/dc/dcmitype/StillImage" />
      </cc:Work>
    </rdf:RDF>
  </metadata>
  <sodipodi:namedview
     pagecolor="#ffffff"
     bordercolor="#666666"
     borderopacity="1"
     objecttolerance="10"
     gridtolerance="10"
     guidetolerance="10"
     inkscape:pageopacity="0"
     inkscape:pageshadow="2"
     inkscape:window-width="1536"
     inkscape:window-height="803"
     id="namedview170"
     showgrid="false"
     fit-margin-top="0"
     fit-margin-left="0"
     fit-margin-right="0"
     fit-margin-bottom="0"
     inkscape:zoom="0.47666667"
     inkscape:cx="-210.52448"
     inkscape:cy="66"
     inkscape:window-x="-8"
     inkscape:window-y="-8"
     inkscape:window-maximized="1"
     inkscape:current-layer="sine" />
  <title
     id="title3">Sine_one_period.svg - a nice plot of the sine function</title>
  <desc
     id="desc5">
     Sine(sin)-function
     from Wikimedia Commons
     plot-range: 0 to 2pi
     plotted with three different cubic bezier-curves
     the bezier-controll-points are calculated to give a very accurate result.
     symbols in &quot;Computer Modern&quot; (TeX) font embedded
     created with a plain text editor using GNU/Linux

     about: http://commons.wikimedia.org/wiki/Image:Sine_one_period.svg
     source: http://commons.wikimedia.org/
     rights: GNU Free Documentation license,
             Creative Commons Attribution ShareAlike license
  </desc>
  <defs
     id="defs7">
    <!-- pstricks-style arrow, zoom 1.5 -->
    <marker
       id="Arrow"
       refX="2.52"
       refY="2.25"
       markerUnits="strokeWidth"
       markerWidth="6"
       markerHeight="4.5"
       orient="auto">
      <path
         d="M 2.52,2.25 0,4.5 6,2.25 0,0 z"
         id="path10"
         inkscape:connector-curvature="0" />
    </marker>
    <!-- now the used chars in "Computer Modern" font. They are implemented
         as plain paths and not as glyphs just because it didn't work -->
    <!-- c: horiz-adv-x="444.4"-->
    <path
       id="c"
       d="m 34,0 m 325,386 c -41,-3 -47,-33 -47,-46 0,-26 18,-46 46,-46 26,0 46,17 46,47 0,68 -76,107 -153,107 C 126,448 34,340 34,216 34,88 133,-11 249,-11 c 134,0 166,120 166,130 0,10 -10,10 -13,10 -9,0 -11,-4 -13,-10 C 360,26 295,14 258,14 205,14 117,57 117,218 c 0,163 82,205 135,205 9,0 72,-1 107,-37 z"
       inkscape:connector-curvature="0" />
    <!-- o: horiz-adv-x="500"-->
    <path
       id="o"
       d="M 28,0 M 471,214 C 471,342 371,448 250,448 125,448 28,339 28,214 28,85 132,-11 249,-11 c 121,0 222,98 222,225 z m 0,0 M 250,14 c -43,0 -87,21 -114,67 -25,44 -25,105 -25,141 0,39 0,93 24,137 27,46 74,67 114,67 44,0 87,-22 113,-65 26,-43 26,-101 26,-139 0,-36 0,-90 -22,-134 C 344,43 300,14 250,14 z"
       inkscape:connector-curvature="0" />
    <!-- s: horiz-adv-x="394.4"-->
    <path
       id="s"
       d="M 33,0 M 208,194 C 230,190 312,174 312,102 312,51 277,11 199,11 115,11 79,68 60,153 57,166 56,170 46,170 33,170 33,163 33,145 V 13 c 0,-17 0,-24 11,-24 5,0 6,1 25,20 2,2 2,4 20,23 44,-42 89,-43 110,-43 115,0 161,67 161,139 0,53 -30,83 -42,95 -33,32 -72,40 -114,48 -56,11 -123,24 -123,82 0,35 26,76 112,76 110,0 115,-90 117,-121 1,-9 10,-9 12,-9 13,0 13,5 13,24 v 101 c 0,17 0,24 -11,24 -5,0 -7,0 -20,-12 -3,-4 -13,-13 -17,-16 -38,28 -79,28 -94,28 C 71,448 33,381 33,325 c 0,-35 16,-63 43,-85 32,-26 60,-32 132,-46 z"
       inkscape:connector-curvature="0" />
    <!-- i: horiz-adv-x="277.8"-->
    <path
       id="i"
       d="M 33,0 M 177,442 37,431 v -31 c 65,0 74,-6 74,-55 V 76 C 111,31 100,31 33,31 V 0 c 32,1 86,3 110,3 35,0 70,-2 104,-3 v 31 c -66,0 -70,5 -70,44 z m 0,-367 m 4,541 c 0,32 -25,53 -53,53 -31,0 -53,-27 -53,-53 0,-27 22,-53 53,-53 28,0 53,21 53,53 z"
       inkscape:connector-curvature="0" />
    <!-- n: horiz-adv-x="555.6"-->
    <path
       id="n"
       d="m 32,0 m 78,344 V 76 C 110,31 99,31 32,31 V 0 c 35,1 86,3 113,3 26,0 78,-2 112,-3 v 31 c -67,0 -78,0 -78,45 v 184 c 0,104 71,160 135,160 63,0 74,-54 74,-111 V 76 C 388,31 377,31 310,31 V 0 c 35,1 86,3 113,3 26,0 78,-2 112,-3 v 31 c -52,0 -77,0 -78,30 v 191 c 0,86 0,117 -31,153 -14,17 -47,37 -105,37 -73,0 -120,-43 -148,-105 V 442 L 32,431 v -31 c 70,0 78,-7 78,-56 z"
       inkscape:connector-curvature="0" />
    <!-- (: horiz-adv-x="388.9"-->
    <path
       id="parleft"
       d="m 99,0 m 232,-240 c 0,3 0,5 -17,22 -125,126 -157,315 -157,468 0,174 38,348 161,473 13,12 13,14 13,17 0,7 -4,10 -10,10 C 311,750 221,682 162,555 111,445 99,334 99,250 c 0,-78 11,-199 66,-312 60,-123 146,-188 156,-188 6,0 10,3 10,10 z"
       inkscape:connector-curvature="0" />
    <!-- ): horiz-adv-x="388.9"-->
    <path
       id="parright"
       d="m 57,0 m 232,250 c 0,78 -11,199 -66,312 -60,123 -146,188 -156,188 -6,0 -10,-4 -10,-10 0,-3 0,-5 19,-23 98,-99 155,-258 155,-467 0,-171 -37,-347 -161,-473 -13,-12 -13,-14 -13,-17 0,-6 4,-10 10,-10 10,0 100,68 159,195 51,110 63,221 63,305 z"
       inkscape:connector-curvature="0" />
    <!-- x: horiz-adv-x="527.8"-->
    <path
       id="x"
       d="m 29,0 m 305,302 c 6,26 29,118 99,118 5,0 29,0 50,-13 -28,-5 -48,-30 -48,-54 0,-16 11,-35 38,-35 22,0 54,18 54,58 0,52 -59,66 -93,66 -58,0 -93,-53 -105,-76 -25,66 -79,76 -108,76 C 117,442 60,313 60,288 c 0,-10 10,-10 12,-10 8,0 11,2 13,11 34,106 100,131 134,131 19,0 54,-9 54,-67 0,-31 -17,-98 -54,-238 C 203,53 168,11 124,11 c -6,0 -29,0 -50,13 25,5 47,26 47,54 0,27 -22,35 -37,35 -30,0 -55,-26 -55,-58 0,-46 50,-66 94,-66 66,0 102,70 105,76 12,-37 48,-76 108,-76 103,0 160,129 160,154 0,10 -9,10 -12,10 -9,0 -11,-4 -13,-11 C 438,35 370,11 338,11 c -39,0 -55,32 -55,66 0,22 6,44 17,88 z"
       inkscape:connector-curvature="0" />
    <!-- y: horiz-adv-x="527.8"-->
    <path
       id="y"
       d="m 29,0 m 457,381 c 4,14 4,16 4,23 0,18 -14,27 -29,27 -10,0 -26,-6 -35,-21 -2,-5 -10,-36 -14,-54 -7,-26 -14,-53 -20,-80 L 347,96 C 343,81 300,11 234,11 c -51,0 -62,44 -62,81 0,46 17,108 51,196 16,41 20,52 20,72 0,45 -32,82 -82,82 C 66,442 29,297 29,288 c 0,-10 10,-10 12,-10 10,0 11,2 16,18 27,94 67,124 101,124 8,0 25,0 25,-32 0,-25 -10,-51 -17,-70 -40,-106 -58,-163 -58,-210 0,-89 63,-119 122,-119 39,0 73,17 101,45 -13,-52 -25,-101 -65,-154 -26,-34 -64,-63 -110,-63 -14,0 -59,3 -76,42 16,0 29,0 43,12 10,9 20,22 20,41 0,31 -27,35 -37,35 -23,0 -56,-16 -56,-65 0,-50 44,-87 106,-87 103,0 206,91 234,204 z"
       inkscape:connector-curvature="0" />
    <!-- pi: horiz-adv-x="570"-->
    <path
       id="pi"
       d="M 27,0 M 265,373 H 378 C 345,225 336,182 336,115 c 0,-15 0,-42 8,-76 10,-44 21,-50 36,-50 20,0 41,18 41,38 0,6 0,8 -6,22 -29,72 -29,137 -29,165 0,53 7,107 18,159 h 114 c 13,0 49,0 49,34 0,24 -21,24 -40,24 H 192 c -22,0 -60,0 -104,-47 -35,-39 -61,-85 -61,-90 0,-1 0,-10 12,-10 8,0 10,4 16,12 49,77 107,77 127,77 h 57 C 207,252 153,131 111,40 c -8,-15 -8,-17 -8,-24 0,-19 16,-27 29,-27 30,0 38,28 50,65 14,46 14,48 27,98 z"
       inkscape:connector-curvature="0" />
    <!-- minus: horiz-adv-x="700"-->
    <path
       id="minus"
       d="m 83,0 m 578,230 c 14,0 33,0 33,20 0,20 -19,20 -33,20 H 193.8 c -14,0 -33,0 -33,-20 0,-20 19,-20 33,-20 z"
       inkscape:connector-curvature="0" />
    <!-- 0: horiz-adv-x="500"-->
    <path
       id="zero"
       d="m 39,0 m 421,320 c 0,80 -5,160 -40,234 C 374,650 292,666 250,666 190,666 117,640 76,547 44,478 39,400 39,320 39,245 43,155 84,79 127,-2 200,-22 249,-22 c 54,0 130,21 174,116 32,69 37,147 37,226 z m 0,0 M 249,0 c -39,0 -98,25 -116,121 -11,60 -11,152 -11,211 0,64 0,130 8,184 19,119 94,128 119,128 33,0 99,-18 118,-117 10,-56 10,-132 10,-195 0,-75 0,-143 -11,-207 C 351,30 294,0 249,0 z"
       inkscape:connector-curvature="0" />
    <!-- 1: horiz-adv-x="500"-->
    <path
       id="one"
       d="m 89,0 m 205,640 c 0,24 0,26 -23,26 C 209,602 121,602 89,602 v -31 c 20,0 79,0 131,26 V 79 C 220,43 217,31 127,31 H 95 V 0 c 35,3 122,3 162,3 40,0 127,0 162,-3 v 31 h -32 c -90,0 -93,11 -93,48 z"
       inkscape:connector-curvature="0" />
    <!-- 2: horiz-adv-x="500"-->
    <path
       id="two"
       d="m 50,0 m 399,174 h -25 c -5,-30 -12,-74 -22,-89 -7,-8 -73,-8 -95,-8 H 127 L 233,180 C 389,318 449,372 449,472 449,586 359,666 237,666 124,666 50,574 50,485 c 0,-56 50,-56 53,-56 17,0 52,12 52,53 0,26 -18,52 -53,52 -8,0 -10,0 -13,-1 23,65 77,102 135,102 91,0 134,-81 134,-163 0,-80 -50,-159 -105,-221 L 61,37 C 50,26 50,24 50,0 h 371 z"
       inkscape:connector-curvature="0" />
    <!-- 3: horiz-adv-x="500"-->
    <path
       id="three"
       d="m 42,0 m 248,352 c 82,27 140,97 140,176 0,82 -88,138 -184,138 -101,0 -177,-60 -177,-136 0,-33 22,-52 51,-52 31,0 51,22 51,51 0,50 -47,50 -62,50 31,49 97,62 133,62 41,0 96,-22 96,-112 0,-12 -2,-70 -28,-114 -30,-48 -64,-51 -89,-52 -8,-1 -32,-3 -39,-3 -8,-1 -15,-2 -15,-12 0,-11 7,-11 24,-11 h 44 C 317,337 354,269 354,171 354,35 285,6 241,6 198,6 123,23 88,82 c 35,-5 66,17 66,55 0,36 -27,56 -56,56 -24,0 -56,-14 -56,-58 0,-91 93,-157 202,-157 122,0 213,91 213,193 0,82 -63,160 -167,181 z"
       inkscape:connector-curvature="0" />
    <!-- 4: horiz-adv-x="500"-->
    <path
       id="four"
       d="m 28,0 m 0,165 H 294 V 78 C 294,42 292,31 218,31 H 197 V 0 c 41,3 93,3 135,3 42,0 95,0 136,-3 v 31 h -21 c -74,0 -76,11 -76,47 v 87 h 100 v 31 H 371 v 455 c 0,20 0,26 -16,26 -9,0 -12,0 -20,-12 L 28,196 z m 0,31 m 272,0 H 56 l 244,373 z"
       inkscape:connector-curvature="0" />
    <!-- 5: horiz-adv-x="500"-->
    <path
       id="five"
       d="m 50,0 m 399,201 c 0,119 -82,219 -190,219 -48,0 -91,-16 -127,-51 v 195 c 20,-6 53,-13 85,-13 123,0 193,91 193,104 0,6 -3,11 -10,11 -1,0 -3,0 -8,-3 -20,-9 -69,-29 -136,-29 -40,0 -86,7 -133,28 -8,3 -10,3 -12,3 -10,0 -10,-8 -10,-24 V 345 c 0,-18 0,-26 14,-26 7,0 9,3 13,9 11,16 48,70 129,70 52,0 77,-46 85,-64 16,-37 18,-76 18,-126 0,-35 0,-95 -24,-137 C 312,32 275,6 229,6 156,6 99,59 82,118 c 3,-1 6,-2 17,-2 33,0 50,25 50,49 0,24 -17,49 -50,49 -14,0 -49,-7 -49,-53 0,-86 69,-183 181,-183 116,0 218,96 218,223 z"
       inkscape:connector-curvature="0" />
    <!-- 7: horiz-adv-x="500"-->
    <path
       id="seven"
       d="m 56,0 m 420,609 c 9,12 9,14 9,35 H 242 c -122,0 -124,13 -128,32 H 89 L 56,470 h 25 c 3,16 12,79 25,91 7,6 85,6 98,6 H 411 C 400,551 321,442 299,409 209,274 176,135 176,33 c 0,-10 0,-55 46,-55 46,0 46,45 46,55 v 51 c 0,55 3,110 11,164 4,23 18,109 62,171 z"
       inkscape:connector-curvature="0" />
  </defs>
  <rect
     id="background"
     x="0"
     y="0"
     width="330"
     height="132"
     style="fill:#ffffff" />
  <g
     transform="matrix(0.55,0,0,0.55,22.275,70.125)"
     id="g31">
    <!-- grid -->
    <g
       id="grid"
       style="opacity:0.4;stroke:#000000;stroke-width:0.5;stroke-linecap:butt">
      <path
         id="gridx"
         d="M 0,-80 H 502.65483 M 0,-40 H 502.65483 M 0,40 H 502.65483 M 0,80 h 502.65483"
         inkscape:connector-curvature="0" />
      <path
         id="gridy"
         d="m 62.831853,-100.5 v 201 m 62.831857,-201 v 201 m 62.83185,-201 v 201 m 62.83185,-201 v 201 m 62.83185,-201 v 201 m 62.83186,-201 v 201 m 62.83185,-201 v 201 m 62.83186,-201 v 201"
         inkscape:connector-curvature="0" />
    </g>
    <!-- ticks -->
    <g
       id="ticks"
       style="stroke:#000000;stroke-width:1;stroke-linecap:square">
      <path
         id="ticksx"
         d="M 62.831853,-5 V 5 M 125.66371,-5 V 5 M 188.49556,-5 V 5 M 251.32741,-5 V 5 M 314.15926,-5 V 5 M 376.99112,-5 V 5 M 439.82297,-5 V 5 M 502.65483,-5 V 5"
         inkscape:connector-curvature="0" />
      <path
         id="ticksy"
         d="M -5,-80 H 5 M -5,-40 H 5 M -5,0 H 5 M -5,40 H 5 M -5,80 H 5"
         inkscape:connector-curvature="0" />
    </g>
    <!-- axes -->
    <line
       id="x-axis"
       x1="0"
       x2="536.5"
       y1="0"
       y2="0"
       style="stroke:#000000;stroke-width:2;stroke-linecap:butt;marker-end:url(#Arrow)" />
    <line
       id="y-axis"
       x1="0"
       x2="0"
       y1="108.5"
       y2="-108.5"
       style="stroke:#000000;stroke-width:2;stroke-linecap:butt;marker-end:url(#Arrow)" />
    <!-- labels -->
    <g
       id="xl"
       transform="matrix(0.02,0,0,-0.02,544,17)">
      <use
         xlink:href="#x"
         x="-285.75"
         y="0"
         id="use42"
         width="600"
         height="240" />
    </g>
    <g
       id="yl"
       transform="matrix(0.02,0,0,-0.02,-11,-115)">
      <use
         xlink:href="#y"
         x="-285.75"
         y="0"
         id="use45"
         width="600"
         height="240" />
    </g>
    <g
       id="cosx"
       transform="matrix(0.02,0,0,-0.02,382,-61)">
      <use
         xlink:href="#c"
         x="0"
         y="0"
         id="use48"
         width="600"
         height="240" />
      <use
         xlink:href="#o"
         x="444.39999"
         y="0"
         id="use50"
         width="600"
         height="240" />
      <use
         xlink:href="#s"
         x="944.40002"
         y="0"
         id="use52"
         width="600"
         height="240" />
      <use
         xlink:href="#parleft"
         x="1338.8"
         y="0"
         id="use54"
         width="600"
         height="240" />
      <use
         xlink:href="#x"
         x="1727.7"
         y="0"
         id="use56"
         width="600"
         height="240" />
      <use
         xlink:href="#parright"
         x="2255.5"
         y="0"
         id="use58"
         width="600"
         height="240" />
    </g>
    <g
       id="sinx"
       transform="matrix(0.02,0,0,-0.02,196,-61)">
      <use
         xlink:href="#s"
         x="0"
         y="0"
         id="use61"
         width="600"
         height="240" />
      <use
         xlink:href="#i"
         x="394.39999"
         y="0"
         id="use63"
         width="600"
         height="240" />
      <use
         xlink:href="#n"
         x="672.20001"
         y="0"
         id="use65"
         width="600"
         height="240" />
      <use
         xlink:href="#parleft"
         x="1227.8"
         y="0"
         id="use67"
         width="600"
         height="240" />
      <use
         xlink:href="#x"
         x="1616.7"
         y="0"
         id="use69"
         width="600"
         height="240" />
      <use
         xlink:href="#parright"
         x="2144.5"
         y="0"
         id="use71"
         width="600"
         height="240" />
    </g>
    <g
       id="xlabels"
       transform="translate(0,25)">
      <g
         id="x14pi"
         transform="matrix(0.02,0,0,-0.02,62.831853,0)">
        <path
           d="m -500,280 h 400"
           id="path75"
           inkscape:connector-curvature="0"
           style="stroke:#000000;stroke-width:40;stroke-linecap:square" />
        <use
           xlink:href="#one"
           x="-673.29999"
           y="0"
           transform="matrix(0.693147,0,0,0.693147,0,400)"
           id="use77"
           width="600"
           height="240" />
        <use
           xlink:href="#four"
           x="-673.29999"
           y="0"
           transform="matrix(0.693147,0,0,0.693147,0,-300)"
           id="use79"
           width="600"
           height="240" />
        <use
           xlink:href="#pi"
           x="0"
           y="0"
           id="use81"
           width="600"
           height="240" />
      </g>
      <g
         id="x12pi"
         transform="matrix(0.02,0,0,-0.02,125.66371,0)">
        <path
           d="m -500,280 h 400"
           id="path84"
           inkscape:connector-curvature="0"
           style="stroke:#000000;stroke-width:40;stroke-linecap:square" />
        <use
           xlink:href="#one"
           x="-673.29999"
           y="0"
           transform="matrix(0.693147,0,0,0.693147,0,400)"
           id="use86"
           width="600"
           height="240" />
        <use
           xlink:href="#two"
           x="-673.29999"
           y="0"
           transform="matrix(0.693147,0,0,0.693147,0,-300)"
           id="use88"
           width="600"
           height="240" />
        <use
           xlink:href="#pi"
           x="0"
           y="0"
           id="use90"
           width="600"
           height="240" />
      </g>
      <g
         id="x34pi"
         transform="matrix(0.02,0,0,-0.02,188.49556,0)">
        <path
           d="m -500,280 h 400"
           id="path93"
           inkscape:connector-curvature="0"
           style="stroke:#000000;stroke-width:40;stroke-linecap:square" />
        <use
           xlink:href="#three"
           x="-673.29999"
           y="0"
           transform="matrix(0.693147,0,0,0.693147,0,400)"
           id="use95"
           width="600"
           height="240" />
        <use
           xlink:href="#four"
           x="-673.29999"
           y="0"
           transform="matrix(0.693147,0,0,0.693147,0,-300)"
           id="use97"
           width="600"
           height="240" />
        <use
           xlink:href="#pi"
           x="0"
           y="0"
           id="use99"
           width="600"
           height="240" />
      </g>
      <g
         id="xpi"
         transform="matrix(0.02,0,0,-0.02,251.32741,0)">
        <use
           xlink:href="#pi"
           x="-285"
           y="0"
           id="use102"
           width="600"
           height="240" />
      </g>
      <g
         id="x54pi"
         transform="matrix(0.02,0,0,-0.02,314.15926,0)">
        <path
           d="m -500,280 h 400"
           id="path105"
           inkscape:connector-curvature="0"
           style="stroke:#000000;stroke-width:40;stroke-linecap:square" />
        <use
           xlink:href="#five"
           x="-673.29999"
           y="0"
           transform="matrix(0.693147,0,0,0.693147,0,400)"
           id="use107"
           width="600"
           height="240" />
        <use
           xlink:href="#four"
           x="-673.29999"
           y="0"
           transform="matrix(0.693147,0,0,0.693147,0,-300)"
           id="use109"
           width="600"
           height="240" />
        <use
           xlink:href="#pi"
           x="0"
           y="0"
           id="use111"
           width="600"
           height="240" />
      </g>
      <g
         id="x32pi"
         transform="matrix(0.02,0,0,-0.02,376.99112,0)">
        <path
           d="m -500,280 h 400"
           id="path114"
           inkscape:connector-curvature="0"
           style="stroke:#000000;stroke-width:40;stroke-linecap:square" />
        <use
           xlink:href="#three"
           x="-673.29999"
           y="0"
           transform="matrix(0.693147,0,0,0.693147,0,400)"
           id="use116"
           width="600"
           height="240" />
        <use
           xlink:href="#two"
           x="-673.29999"
           y="0"
           transform="matrix(0.693147,0,0,0.693147,0,-300)"
           id="use118"
           width="600"
           height="240" />
        <use
           xlink:href="#pi"
           x="0"
           y="0"
           id="use120"
           width="600"
           height="240" />
      </g>
      <g
         id="x74pi"
         transform="matrix(0.02,0,0,-0.02,439.82297,0)">
        <path
           d="m -500,280 h 400"
           id="path123"
           inkscape:connector-curvature="0"
           style="stroke:#000000;stroke-width:40;stroke-linecap:square" />
        <use
           xlink:href="#seven"
           x="-673.29999"
           y="0"
           transform="matrix(0.693147,0,0,0.693147,0,400)"
           id="use125"
           width="600"
           height="240" />
        <use
           xlink:href="#four"
           x="-673.29999"
           y="0"
           transform="matrix(0.693147,0,0,0.693147,0,-300)"
           id="use127"
           width="600"
           height="240" />
        <use
           xlink:href="#pi"
           x="0"
           y="0"
           id="use129"
           width="600"
           height="240" />
      </g>
      <g
         id="x2pi"
         transform="matrix(0.02,0,0,-0.02,502.65483,0)">
        <use
           xlink:href="#two"
           x="-500"
           y="0"
           id="use132"
           width="600"
           height="240" />
        <use
           xlink:href="#pi"
           x="0"
           y="0"
           id="use134"
           width="600"
           height="240" />
      </g>
    </g>
    <g
       id="ylabels"
       transform="translate(-8,7)">
      <g
         id="y1"
         transform="matrix(0.02,0,0,-0.02,0,-80)">
        <use
           xlink:href="#one"
           x="-500"
           y="0"
           id="use138"
           width="600"
           height="240" />
      </g>
      <g
         id="y05"
         transform="matrix(0.02,0,0,-0.02,0,-40)">
        <path
           d="m -500,280 h 400"
           id="path141"
           inkscape:connector-curvature="0"
           style="stroke:#000000;stroke-width:40;stroke-linecap:square" />
        <use
           xlink:href="#one"
           x="-673.29999"
           y="0"
           transform="matrix(0.693147,0,0,0.693147,0,400)"
           id="use143"
           width="600"
           height="240" />
        <use
           xlink:href="#two"
           x="-673.29999"
           y="0"
           transform="matrix(0.693147,0,0,0.693147,0,-300)"
           id="use145"
           width="600"
           height="240" />
      </g>
      <g
         id="y0"
         transform="scale(0.02,-0.02)">
        <use
           xlink:href="#zero"
           x="-500"
           y="0"
           id="use148"
           width="600"
           height="240" />
      </g>
      <g
         id="ym05"
         transform="matrix(0.02,0,0,-0.02,0,40)">
        <use
           xlink:href="#minus"
           x="-1350"
           y="0"
           id="use151"
           width="600"
           height="240" />
        <path
           d="m -500,280 h 400"
           id="path153"
           inkscape:connector-curvature="0"
           style="stroke:#000000;stroke-width:40;stroke-linecap:square" />
        <use
           xlink:href="#one"
           x="-673.29999"
           y="0"
           transform="matrix(0.693147,0,0,0.693147,0,400)"
           id="use155"
           width="600"
           height="240" />
        <use
           xlink:href="#two"
           x="-673.29999"
           y="0"
           transform="matrix(0.693147,0,0,0.693147,0,-300)"
           id="use157"
           width="600"
           height="240" />
      </g>
      <g
         id="ym1"
         transform="matrix(0.02,0,0,-0.02,0,80)">
        <use
           xlink:href="#minus"
           x="-1250"
           y="0"
           id="use160"
           width="600"
           height="240" />
        <use
           xlink:href="#one"
           x="-500"
           y="0"
           id="use162"
           width="600"
           height="240" />
      </g>
    </g>
    <!-- the controll points lie on the tangents of the function.
         they are furthermore positioned in a way to minimize the average
         quadratic distance between the bezier-curve and the function. -->
    <!-- cosine curve -->
    <g
       transform="scale(80,-80)"
       id="g164">
      <path
         id="cosine-curve"
         d="M 0,1 C 0.153948,1 0.304599,0.964447 0.455667,0.897968 0.627821,0.822209 0.795342,0.708567 0.961693,0.572132 1.167257,0.403536 1.368942,0.201855 1.570796,0 1.772652,-0.201855 1.974337,-0.403538 2.179901,-0.572134 2.346252,-0.708568 2.513773,-0.82221 2.685927,-0.897968 2.836994,-0.964447 2.987645,-1 3.141593,-1 c 0.153925,0 0.304554,0.035542 0.455599,0.102003 0.172197,0.075766 0.339758,0.189438 0.506148,0.32591 C 4.308886,-0.403501 4.510552,-0.201837 4.712389,0 4.914243,0.201854 5.115927,0.403535 5.321491,0.572131 5.487842,0.708566 5.655364,0.822209 5.827519,0.897968 5.978587,0.964447 6.129237,1 6.283185,1"
         inkscape:connector-curvature="0"
         style="fill:none;stroke:#0000ff;stroke-width:0.04px;stroke-linecap:butt;stroke-dasharray:0.15, 0.025" />
    </g>
    <!-- sine curve -->
    <g
       transform="scale(80,-80)"
       id="g167">
      <path
         id="sine-curve"
         d="M 0,0 C 0.201843,0.201843 0.403515,0.403513 0.609067,0.572102 0.775441,0.70856 0.942986,0.82222 1.115166,0.897984 1.266222,0.964453 1.416861,1 1.570796,1 1.724745,1 1.875396,0.964447 2.026464,0.897968 2.198618,0.822209 2.366139,0.708567 2.532489,0.572133 2.738053,0.403537 2.939738,0.201855 3.141593,0 3.343447,-0.201855 3.545131,-0.403536 3.750695,-0.572132 3.917046,-0.708566 4.084568,-0.822209 4.256722,-0.897968 4.40779,-0.964447 4.558441,-1 4.712389,-1 4.866337,-1 5.016988,-0.964447 5.168055,-0.897968 5.340209,-0.82221 5.50773,-0.708567 5.67408,-0.572134 5.879645,-0.403537 6.08133,-0.201855 6.283185,0"
         inkscape:connector-curvature="0"
         style="fill:none;stroke:#ff0000;stroke-width:0.04px;stroke-linecap:butt" />
    </g>
  </g>
</svg>
