<?xml version="1.0" encoding="UTF-8" standalone="no"?>
<!-- Created by MetaPost 1.502 on 2010.08.08:0609 -->

<svg
   xmlns:dc="http://purl.org/dc/elements/1.1/"
   xmlns:cc="http://creativecommons.org/ns#"
   xmlns:rdf="http://www.w3.org/1999/02/22-rdf-syntax-ns#"
   xmlns:svg="http://www.w3.org/2000/svg"
   xmlns="http://www.w3.org/2000/svg"
   xmlns:xlink="http://www.w3.org/1999/xlink"
   xmlns:sodipodi="http://sodipodi.sourceforge.net/DTD/sodipodi-0.dtd"
   xmlns:inkscape="http://www.inkscape.org/namespaces/inkscape"
   version="1.1"
   width="330.05698"
   height="205.78128"
   viewBox="0 0 165.6185 103.07593"
   id="svg9631"
   inkscape:version="0.48.5 r10040"
   sodipodi:docname="Squareroot-0-9-metapost.svg">
  <metadata
     id="metadata9835">
    <rdf:RDF>
      <cc:Work
         rdf:about="">
        <dc:format>image/svg+xml</dc:format>
        <dc:type
           rdf:resource="http://purl.org/dc/dcmitype/StillImage" />
      </cc:Work>
    </rdf:RDF>
  </metadata>
  <sodipodi:namedview
     pagecolor="#ffffff"
     bordercolor="#666666"
     borderopacity="1"
     objecttolerance="10"
     gridtolerance="10"
     guidetolerance="10"
     inkscape:pageopacity="0"
     inkscape:pageshadow="2"
     inkscape:window-width="1536"
     inkscape:window-height="803"
     id="namedview9833"
     showgrid="false"
     fit-margin-top="0"
     fit-margin-left="0"
     fit-margin-right="0"
     fit-margin-bottom="0"
     inkscape:zoom="0.47666667"
     inkscape:cx="-210.52472"
     inkscape:cy="102.668"
     inkscape:window-x="-8"
     inkscape:window-y="-8"
     inkscape:window-maximized="1"
     inkscape:current-layer="svg9631" />
  <!-- Original BoundingBox: -17.00804 -17.00804 284.06451 170.3287 -->
  <defs
     id="defs9633">
    <g
       transform="scale(0.00995,0.00995)"
       id="GLYPHcmr10_40">
      <path
         style="fill-rule:evenodd"
         d="m 331,240 c 0,-3 0,-5 -17,-22 C 189,92 157,-97 157,-250 c 0,-174 38,-348 161,-473 13,-12 13,-14 13,-17 0,-7 -4,-10 -10,-10 -10,0 -100,68 -159,195 -51,110 -63,221 -63,305 0,78 11,199 66,312 60,123 146,188 156,188 6,0 10,-3 10,-10"
         id="path9636"
         inkscape:connector-curvature="0" />
    </g>
    <g
       transform="scale(0.00995,0.00995)"
       id="GLYPHcmr10_41">
      <path
         style="fill-rule:evenodd"
         d="m 289,-250 c 0,-78 -11,-199 -66,-312 -60,-123 -146,-188 -156,-188 -6,0 -10,4 -10,10 0,3 0,5 19,23 98,99 155,258 155,467 0,171 -37,347 -161,473 -13,12 -13,14 -13,17 0,6 4,10 10,10 10,0 100,-68 159,-195 51,-110 63,-221 63,-305"
         id="path9639"
         inkscape:connector-curvature="0" />
    </g>
    <g
       transform="scale(0.00995,0.00995)"
       id="GLYPHcmr10_49">
      <path
         style="fill-rule:evenodd"
         d="m 294,-640 c 0,-24 0,-26 -23,-26 -62,64 -150,64 -182,64 l 0,31 c 20,0 79,0 131,-26 l 0,518 c 0,36 -3,48 -93,48 l -32,0 0,31 c 35,-3 122,-3 162,-3 40,0 127,0 162,3 l 0,-31 -32,0 c -90,0 -93,-11 -93,-48"
         id="path9642"
         inkscape:connector-curvature="0" />
    </g>
    <g
       transform="scale(0.00995,0.00995)"
       id="GLYPHcmr10_50">
      <path
         style="fill-rule:evenodd"
         d="m 449,-174 -25,0 c -5,30 -12,74 -22,89 -7,8 -73,8 -95,8 l -180,0 106,-103 c 156,-138 216,-192 216,-292 0,-114 -90,-194 -212,-194 -113,0 -187,92 -187,181 0,56 50,56 53,56 17,0 52,-12 52,-53 0,-26 -18,-52 -53,-52 -8,0 -10,0 -13,1 23,-65 77,-102 135,-102 91,0 134,81 134,163 0,80 -50,159 -105,221 L 61,-37 C 50,-26 50,-24 50,0 l 371,0"
         id="path9645"
         inkscape:connector-curvature="0" />
    </g>
    <g
       transform="scale(0.00995,0.00995)"
       id="GLYPHcmr10_51">
      <path
         style="fill-rule:evenodd"
         d="m 290,-352 c 82,-27 140,-97 140,-176 0,-82 -88,-138 -184,-138 -101,0 -177,60 -177,136 0,33 22,52 51,52 31,0 51,-22 51,-51 0,-50 -47,-50 -62,-50 31,-49 97,-62 133,-62 41,0 96,22 96,112 0,12 -2,70 -28,114 -30,48 -64,51 -89,52 -8,1 -32,3 -39,3 -8,1 -15,2 -15,12 0,11 7,11 24,11 l 44,0 c 82,0 119,68 119,166 0,136 -69,165 -113,165 -43,0 -118,-17 -153,-76 35,5 66,-17 66,-55 0,-36 -27,-56 -56,-56 -24,0 -56,14 -56,58 0,91 93,157 202,157 122,0 213,-91 213,-193 0,-82 -63,-160 -167,-181"
         id="path9648"
         inkscape:connector-curvature="0" />
    </g>
    <g
       transform="scale(0.00995,0.00995)"
       id="GLYPHcmr10_52">
      <path
         style="fill-rule:evenodd"
         d="m 28,-165 266,0 0,87 c 0,36 -2,47 -76,47 l -21,0 0,31 c 41,-3 93,-3 135,-3 42,0 95,0 136,3 l 0,-31 -21,0 c -74,0 -76,-11 -76,-47 l 0,-87 100,0 0,-31 -100,0 0,-455 c 0,-20 0,-26 -16,-26 -9,0 -12,0 -20,12 L 28,-196 m 272,0 -244,0 244,-373"
         id="path9651"
         inkscape:connector-curvature="0" />
    </g>
    <g
       transform="scale(0.00995,0.00995)"
       id="GLYPHcmr10_53">
      <path
         style="fill-rule:evenodd"
         d="m 449,-201 c 0,-119 -82,-219 -190,-219 -48,0 -91,16 -127,51 l 0,-195 c 20,6 53,13 85,13 123,0 193,-91 193,-104 0,-6 -3,-11 -10,-11 -1,0 -3,0 -8,3 -20,9 -69,29 -136,29 -40,0 -86,-7 -133,-28 -8,-3 -10,-3 -12,-3 -10,0 -10,8 -10,24 l 0,296 c 0,18 0,26 14,26 7,0 9,-3 13,-9 11,-16 48,-70 129,-70 52,0 77,46 85,64 16,37 18,76 18,126 0,35 0,95 -24,137 -24,39 -61,65 -107,65 -73,0 -130,-53 -147,-112 3,1 6,2 17,2 33,0 50,-25 50,-49 0,-24 -17,-49 -50,-49 -14,0 -49,7 -49,53 0,86 69,183 181,183 116,0 218,-96 218,-223"
         id="path9654"
         inkscape:connector-curvature="0" />
    </g>
    <g
       transform="scale(0.00995,0.00995)"
       id="GLYPHcmr10_54">
      <path
         style="fill-rule:evenodd"
         d="m 132,-328 0,-24 c 0,-253 124,-289 175,-289 24,0 66,6 88,40 -15,0 -55,0 -55,45 0,31 24,46 46,46 16,0 46,-9 46,-48 0,-60 -44,-108 -127,-108 -128,0 -263,129 -263,350 0,267 116,338 209,338 111,0 206,-94 206,-226 0,-127 -89,-223 -200,-223 -68,0 -105,51 -125,99 M 251,-6 c -63,0 -93,-60 -99,-75 -18,-47 -18,-127 -18,-145 0,-78 32,-178 122,-178 16,0 62,0 93,62 18,37 18,88 18,137 0,48 0,98 -17,134 -30,60 -76,65 -99,65"
         id="path9657"
         inkscape:connector-curvature="0" />
    </g>
    <g
       transform="scale(0.00995,0.00995)"
       id="GLYPHcmr10_55">
      <path
         style="fill-rule:evenodd"
         d="m 476,-609 c 9,-12 9,-14 9,-35 l -243,0 c -122,0 -124,-13 -128,-32 l -25,0 -33,206 25,0 c 3,-16 12,-79 25,-91 7,-6 85,-6 98,-6 l 207,0 c -11,16 -90,125 -112,158 -90,135 -123,274 -123,376 0,10 0,55 46,55 46,0 46,-45 46,-55 l 0,-51 c 0,-55 3,-110 11,-164 4,-23 18,-109 62,-171"
         id="path9660"
         inkscape:connector-curvature="0" />
    </g>
    <g
       transform="scale(0.00995,0.00995)"
       id="GLYPHcmr10_56">
      <path
         style="fill-rule:evenodd"
         d="m 163,-457 c -46,-30 -50,-64 -50,-81 0,-61 65,-103 136,-103 73,0 137,52 137,124 0,57 -39,105 -99,140 m 22,15 c 72,-37 121,-89 121,-155 0,-92 -89,-149 -180,-149 -100,0 -181,74 -181,167 0,18 2,63 44,110 11,12 48,37 73,54 -58,29 -144,85 -144,184 0,106 102,173 207,173 113,0 208,-83 208,-190 0,-36 -11,-81 -49,-123 -19,-21 -35,-31 -99,-71 m -100,42 c 28,17 75,47 123,78 28,19 75,49 75,110 0,74 -75,126 -157,126 -86,0 -158,-62 -158,-145 0,-58 32,-122 117,-169"
         id="path9663"
         inkscape:connector-curvature="0" />
    </g>
    <g
       transform="scale(0.00995,0.00995)"
       id="GLYPHcmr10_57">
      <path
         style="fill-rule:evenodd"
         d="m 367,-318 0,32 c 0,234 -104,280 -162,280 -17,0 -71,-2 -98,-36 44,0 52,-29 52,-46 0,-31 -24,-46 -46,-46 -16,0 -46,9 -46,48 0,67 54,108 139,108 129,0 251,-136 251,-351 0,-269 -115,-337 -204,-337 -55,0 -104,18 -147,63 -41,45 -64,87 -64,162 0,125 88,223 200,223 61,0 102,-42 125,-100 m -124,77 c -16,0 -62,0 -93,-63 -18,-37 -18,-87 -18,-136 0,-54 0,-101 21,-138 27,-50 65,-63 100,-63 46,0 79,34 96,79 12,32 16,95 16,141 0,83 -34,180 -122,180"
         id="path9666"
         inkscape:connector-curvature="0" />
    </g>
    <g
       transform="scale(0.00995,0.00995)"
       id="GLYPHcmmi10_102">
      <path
         style="fill-rule:evenodd"
         d="m 367,-400 86,0 c 20,0 30,0 30,-20 0,-11 -10,-11 -27,-11 l -83,0 c 11,-58 10,-56 21,-114 4,-21 18,-92 24,-104 9,-19 26,-34 47,-34 4,0 30,0 49,18 -44,4 -54,39 -54,54 0,23 18,35 37,35 26,0 55,-22 55,-60 0,-46 -46,-69 -87,-69 -34,0 -97,18 -127,117 -6,21 -9,31 -33,157 l -69,0 c -19,0 -30,0 -30,19 0,12 9,12 28,12 l 66,0 -75,395 c -18,97 -35,188 -87,188 -4,0 -29,0 -48,-18 46,-3 55,-39 55,-54 0,-23 -18,-35 -37,-35 -26,0 -55,22 -55,60 0,45 44,69 85,69 55,0 95,-59 113,-97 32,-63 55,-184 56,-191"
         id="path9669"
         inkscape:connector-curvature="0" />
    </g>
    <g
       transform="scale(0.00995,0.00995)"
       id="GLYPHcmmi10_120">
      <path
         style="fill-rule:evenodd"
         d="m 334,-302 c 6,-26 29,-118 99,-118 5,0 29,0 50,13 -28,5 -48,30 -48,54 0,16 11,35 38,35 22,0 54,-18 54,-58 0,-52 -59,-66 -93,-66 -58,0 -93,53 -105,76 -25,-66 -79,-76 -108,-76 -104,0 -161,129 -161,154 0,10 10,10 12,10 8,0 11,-2 13,-11 34,-106 100,-131 134,-131 19,0 54,9 54,67 0,31 -17,98 -54,238 -16,62 -51,104 -95,104 -6,0 -29,0 -50,-13 25,-5 47,-26 47,-54 0,-27 -22,-35 -37,-35 -30,0 -55,26 -55,58 0,46 50,66 94,66 66,0 102,-70 105,-76 12,37 48,76 108,76 103,0 160,-129 160,-154 0,-10 -9,-10 -12,-10 -9,0 -11,4 -13,11 -33,107 -101,131 -133,131 -39,0 -55,-32 -55,-66 0,-22 6,-44 17,-88"
         id="path9672"
         inkscape:connector-curvature="0" />
    </g>
    <g
       transform="scale(0.00995,0.00995)"
       id="GLYPHcmsy10_112">
      <path
         style="fill-rule:evenodd"
         d="M 389,855 211,463 c -4,-8 -6,-14 -13,-14 -3,0 -5,0 -14,8 l -99,75 c -11,9 -12,10 -12,14 0,7 4,11 10,11 3,0 5,0 14,-8 l 52,-39 198,435 c 6,14 8,15 19,15 16,0 18,-4 25,-19 L 847,-3 c 5,-11 6,-12 6,-17 0,-11 -8,-20 -20,-20 -12,0 -15,7 -21,19"
         id="path9675"
         inkscape:connector-curvature="0" />
    </g>
  </defs>
  <g
     id="g9837"
     transform="matrix(0.54999918,0,0,0.54999918,0,0.05753097)">
    <path
       id="path9677"
       style="fill:#ffffff;stroke:none"
       d="m 0,187.33675 300.47255,0 0,-187.08675 L 0,0.25 z"
       inkscape:connector-curvature="0" />
    <path
       id="path9679"
       style="fill:none;stroke:#000000;stroke-width:0.5;stroke-linecap:round;stroke-linejoin:round;stroke-miterlimit:10"
       d="m 17.00804,184.50194 0,-184.25194"
       inkscape:connector-curvature="0" />
    <path
       id="path9681"
       style="fill:#000000;stroke:#000000;stroke-width:0.5"
       d="M 18.53908,3.94615 17.00804,0.25 15.477,3.94615 z"
       inkscape:connector-curvature="0" />
    <path
       id="path9683"
       style="fill:none;stroke:#999999;stroke-width:0.5;stroke-linecap:round;stroke-linejoin:round;stroke-miterlimit:10;stroke-dasharray:3, 3"
       d="m 17.00804,141.98225 283.46451,0"
       inkscape:connector-curvature="0" />
    <path
       id="path9685"
       style="fill:none;stroke:#000000;stroke-width:0.5;stroke-linecap:round;stroke-linejoin:round;stroke-miterlimit:10"
       d="m 14.1734,141.98225 5.66928,0"
       inkscape:connector-curvature="0" />
    <g
       id="g9687"
       style="fill:#000000"
       transform="translate(6.19206,145.19244)">
      <use
         id="use9689"
         xlink:href="#GLYPHcmr10_49"
         x="0"
         y="0"
         width="301.07257"
         height="187.33675" />
    </g>
    <path
       id="path9691"
       style="fill:none;stroke:#999999;stroke-width:0.5;stroke-linecap:round;stroke-linejoin:round;stroke-miterlimit:10;stroke-dasharray:3, 3"
       d="m 17.00804,113.6358 283.46451,0"
       inkscape:connector-curvature="0" />
    <path
       id="path9693"
       style="fill:none;stroke:#000000;stroke-width:0.5;stroke-linecap:round;stroke-linejoin:round;stroke-miterlimit:10"
       d="m 14.1734,113.6358 5.66928,0"
       inkscape:connector-curvature="0" />
    <g
       id="g9695"
       style="fill:#000000"
       transform="translate(6.19206,116.846)">
      <use
         id="use9697"
         xlink:href="#GLYPHcmr10_50"
         x="0"
         y="0"
         width="301.07257"
         height="187.33675" />
    </g>
    <path
       id="path9699"
       style="fill:none;stroke:#999999;stroke-width:0.5;stroke-linecap:round;stroke-linejoin:round;stroke-miterlimit:10;stroke-dasharray:3, 3"
       d="m 17.00804,85.28935 283.46451,0"
       inkscape:connector-curvature="0" />
    <path
       id="path9701"
       style="fill:none;stroke:#000000;stroke-width:0.5;stroke-linecap:round;stroke-linejoin:round;stroke-miterlimit:10"
       d="m 14.1734,85.28935 5.66928,0"
       inkscape:connector-curvature="0" />
    <g
       id="g9703"
       style="fill:#000000"
       transform="translate(6.19206,88.49954)">
      <use
         id="use9705"
         xlink:href="#GLYPHcmr10_51"
         x="0"
         y="0"
         width="301.07257"
         height="187.33675" />
    </g>
    <path
       id="path9707"
       style="fill:none;stroke:#999999;stroke-width:0.5;stroke-linecap:round;stroke-linejoin:round;stroke-miterlimit:10;stroke-dasharray:3, 3"
       d="m 17.00804,56.9429 283.46451,0"
       inkscape:connector-curvature="0" />
    <path
       id="path9709"
       style="fill:none;stroke:#000000;stroke-width:0.5;stroke-linecap:round;stroke-linejoin:round;stroke-miterlimit:10"
       d="m 14.1734,56.9429 5.66928,0"
       inkscape:connector-curvature="0" />
    <g
       id="g9711"
       style="fill:#000000"
       transform="translate(6.19206,60.15309)">
      <use
         id="use9713"
         xlink:href="#GLYPHcmr10_52"
         x="0"
         y="0"
         width="301.07257"
         height="187.33675" />
    </g>
    <path
       id="path9715"
       style="fill:none;stroke:#999999;stroke-width:0.5;stroke-linecap:round;stroke-linejoin:round;stroke-miterlimit:10;stroke-dasharray:3, 3"
       d="m 17.00804,28.59645 283.46451,0"
       inkscape:connector-curvature="0" />
    <path
       id="path9717"
       style="fill:none;stroke:#000000;stroke-width:0.5;stroke-linecap:round;stroke-linejoin:round;stroke-miterlimit:10"
       d="m 14.1734,28.59645 5.66928,0"
       inkscape:connector-curvature="0" />
    <g
       id="g9719"
       style="fill:#000000"
       transform="translate(6.19206,31.80664)">
      <use
         id="use9721"
         xlink:href="#GLYPHcmr10_53"
         x="0"
         y="0"
         width="301.07257"
         height="187.33675" />
    </g>
    <path
       id="path9723"
       style="fill:none;stroke:#000000;stroke-width:0.5;stroke-linecap:round;stroke-linejoin:round;stroke-miterlimit:10"
       d="m 2.83481,170.3287 297.63774,0"
       inkscape:connector-curvature="0" />
    <path
       id="path9725"
       style="fill:#000000;stroke:#000000;stroke-width:0.5"
       d="m 296.77602,171.8599 3.69653,-1.5312 -3.69653,-1.53118 z"
       inkscape:connector-curvature="0" />
    <path
       id="path9727"
       style="fill:none;stroke:#7f7f7f;stroke-width:0.5;stroke-linecap:round;stroke-linejoin:round;stroke-miterlimit:10;stroke-dasharray:3, 3"
       d="m 45.35449,170.3287 0,-170.0787"
       inkscape:connector-curvature="0" />
    <path
       id="path9729"
       style="fill:none;stroke:#000000;stroke-width:0.5;stroke-linecap:round;stroke-linejoin:round;stroke-miterlimit:10"
       d="m 45.35449,173.16335 0,-5.66929"
       inkscape:connector-curvature="0" />
    <g
       id="g9731"
       style="fill:#000000"
       transform="translate(42.86382,182.58371)">
      <use
         id="use9733"
         xlink:href="#GLYPHcmr10_49"
         x="0"
         y="0"
         width="301.07257"
         height="187.33675" />
    </g>
    <path
       id="path9735"
       style="fill:none;stroke:#7f7f7f;stroke-width:0.5;stroke-linecap:round;stroke-linejoin:round;stroke-miterlimit:10;stroke-dasharray:3, 3"
       d="m 73.70094,170.3287 0,-170.0787"
       inkscape:connector-curvature="0" />
    <path
       id="path9737"
       style="fill:none;stroke:#000000;stroke-width:0.5;stroke-linecap:round;stroke-linejoin:round;stroke-miterlimit:10"
       d="m 73.70094,173.16335 0,-5.66929"
       inkscape:connector-curvature="0" />
    <g
       id="g9739"
       style="fill:#000000"
       transform="translate(71.21027,182.58371)">
      <use
         id="use9741"
         xlink:href="#GLYPHcmr10_50"
         x="0"
         y="0"
         width="301.07257"
         height="187.33675" />
    </g>
    <path
       id="path9743"
       style="fill:none;stroke:#7f7f7f;stroke-width:0.5;stroke-linecap:round;stroke-linejoin:round;stroke-miterlimit:10;stroke-dasharray:3, 3"
       d="m 102.0474,170.3287 0,-170.0787"
       inkscape:connector-curvature="0" />
    <path
       id="path9745"
       style="fill:none;stroke:#000000;stroke-width:0.5;stroke-linecap:round;stroke-linejoin:round;stroke-miterlimit:10"
       d="m 102.0474,173.16335 0,-5.66929"
       inkscape:connector-curvature="0" />
    <g
       id="g9747"
       style="fill:#000000"
       transform="translate(99.55672,182.58371)">
      <use
         id="use9749"
         xlink:href="#GLYPHcmr10_51"
         x="0"
         y="0"
         width="301.07257"
         height="187.33675" />
    </g>
    <path
       id="path9751"
       style="fill:none;stroke:#7f7f7f;stroke-width:0.5;stroke-linecap:round;stroke-linejoin:round;stroke-miterlimit:10;stroke-dasharray:3, 3"
       d="m 130.39384,170.3287 0,-170.0787"
       inkscape:connector-curvature="0" />
    <path
       id="path9753"
       style="fill:none;stroke:#000000;stroke-width:0.5;stroke-linecap:round;stroke-linejoin:round;stroke-miterlimit:10"
       d="m 130.39384,173.16335 0,-5.66929"
       inkscape:connector-curvature="0" />
    <g
       id="g9755"
       style="fill:#000000"
       transform="translate(127.90317,182.58371)">
      <use
         id="use9757"
         xlink:href="#GLYPHcmr10_52"
         x="0"
         y="0"
         width="301.07257"
         height="187.33675" />
    </g>
    <path
       id="path9759"
       style="fill:none;stroke:#7f7f7f;stroke-width:0.5;stroke-linecap:round;stroke-linejoin:round;stroke-miterlimit:10;stroke-dasharray:3, 3"
       d="m 158.7403,170.3287 0,-170.0787"
       inkscape:connector-curvature="0" />
    <path
       id="path9761"
       style="fill:none;stroke:#000000;stroke-width:0.5;stroke-linecap:round;stroke-linejoin:round;stroke-miterlimit:10"
       d="m 158.7403,173.16335 0,-5.66929"
       inkscape:connector-curvature="0" />
    <g
       id="g9763"
       style="fill:#000000"
       transform="translate(156.24962,182.58371)">
      <use
         id="use9765"
         xlink:href="#GLYPHcmr10_53"
         x="0"
         y="0"
         width="301.07257"
         height="187.33675" />
    </g>
    <path
       id="path9767"
       style="fill:none;stroke:#7f7f7f;stroke-width:0.5;stroke-linecap:round;stroke-linejoin:round;stroke-miterlimit:10;stroke-dasharray:3, 3"
       d="m 187.08675,170.3287 0,-170.0787"
       inkscape:connector-curvature="0" />
    <path
       id="path9769"
       style="fill:none;stroke:#000000;stroke-width:0.5;stroke-linecap:round;stroke-linejoin:round;stroke-miterlimit:10"
       d="m 187.08675,173.16335 0,-5.66929"
       inkscape:connector-curvature="0" />
    <g
       id="g9771"
       style="fill:#000000"
       transform="translate(184.59607,182.58371)">
      <use
         id="use9773"
         xlink:href="#GLYPHcmr10_54"
         x="0"
         y="0"
         width="301.07257"
         height="187.33675" />
    </g>
    <path
       id="path9775"
       style="fill:none;stroke:#7f7f7f;stroke-width:0.5;stroke-linecap:round;stroke-linejoin:round;stroke-miterlimit:10;stroke-dasharray:3, 3"
       d="m 215.4332,170.3287 0,-170.0787"
       inkscape:connector-curvature="0" />
    <path
       id="path9777"
       style="fill:none;stroke:#000000;stroke-width:0.5;stroke-linecap:round;stroke-linejoin:round;stroke-miterlimit:10"
       d="m 215.4332,173.16335 0,-5.66929"
       inkscape:connector-curvature="0" />
    <g
       id="g9779"
       style="fill:#000000"
       transform="translate(212.94252,182.58371)">
      <use
         id="use9781"
         xlink:href="#GLYPHcmr10_55"
         x="0"
         y="0"
         width="301.07257"
         height="187.33675" />
    </g>
    <path
       id="path9783"
       style="fill:none;stroke:#7f7f7f;stroke-width:0.5;stroke-linecap:round;stroke-linejoin:round;stroke-miterlimit:10;stroke-dasharray:3, 3"
       d="m 243.77965,170.3287 0,-170.0787"
       inkscape:connector-curvature="0" />
    <path
       id="path9785"
       style="fill:none;stroke:#000000;stroke-width:0.5;stroke-linecap:round;stroke-linejoin:round;stroke-miterlimit:10"
       d="m 243.77965,173.16335 0,-5.66929"
       inkscape:connector-curvature="0" />
    <g
       id="g9787"
       style="fill:#000000"
       transform="translate(241.28897,182.58371)">
      <use
         id="use9789"
         xlink:href="#GLYPHcmr10_56"
         x="0"
         y="0"
         width="301.07257"
         height="187.33675" />
    </g>
    <path
       id="path9791"
       style="fill:none;stroke:#7f7f7f;stroke-width:0.5;stroke-linecap:round;stroke-linejoin:round;stroke-miterlimit:10;stroke-dasharray:3, 3"
       d="m 272.1261,170.3287 0,-170.0787"
       inkscape:connector-curvature="0" />
    <path
       id="path9793"
       style="fill:none;stroke:#000000;stroke-width:0.5;stroke-linecap:round;stroke-linejoin:round;stroke-miterlimit:10"
       d="m 272.1261,173.16335 0,-5.66929"
       inkscape:connector-curvature="0" />
    <g
       id="g9795"
       style="fill:#000000"
       transform="translate(269.63542,182.58371)">
      <use
         id="use9797"
         xlink:href="#GLYPHcmr10_57"
         x="0"
         y="0"
         width="301.07257"
         height="187.33675" />
    </g>
    <g
       id="g9799"
       style="fill:#000000"
       transform="translate(283.45238,164.49406)">
      <use
         id="use9801"
         xlink:href="#GLYPHcmmi10_120"
         x="0"
         y="0"
         width="301.07257"
         height="187.33675" />
    </g>
    <path
       id="path9803"
       style="fill:#ffffff;stroke:none"
       d="m 20.84268,21.40457 23.3926,0 0,-13.96271 -23.3926,0 z"
       inkscape:connector-curvature="0" />
    <g
       id="g9805"
       style="fill:#000000"
       transform="translate(22.84268,16.91386)">
      <use
         id="use9807"
         xlink:href="#GLYPHcmmi10_102"
         x="0"
         y="0"
         width="301.07257"
         height="187.33675" />
    </g>
    <g
       id="g9809"
       style="fill:#000000"
       transform="translate(28.79259,16.91386)">
      <use
         id="use9811"
         xlink:href="#GLYPHcmr10_40"
         x="0"
         y="0"
         width="301.07257"
         height="187.33675" />
    </g>
    <g
       id="g9813"
       style="fill:#000000"
       transform="translate(32.66698,16.91386)">
      <use
         id="use9815"
         xlink:href="#GLYPHcmmi10_120"
         x="0"
         y="0"
         width="301.07257"
         height="187.33675" />
    </g>
    <g
       id="g9817"
       style="fill:#000000"
       transform="translate(38.36089,16.91386)">
      <use
         id="use9819"
         xlink:href="#GLYPHcmr10_41"
         x="0"
         y="0"
         width="301.07257"
         height="187.33675" />
    </g>
    <g
       id="g9821"
       style="fill:#000000"
       transform="translate(279.30128,70.39476)">
      <use
         id="use9823"
         xlink:href="#GLYPHcmsy10_112"
         x="0"
         y="0"
         width="301.07257"
         height="187.33675" />
    </g>
    <path
       id="path9825"
       style="fill:none;stroke:#000000;stroke-width:0.3985;stroke-linejoin:round;stroke-miterlimit:10"
       d="m 287.60349,70.19545 5.69389,0"
       inkscape:connector-curvature="0" />
    <g
       id="g9827"
       style="fill:#000000"
       transform="translate(287.60349,77.57056)">
      <use
         id="use9829"
         xlink:href="#GLYPHcmmi10_120"
         x="0"
         y="0"
         width="301.07257"
         height="187.33675" />
    </g>
    <path
       id="path9831"
       style="fill:none;stroke:#7f0000;stroke-width:1.20000005;stroke-linejoin:round;stroke-miterlimit:10"
       d="m 17.00804,170.3287 c 0,-5.48999 3.19376,-10.28038 7.08661,-14.17323 6.06677,-6.06677 13.59392,-10.34025 21.25984,-14.17322 26.82244,-13.41122 55.9681,-21.07862 85.03935,-28.34645 46.76215,-11.69053 94.19014,-20.42276 141.73226,-28.34645 9.44221,-1.5737 18.89145,-3.10502 28.34645,-4.59999"
       inkscape:connector-curvature="0" />
  </g>
</svg>
