<?xml version="1.0" encoding="UTF-8" standalone="no"?>
<!-- Created with Inkscape (http://www.inkscape.org/) -->

<svg
   xmlns:dc="http://purl.org/dc/elements/1.1/"
   xmlns:cc="http://creativecommons.org/ns#"
   xmlns:rdf="http://www.w3.org/1999/02/22-rdf-syntax-ns#"
   xmlns:svg="http://www.w3.org/2000/svg"
   xmlns="http://www.w3.org/2000/svg"
   xmlns:sodipodi="http://sodipodi.sourceforge.net/DTD/sodipodi-0.dtd"
   xmlns:inkscape="http://www.inkscape.org/namespaces/inkscape"
   width="329.74869"
   height="315.51462"
   id="svg2"
   sodipodi:version="0.32"
   inkscape:version="0.48.5 r10040"
   version="1.0"
   sodipodi:docname="Winkelfunktionen_Einheitskreis.svg">
  <defs
     id="defs4" />
  <sodipodi:namedview
     id="base"
     pagecolor="#ffffff"
     bordercolor="#666666"
     borderopacity="1.0"
     gridtolerance="10000"
     guidetolerance="10"
     objecttolerance="10"
     inkscape:pageopacity="0.0"
     inkscape:pageshadow="2"
     inkscape:zoom="0.76999988"
     inkscape:cx="-67.718627"
     inkscape:cy="157.6261"
     inkscape:document-units="px"
     inkscape:current-layer="layer1"
     inkscape:window-width="1536"
     inkscape:window-height="803"
     inkscape:window-x="-8"
     inkscape:window-y="-8"
     showgrid="false"
     fit-margin-top="0"
     fit-margin-left="0"
     fit-margin-right="0"
     fit-margin-bottom="0"
     inkscape:window-maximized="1" />
  <metadata
     id="metadata7">
    <rdf:RDF>
      <cc:Work
         rdf:about="">
        <dc:format>image/svg+xml</dc:format>
        <dc:type
           rdf:resource="http://purl.org/dc/dcmitype/StillImage" />
      </cc:Work>
    </rdf:RDF>
  </metadata>
  <g
     inkscape:label="Layer 1"
     inkscape:groupmode="layer"
     id="layer1"
     transform="translate(-491.68765,-188.96631)">
    <g
       id="Layer_1"
       transform="matrix(1.0034255,0,0,1.0034255,491.68765,188.96631)">
      <circle
         id="circle1877"
         r="141.733"
         cy="158.543"
         cx="162.992"
         sodipodi:cx="162.992"
         sodipodi:cy="158.543"
         sodipodi:rx="141.733"
         sodipodi:ry="141.733"
         style="fill:none;stroke:#000000;stroke-width:1.5"
         d="m 304.72501,158.543 c 0,78.27697 -63.45603,141.733 -141.73301,141.733 -78.276971,0 -141.732997,-63.45603 -141.732997,-141.733 0,-78.276976 63.456026,-141.733002 141.732997,-141.733002 78.27698,0 141.73301,63.456026 141.73301,141.733002 z" />
      <polyline
         id="polyline1879"
         points="304.725,158.543 304.725,70.409 283.179,83.806 283.179,158.543 "
         style="opacity:0.5;fill:#fede58" />
      <polygon
         id="polygon1881"
         points="283.179,158.543 162.992,158.543 162.992,158.543 283.179,83.403 "
         style="fill:#ff1a00" />
      <g
         id="g1883">
        <path
           id="path1885"
           d="m 309.529,56.649 0.58,0 3.205,0 c 0.734,0 1.326,0.188 1.775,0.565 0.449,0.378 0.674,0.875 0.674,1.492 0,0.716 -0.266,1.274 -0.797,1.677 -0.121,0.094 -0.252,0.174 -0.393,0.24 0.285,0.102 0.533,0.229 0.744,0.381 0.567,0.409 0.852,0.977 0.852,1.702 0,0.8 -0.275,1.425 -0.824,1.876 -0.55,0.451 -1.313,0.676 -2.291,0.676 l -2.944,0 -0.581,0 0,-8.609 0,0 z m 1.172,3.672 2.079,0 c 0.632,0 1.095,-0.114 1.388,-0.343 0.293,-0.229 0.439,-0.589 0.439,-1.081 0,-0.43 -0.135,-0.745 -0.404,-0.946 -0.269,-0.201 -0.693,-0.302 -1.271,-0.302 l -2.231,0 0,2.672 z m 0,3.937 2.376,0 c 0.669,0 1.159,-0.129 1.47,-0.386 0.312,-0.258 0.467,-0.663 0.467,-1.217 0,-0.483 -0.162,-0.837 -0.487,-1.062 -0.324,-0.224 -0.835,-0.336 -1.531,-0.336 l -2.294,0 0,3.001 -10e-4,0 z"
           inkscape:connector-curvature="0" />
      </g>
      <g
         id="g1887">
        <path
           id="path1889"
           d="m 312.062,161.788 0.661,0 0.667,0 3.094,8.609 -0.626,0 -0.626,0 -0.879,-2.5 -3.434,0 -0.906,2.5 -0.599,0 -0.604,0 3.252,-8.609 z m -0.771,5.078 2.704,0 -1.327,-3.813 0.006,0 -1.383,3.813 z"
           inkscape:connector-curvature="0" />
      </g>
      <g
         id="g1891">
        <path
           id="path1893"
           d="m 293.817,167.225 c -0.148,1.063 -0.557,1.896 -1.223,2.5 -0.668,0.604 -1.512,0.906 -2.531,0.906 -1.189,0 -2.137,-0.409 -2.844,-1.227 -0.705,-0.818 -1.059,-1.92 -1.059,-3.307 0,-1.386 0.367,-2.49 1.1,-3.313 0.734,-0.821 1.719,-1.232 2.953,-1.232 0.975,0 1.773,0.25 2.4,0.748 0.625,0.5 1,1.188 1.125,2.064 l -1.125,0 c -0.109,-0.568 -0.375,-1.008 -0.795,-1.316 -0.42,-0.311 -0.961,-0.465 -1.621,-0.465 -0.865,0 -1.553,0.317 -2.064,0.951 -0.514,0.635 -0.77,1.489 -0.77,2.563 0,1.141 0.238,2.009 0.713,2.605 0.477,0.598 1.166,0.896 2.068,0.896 0.67,0 1.225,-0.206 1.668,-0.619 0.441,-0.412 0.734,-0.997 0.879,-1.756 l 1.126,0 0,0.002 z"
           inkscape:connector-curvature="0" />
      </g>
      <g
         id="g1895">
        <path
           id="path1897"
           d="m 154.984,169.504 c -0.502,-0.75 -0.753,-1.82 -0.753,-3.209 0,-1.387 0.251,-2.456 0.753,-3.208 0.501,-0.752 1.213,-1.128 2.135,-1.128 0.929,0 1.644,0.376 2.144,1.128 0.5,0.752 0.75,1.821 0.75,3.208 0,1.389 -0.25,2.459 -0.75,3.209 -0.5,0.752 -1.215,1.127 -2.144,1.127 -0.922,0 -1.634,-0.375 -2.135,-1.127 z m 3.466,-0.67 c 0.295,-0.563 0.441,-1.409 0.438,-2.539 0.004,-1.127 -0.143,-1.973 -0.438,-2.537 -0.296,-0.563 -0.74,-0.846 -1.331,-0.846 -0.588,0 -1.027,0.282 -1.319,0.846 -0.292,0.564 -0.439,1.41 -0.443,2.537 0.004,1.13 0.151,1.976 0.443,2.539 0.292,0.563 0.731,0.844 1.319,0.844 0.59,0 1.035,-0.281 1.331,-0.844 z"
           inkscape:connector-curvature="0" />
      </g>
      <g
         id="g1899">
        <path
           id="path1901"
           d="m 184.076,152.705 -1.762,-2.526 0.569,0 0.568,0 1.208,1.854 1.202,-1.854 0.541,0 0.544,0 -1.753,2.541 1.816,2.678 -0.545,0 -0.552,0 -1.302,-1.989 -1.281,1.989 -0.553,0 -0.557,0 1.857,-2.693 z"
           inkscape:connector-curvature="0" />
      </g>
      <g
         id="g1903">
        <path
           id="path1905"
           d="m 286.598,67.649 0.58,0 2.963,0 c 1.094,0 1.965,0.39 2.611,1.168 0.646,0.779 0.971,1.827 0.971,3.143 0,1.313 -0.332,2.356 -0.994,3.133 -0.662,0.777 -1.557,1.166 -2.682,1.166 l -2.869,0 -0.58,0 0,-8.61 0,0 z m 1.172,7.609 2.133,0 c 0.834,0 1.48,-0.287 1.936,-0.859 0.455,-0.574 0.682,-1.387 0.682,-2.439 0,-1.057 -0.219,-1.873 -0.656,-2.447 -0.438,-0.576 -1.059,-0.863 -1.861,-0.863 l -2.232,0 0,6.608 -0.002,0 z"
           inkscape:connector-curvature="0" />
      </g>
      <polyline
         id="polyline1907"
         points="304.725,158.543 304.725,70.409 283.179,83.806 "
         style="opacity:0.5;fill:none;stroke:#ff1a00" />
      <g
         id="g1909">
        <path
           id="path1911"
           d="m 162.992,158.543 33.703,0 c 0,-6.563 -1.883,-12.685 -5.128,-17.864 l -28.575,17.864 z"
           style="fill:none;stroke:#000000;stroke-width:0.5"
           inkscape:connector-curvature="0" />
      </g>
      <line
         id="line1913"
         y2="179.258"
         x2="283.17899"
         y1="158.543"
         x1="283.17899"
         style="fill:none;stroke:#000000;stroke-width:0.25" />
      <line
         id="line1915"
         y2="195.008"
         x2="299.52802"
         y1="195.008"
         x1="248.032"
         style="fill:none;stroke:#000000;stroke-width:0.25" />
      <line
         id="line1917"
         y2="195.008"
         x2="219.685"
         y1="195.008"
         x1="162.992"
         style="fill:none;stroke:#000000;stroke-width:0.25" />
      <polygon
         id="polygon1919"
         points="298.847,197.356 298.847,192.538 298.847,192.538 304.124,194.947 "
         style="stroke:#ffffff;stroke-width:0.5" />
      <polygon
         id="polygon1921"
         points="168.374,192.538 168.374,197.356 168.374,197.356 163.097,194.947 "
         style="stroke:#ffffff;stroke-width:0.5" />
      <g
         id="g1923">
        <path
           id="path1925"
           d="m 225.18,193.54 0.413,0 0.418,0 0,0.894 c 0.075,-0.14 0.155,-0.267 0.239,-0.381 0.333,-0.446 0.742,-0.669 1.228,-0.669 0.081,0 0.164,0.015 0.249,0.044 l 0,0.898 -0.181,-0.005 c -0.476,0 -0.844,0.143 -1.103,0.428 -0.26,0.284 -0.389,0.69 -0.389,1.218 l 0,2.792 -0.438,0 -0.438,0 0,-5.219 0.002,0 z"
           inkscape:connector-curvature="0" />
        <path
           id="path1927"
           d="m 230.914,194.868 5.063,0 0,0.734 -5.063,0 0,-0.734 z m 0,2.015 5.063,0 0,0.734 -5.063,0 0,-0.734 z"
           inkscape:connector-curvature="0" />
        <path
           id="path1929"
           d="m 240.397,193.774 -1.641,0 0,-0.688 c 0.484,0.01 0.879,-0.096 1.182,-0.317 0.306,-0.225 0.532,-0.572 0.679,-1.042 l 0.718,0 0,7.031 -0.467,0 -0.471,0 0,-4.984 0,0 z"
           inkscape:connector-curvature="0" />
      </g>
      <line
         id="line1931"
         y2="179.258"
         x2="283.17899"
         y1="179.258"
         x1="236.69299"
         style="fill:none;stroke:#000000;stroke-width:0.25" />
      <line
         id="line1933"
         y2="179.258"
         x2="208.347"
         y1="179.258"
         x1="162.992"
         style="fill:none;stroke:#000000;stroke-width:0.25" />
      <polygon
         id="polygon1935"
         points="277.903,181.667 277.903,176.849 277.903,176.849 283.179,179.258 "
         style="stroke:#ffffff;stroke-width:0.5" />
      <polygon
         id="polygon1937"
         points="168.374,176.788 168.374,181.606 168.374,181.606 163.097,179.197 "
         style="stroke:#ffffff;stroke-width:0.5" />
      <g
         id="g1939">
        <path
           id="path1941"
           d="m 215.616,181.133 c -0.092,0.656 -0.324,1.155 -0.697,1.5 -0.375,0.344 -0.872,0.516 -1.493,0.516 -0.692,0 -1.245,-0.248 -1.659,-0.746 -0.412,-0.497 -0.619,-1.167 -0.619,-2.01 0,-0.842 0.214,-1.512 0.642,-2.012 0.428,-0.498 1.003,-0.748 1.725,-0.748 0.628,0 1.128,0.172 1.503,0.517 0.373,0.344 0.573,0.817 0.6,1.421 l -0.844,0 c -0.035,-0.378 -0.166,-0.67 -0.39,-0.877 -0.224,-0.207 -0.522,-0.311 -0.896,-0.311 -0.441,0 -0.788,0.179 -1.04,0.535 -0.251,0.357 -0.377,0.85 -0.377,1.475 0,0.666 0.117,1.166 0.351,1.502 0.234,0.336 0.581,0.504 1.042,0.504 0.342,0 0.626,-0.109 0.855,-0.33 0.229,-0.22 0.381,-0.531 0.455,-0.936 l 0.842,0 0,0 z"
           inkscape:connector-curvature="0" />
        <path
           id="path1943"
           d="m 216.881,182.387 c -0.448,-0.508 -0.672,-1.173 -0.672,-1.996 0,-0.825 0.224,-1.49 0.672,-1.998 0.447,-0.506 1.032,-0.76 1.756,-0.76 0.729,0 1.316,0.254 1.763,0.76 0.446,0.508 0.669,1.173 0.669,1.998 0,0.823 -0.223,1.488 -0.669,1.996 -0.446,0.508 -1.034,0.762 -1.763,0.762 -0.723,0 -1.308,-0.254 -1.756,-0.762 z m 2.857,-0.531 c 0.272,-0.363 0.409,-0.852 0.409,-1.465 0,-0.612 -0.137,-1.1 -0.409,-1.463 -0.272,-0.363 -0.64,-0.545 -1.101,-0.545 -0.462,0 -0.828,0.182 -1.1,0.545 -0.271,0.363 -0.406,0.851 -0.406,1.463 0,0.613 0.136,1.102 0.406,1.465 0.271,0.361 0.638,0.543 1.1,0.543 0.461,0 0.828,-0.182 1.101,-0.543 z"
           inkscape:connector-curvature="0" />
        <path
           id="path1945"
           d="m 225.049,179.305 c -0.025,-0.293 -0.144,-0.52 -0.353,-0.68 -0.21,-0.162 -0.491,-0.242 -0.845,-0.242 -0.363,0 -0.64,0.063 -0.83,0.191 -0.189,0.127 -0.284,0.313 -0.284,0.558 0,0.187 0.066,0.327 0.2,0.421 0.133,0.096 0.398,0.189 0.795,0.284 l 0.908,0.215 c 0.507,0.124 0.869,0.294 1.088,0.512 0.215,0.215 0.323,0.516 0.323,0.902 0,0.518 -0.187,0.927 -0.559,1.229 -0.372,0.302 -0.875,0.453 -1.509,0.453 -0.735,0 -1.283,-0.146 -1.644,-0.438 -0.36,-0.291 -0.561,-0.75 -0.6,-1.375 l 0.844,0 c 0.042,0.374 0.173,0.645 0.392,0.812 0.219,0.167 0.554,0.251 1.004,0.251 0.393,0 0.69,-0.075 0.893,-0.225 0.203,-0.15 0.305,-0.369 0.305,-0.656 0,-0.183 -0.066,-0.321 -0.2,-0.416 -0.133,-0.094 -0.4,-0.188 -0.803,-0.283 l -0.904,-0.216 c -0.49,-0.116 -0.839,-0.281 -1.046,-0.492 -0.209,-0.208 -0.313,-0.501 -0.313,-0.878 0,-0.49 0.175,-0.88 0.523,-1.168 0.35,-0.287 0.823,-0.432 1.421,-0.432 0.607,0 1.09,0.148 1.449,0.445 0.358,0.296 0.549,0.705 0.572,1.227 l -0.827,0 0,0.001 z"
           inkscape:connector-curvature="0" />
        <path
           id="path1947"
           d="m 231.155,180.316 -1.762,-2.526 0.569,0 0.568,0 1.208,1.854 1.202,-1.854 0.541,0 0.545,0 -1.754,2.541 1.816,2.678 -0.546,0 -0.552,0 -1.302,-1.989 -1.281,1.989 -0.553,0 -0.557,0 1.858,-2.693 z"
           inkscape:connector-curvature="0" />
      </g>
      <line
         id="line1949"
         y2="83.357002"
         x2="270.069"
         y1="107.52"
         x1="270.069"
         style="fill:none;stroke:#000000;stroke-width:0.25" />
      <line
         id="line1951"
         y2="135.867"
         x2="270.069"
         y1="158.543"
         x1="270.069"
         style="fill:none;stroke:#000000;stroke-width:0.25" />
      <polygon
         id="polygon1953"
         points="272.478,88.633 267.66,88.633 267.66,88.633 270.069,83.358 "
         style="stroke:#ffffff;stroke-width:0.5" />
      <polygon
         id="polygon1955"
         points="267.598,153.163 272.417,153.163 272.417,153.163 270.007,158.439 "
         style="stroke:#ffffff;stroke-width:0.5" />
      <g
         id="g1957">
        <path
           id="path1959"
           d="m 270.116,128.335 c -0.293,0.025 -0.52,0.144 -0.68,0.353 -0.162,0.209 -0.242,0.491 -0.242,0.845 0,0.363 0.063,0.64 0.191,0.829 0.127,0.19 0.313,0.285 0.558,0.285 0.187,0 0.327,-0.066 0.421,-0.2 0.096,-0.134 0.189,-0.398 0.284,-0.795 l 0.215,-0.908 c 0.124,-0.507 0.294,-0.87 0.512,-1.088 0.215,-0.216 0.516,-0.323 0.902,-0.323 0.518,0 0.927,0.187 1.229,0.559 0.302,0.372 0.453,0.875 0.453,1.509 0,0.735 -0.146,1.282 -0.438,1.644 -0.291,0.361 -0.75,0.561 -1.375,0.6 l 0,-0.844 c 0.374,-0.042 0.645,-0.172 0.812,-0.392 0.167,-0.219 0.251,-0.554 0.251,-1.005 0,-0.392 -0.075,-0.689 -0.225,-0.893 -0.15,-0.202 -0.369,-0.304 -0.656,-0.304 -0.183,0 -0.321,0.066 -0.416,0.2 -0.094,0.133 -0.188,0.4 -0.283,0.803 l -0.216,0.904 c -0.116,0.49 -0.281,0.839 -0.492,1.046 -0.208,0.209 -0.501,0.313 -0.878,0.313 -0.49,0 -0.88,-0.175 -1.168,-0.523 -0.287,-0.35 -0.432,-0.822 -0.432,-1.42 0,-0.607 0.148,-1.091 0.445,-1.45 0.296,-0.358 0.705,-0.55 1.227,-0.572 l 0,0.827 10e-4,0 z"
           inkscape:connector-curvature="0" />
        <path
           id="path1961"
           d="m 266.647,126.317 0,-0.906 1,0 0,0.906 -1,0 z m 1.953,-0.016 0,-0.438 0,-0.438 5.219,0 0,0.438 0,0.438 -5.219,0 z"
           inkscape:connector-curvature="0" />
        <path
           id="path1963"
           d="m 268.6,124.095 0,-0.413 0,-0.418 0.771,0 -0.259,-0.195 c -0.446,-0.382 -0.669,-0.859 -0.669,-1.434 0,-0.577 0.156,-1.022 0.469,-1.336 0.312,-0.313 0.756,-0.47 1.331,-0.47 l 3.575,0 0,0.438 0,0.438 -3.279,0 c -0.459,0 -0.79,0.089 -0.994,0.268 -0.203,0.178 -0.305,0.466 -0.305,0.865 0,0.425 0.16,0.762 0.48,1.011 0.32,0.248 0.754,0.372 1.301,0.372 l 2.797,0 0,0.438 0,0.438 -5.218,0 0,-0.002 z"
           inkscape:connector-curvature="0" />
        <path
           id="path1965"
           d="m 271.126,114.447 -2.526,1.762 0,-0.569 0,-0.568 1.854,-1.207 -1.854,-1.203 0,-0.541 0,-0.545 2.541,1.754 2.678,-1.816 0,0.547 0,0.551 -1.989,1.302 1.989,1.282 0,0.552 0,0.557 -2.693,-1.858 z"
           inkscape:connector-curvature="0" />
      </g>
      <line
         id="line1967"
         y2="70.407997"
         x2="317.83499"
         y1="100.433"
         x1="317.83499"
         style="fill:none;stroke:#000000;stroke-width:0.25" />
      <line
         id="line1969"
         y2="128.78"
         x2="317.83499"
         y1="158.64799"
         x1="317.83499"
         style="fill:none;stroke:#000000;stroke-width:0.25" />
      <polygon
         id="polygon1971"
         points="320.245,75.684 315.426,75.684 315.426,75.684 317.835,70.409 "
         style="stroke:#ffffff;stroke-width:0.5" />
      <polygon
         id="polygon1973"
         points="315.365,153.267 320.183,153.267 320.183,153.267 317.774,158.543 "
         style="stroke:#ffffff;stroke-width:0.5" />
      <g
         id="g1975">
        <path
           id="path1977"
           d="m 321.585,122.325 c 0.041,0.299 0.063,0.518 0.063,0.654 0,0.384 -0.085,0.654 -0.254,0.813 -0.17,0.157 -0.462,0.236 -0.876,0.236 l -3.448,0 0,0.719 -0.703,0 0,-0.719 -1.469,0 0,-0.875 1.469,0 0,-0.828 0.703,0 0,0.828 3.447,0 c 0.117,0 0.21,-0.047 0.278,-0.14 0.068,-0.093 0.103,-0.218 0.103,-0.375 l 0,-0.313 0.687,0 z"
           inkscape:connector-curvature="0" />
        <path
           id="path1979"
           d="m 321.726,120.085 c 0,0.511 -0.137,0.916 -0.41,1.215 -0.273,0.3 -0.644,0.449 -1.109,0.449 -0.47,0 -0.843,-0.141 -1.119,-0.422 -0.277,-0.281 -0.45,-0.692 -0.519,-1.232 l -0.151,-1.195 c -0.01,-0.098 -0.025,-0.19 -0.049,-0.278 -0.029,-0.114 -0.088,-0.201 -0.175,-0.264 -0.088,-0.062 -0.198,-0.093 -0.331,-0.093 l -0.044,0 c -0.278,0 -0.497,0.105 -0.653,0.317 -0.158,0.211 -0.236,0.505 -0.236,0.882 0,0.358 0.084,0.64 0.251,0.841 0.168,0.202 0.417,0.324 0.749,0.366 l 0,0.813 c -0.571,-0.042 -1,-0.243 -1.288,-0.604 -0.287,-0.36 -0.431,-0.876 -0.431,-1.548 0,-0.633 0.138,-1.115 0.413,-1.445 0.274,-0.332 0.676,-0.497 1.203,-0.497 l 2.872,0 c 0.088,0 0.158,-0.026 0.212,-0.081 0.054,-0.054 0.081,-0.126 0.081,-0.218 0,-0.026 -0.004,-0.064 -0.01,-0.115 -0.007,-0.051 -0.017,-0.105 -0.029,-0.164 l 0.635,0 c 0.032,0.085 0.059,0.174 0.078,0.269 0.02,0.094 0.029,0.174 0.029,0.238 0,0.332 -0.092,0.572 -0.276,0.722 -0.121,0.098 -0.294,0.168 -0.518,0.21 0.081,0.065 0.159,0.14 0.234,0.225 0.394,0.439 0.591,0.976 0.591,1.609 z m -2.212,-1.82 -0.569,0 c 0.078,0.163 0.132,0.343 0.161,0.541 l 0.117,0.804 c 0.06,0.422 0.158,0.73 0.298,0.926 0.139,0.194 0.328,0.292 0.567,0.292 0.295,0 0.521,-0.079 0.681,-0.239 0.159,-0.158 0.238,-0.385 0.238,-0.677 0,-0.461 -0.126,-0.851 -0.378,-1.169 -0.177,-0.218 -0.377,-0.362 -0.6,-0.434 -0.042,-0.013 -0.109,-0.022 -0.201,-0.029 -0.094,-0.01 -0.199,-0.015 -0.314,-0.015 z"
           inkscape:connector-curvature="0" />
        <path
           id="path1981"
           d="m 316.367,115.891 0,-0.413 0,-0.418 0.771,0 -0.259,-0.196 c -0.446,-0.381 -0.669,-0.858 -0.669,-1.433 0,-0.577 0.156,-1.022 0.469,-1.336 0.312,-0.313 0.756,-0.47 1.331,-0.47 l 3.575,0 0,0.438 0,0.438 -3.279,0 c -0.459,0 -0.79,0.089 -0.994,0.268 -0.203,0.178 -0.305,0.467 -0.305,0.865 0,0.425 0.16,0.762 0.48,1.01 0.32,0.249 0.754,0.373 1.301,0.373 l 2.797,0 0,0.438 0,0.438 -5.218,0 0,-0.002 z"
           inkscape:connector-curvature="0" />
        <path
           id="path1983"
           d="m 318.893,106.243 -2.526,1.762 0,-0.569 0,-0.568 1.854,-1.208 -1.854,-1.202 0,-0.541 0,-0.545 2.541,1.754 2.678,-1.816 0,0.546 0,0.552 -1.989,1.302 1.989,1.281 0,0.553 0,0.557 -2.693,-1.858 z"
           inkscape:connector-curvature="0" />
      </g>
      <line
         id="line1985"
         y2="83.403"
         x2="283.17899"
         y1="83.403"
         x1="270.069"
         style="fill:none;stroke:#000000;stroke-width:0.25" />
      <line
         id="line1987"
         y2="70.408997"
         x2="317.83499"
         y1="70.408997"
         x1="304.72501"
         style="fill:none;stroke:#000000;stroke-width:0.25" />
      <line
         id="line1989"
         y2="194.94701"
         x2="304.72699"
         y1="158.543"
         x1="304.72699"
         style="fill:none;stroke:#000000;stroke-width:0.25" />
      <g
         id="g1991">
        <g
           id="g1993">
          <line
             id="line1995"
             y2="314.44901"
             x2="162.992"
             y1="2.6389999"
             x1="162.992"
             style="fill:none;stroke:#000000;stroke-width:0.5" />
          <line
             id="line1997"
             y2="158.543"
             x2="0"
             y1="158.543"
             x1="325.98401"
             style="fill:none;stroke:#000000;stroke-width:0.5" />
          <polygon
             id="polygon1999"
             points="165.827,5.276 160.158,5.276 160.158,5.276 162.992,0 " />
          <polygon
             id="polygon2001"
             points="323.346,161.377 323.346,155.709 323.346,155.709 328.623,158.543 " />
        </g>
        <g
           id="g2003">
          <circle
             id="circle2005"
             r="1.771"
             cy="158.543"
             cx="283.17899"
             sodipodi:cx="283.17899"
             sodipodi:cy="158.543"
             sodipodi:rx="1.771"
             sodipodi:ry="1.771"
             style="stroke:#ffffff;stroke-width:0.5"
             d="m 284.94999,158.543 c 0,0.9781 -0.79291,1.771 -1.771,1.771 -0.9781,0 -1.771,-0.7929 -1.771,-1.771 0,-0.9781 0.7929,-1.771 1.771,-1.771 0.97809,0 1.771,0.7929 1.771,1.771 z" />
          <circle
             id="circle2007"
             r="1.771"
             cy="70.408997"
             cx="304.72501"
             sodipodi:cx="304.72501"
             sodipodi:cy="70.408997"
             sodipodi:rx="1.771"
             sodipodi:ry="1.771"
             style="stroke:#ffffff;stroke-width:0.5"
             d="m 306.49601,70.408997 c 0,0.978096 -0.79291,1.771 -1.771,1.771 -0.9781,0 -1.771,-0.792904 -1.771,-1.771 0,-0.978097 0.7929,-1.771 1.771,-1.771 0.97809,0 1.771,0.792903 1.771,1.771 z" />
          <circle
             id="circle2009"
             r="1.771"
             cy="83.403"
             cx="283.17899"
             sodipodi:cx="283.17899"
             sodipodi:cy="83.403"
             sodipodi:rx="1.771"
             sodipodi:ry="1.771"
             style="stroke:#ffffff;stroke-width:0.5"
             d="m 284.94999,83.403 c 0,0.978096 -0.79291,1.771 -1.771,1.771 -0.9781,0 -1.771,-0.792904 -1.771,-1.771 0,-0.978096 0.7929,-1.771 1.771,-1.771 0.97809,0 1.771,0.792904 1.771,1.771 z" />
          <circle
             id="circle2011"
             r="1.771"
             cy="158.543"
             cx="304.72501"
             sodipodi:cx="304.72501"
             sodipodi:cy="158.543"
             sodipodi:rx="1.771"
             sodipodi:ry="1.771"
             style="stroke:#ffffff;stroke-width:0.5"
             d="m 306.49601,158.543 c 0,0.9781 -0.79291,1.771 -1.771,1.771 -0.9781,0 -1.771,-0.7929 -1.771,-1.771 0,-0.9781 0.7929,-1.771 1.771,-1.771 0.97809,0 1.771,0.7929 1.771,1.771 z" />
          <circle
             id="circle2013"
             r="1.771"
             cy="158.543"
             cx="162.992"
             sodipodi:cx="162.992"
             sodipodi:cy="158.543"
             sodipodi:rx="1.771"
             sodipodi:ry="1.771"
             style="stroke:#ffffff;stroke-width:0.5"
             d="m 164.763,158.543 c 0,0.9781 -0.7929,1.771 -1.771,1.771 -0.97809,0 -1.771,-0.7929 -1.771,-1.771 0,-0.9781 0.79291,-1.771 1.771,-1.771 0.9781,0 1.771,0.7929 1.771,1.771 z" />
        </g>
      </g>
    </g>
  </g>
</svg>
