<?xml version="1.0" encoding="UTF-8"?>
<!DOCTYPE svg PUBLIC "-//W3C//DTD SVG 1.1//EN" "http://www.w3.org/Graphics/SVG/1.1/DTD/svg11.dtd">
<svg version="1.1" xmlns="http://www.w3.org/2000/svg" x="0" y="0" width="370" height="270" viewBox="0 0 370 270">
  <title>Gaußsche Zahlenebene</title>
  <!-- Achsen -->
  <g style="fill:none; stroke:#000000;">
    <!-- X-Achse -->
    <line x1="5"   y1="140" x2="355" y2="140" />
    <line x1="30"  y1="135" x2="30"  y2="145" />
    <line x1="80"  y1="135" x2="80"  y2="145" />
    <line x1="130" y1="135" x2="130" y2="145" />
    <line x1="180" y1="15"  x2="180" y2="265" />
    <line x1="230" y1="135" x2="230" y2="145" />
    <line x1="280" y1="135" x2="280" y2="145" />
    <line x1="330" y1="135" x2="330" y2="145" />
    <!-- Y-Achse -->
    <line x1="175" y1="40"  x2="185" y2="40" />
    <line x1="175" y1="90"  x2="185" y2="90" />
    <line x1="175" y1="240" x2="185" y2="240" />
    <line x1="175" y1="190" x2="185" y2="190" />
    <polygon style="fill:#000000; stroke:none;" points="354,137.5  364,140 354,142.5 " />
    <polygon style="fill:#000000; stroke:none;" points="177.5,15   180,5   182.50,15 " />
  </g>
  <!-- Zeiger und Koordinaten -->
  <g style="fill:none; stroke:#000000;">
    <line stroke="#0000FF" x1="180" y1="40"  x2="330" y2="40" />
    <line stroke="#0000FF" x1="330" y1="140" x2="330" y2="40" />
    <line stroke="#00FF00" x1="180" y1="140" x2="330" y2="40" />
    <circle style="fill:#00FF00; stroke:none;" cx="330" cy="40" r="1.5" />
    <path id="text_r" style="fill:#00FF00; stroke:none;" d=" M 263.398,86.726 h 0.41 l -0.479,1.682 l 0.082,0.027 c 0.434 -0.597,0.855 -1.039,1.27 -1.326 c 0.412 -0.287,0.836 -0.431,1.273 -0.431 c 0.334,0,0.611,0.025,0.834,0.075 l -0.328,1.531 h -0.703 c -0.037 -0.237 -0.094 -0.417 -0.172 -0.54 c -0.076 -0.123 -0.197 -0.185 -0.361 -0.185 c -0.178,0 -0.383,0.091 -0.615,0.273 s -0.471,0.433 -0.711,0.752 c -0.242,0.319 -0.424,0.613 -0.543,0.882 c -0.121,0.269 -0.215,0.567 -0.277,0.896 l -0.623,2.96 h -1.182 l 1.039 -4.669 c 0.096 -0.428,0.143 -0.754,0.143 -0.978 c 0 -0.127 -0.02 -0.227 -0.061 -0.297 s -0.107 -0.123 -0.199 -0.157 c -0.09 -0.034 -0.246 -0.058 -0.465 -0.072 l 0.076 -0.362 L 263.398,86.726 z " />
    <path  d="M 250,140 A 70,70 0 0 0 238,101" />
  </g>


  <!-- Einheit i mit Bezeichner -->
  <g style="fill:#FF931E; stroke:none;">
    <circle cx="180" cy="90" r="1.5" />
    <path d=" M 188.959,92.898 c -0.049,0.232 -0.082,0.402 -0.096,0.509 s -0.02,0.197 -0.02,0.27 c 0,0.137,0.021,0.244,0.068,0.321 c 0.045,0.078,0.115,0.137,0.211,0.178 s 0.254,0.073,0.473,0.096 l -0.063,0.335 h -2.119 L 188.447,90 c 0.059 -0.264,0.1 -0.475,0.123 -0.632 c 0.021 -0.157,0.033 -0.288,0.033 -0.393 c 0 -0.132 -0.02 -0.235 -0.057 -0.308 c -0.039 -0.073 -0.105 -0.127 -0.195 -0.164 c -0.092 -0.037 -0.248 -0.059 -0.473 -0.068 l 0.076 -0.362 l 1.668 -0.062 h 0.402 L 188.959,92.898 z M 190.648,85.393 l -0.314,1.326 h -1.211 l 0.314 -1.326 H 190.648 z " />
  </g>
  <!-- geschweifte Klammern mit Bezeichner -->
  <g>
    <path id="klammer_b" style="fill:none; stroke:#C1272D;" d="M 162.526,40 H 160.6 c -4.269,0 -7.117,0.776 -8.546,2.33 c -1.429,1.555 -2.145,5.066 -2.145,10.535 c 0,9.073 -0.197,15.641 -0.589,19.702 c -0.394,4.061 -1.492,7.467 -3.295,10.224 c -1.801,2.755 -4.837,5.168 -9.105,7.241 c 4.227,1.698,7.449,4.454,9.667,8.265 c 2.215,3.812,3.323,10.421,3.323,19.826 c 0,8.66,0.187,13.963,0.559,15.911 c 0.374,1.947,1.087,3.429,2.145,4.444 c 1.057,1.015,3.718,1.522,7.987,1.522 h 1.926" />
    <path id="klammer_a" style="fill:none; stroke:#C1272D;" d="M 180,157.793 v 2.891 c 0,6.402,1.164,10.676,3.495,12.818 c 2.332,2.145,7.599,3.217,15.802,3.217 c 13.611,0,23.461,0.297,29.555,0.885 c 6.09,0.591,11.199,2.238,15.334,4.943 c 4.133,2.701,7.754,7.256,10.863,13.658 c 2.545 -6.34,6.68 -11.174,12.396 -14.5 c 5.719 -3.322,15.633 -4.986,29.738 -4.986 c 12.99,0,20.945 -0.279,23.865 -0.838 c 2.922 -0.561,5.145 -1.63,6.668 -3.217 c 1.521 -1.584,2.283 -5.578,2.283 -11.98 v -2.891" />
    <path id="text_a"    style="fill:#C1272D; stroke:none;" d="M 256.061,200.451 l 0.629 -0.451 l 0.438,0.109 l -1.045,4.642 c -0.064,0.273 -0.107,0.484 -0.131,0.633 c -0.021,0.147 -0.033,0.27 -0.033,0.365 c 0,0.187,0.053,0.322,0.156,0.406 c 0.105,0.085,0.307,0.139,0.602,0.161 l -0.061,0.335 h -1.955 l 0.43 -1.716 l -0.088 -0.027 c -0.438,0.638 -0.854,1.105 -1.244,1.401 c -0.393,0.296 -0.807,0.444 -1.244,0.444 c -0.502,0 -0.891 -0.189 -1.166 -0.567 s -0.414 -0.909 -0.414 -1.593 c 0 -0.438,0.051 -0.876,0.15 -1.315 c 0.102 -0.44,0.252 -0.857,0.455 -1.252 c 0.203 -0.394,0.445 -0.741,0.729 -1.042 c 0.281 -0.301,0.609 -0.54,0.98 -0.718 s 0.775 -0.267,1.213 -0.267 c 0.283,0,0.553,0.033,0.807,0.099 C 255.523,200.165,255.787,200.282,256.061,200.451 z M 255.459,202.488 c 0.041 -0.187,0.068 -0.349,0.082 -0.485 s 0.021 -0.285,0.021 -0.444 c 0 -0.355 -0.076 -0.614 -0.227 -0.776 c -0.15 -0.161 -0.4 -0.242 -0.752 -0.242 c -0.191,0 -0.373,0.031 -0.547,0.092 c -0.172,0.063 -0.348,0.164 -0.525,0.309 c -0.178,0.143 -0.348,0.331 -0.51,0.563 s -0.309,0.515 -0.441,0.848 c -0.131,0.333 -0.234,0.689 -0.307,1.069 c -0.074,0.381 -0.109,0.751 -0.109,1.111 c 0,0.474,0.064,0.828,0.193,1.063 c 0.131,0.235,0.348,0.353,0.654,0.353 c 0.141,0,0.287 -0.032,0.439 -0.096 c 0.154 -0.063,0.324 -0.181,0.51 -0.353 c 0.188 -0.17,0.398 -0.422,0.637 -0.755 c 0.213 -0.306,0.383 -0.607,0.508 -0.905 c 0.127 -0.299,0.23 -0.651,0.313 -1.057 L 255.459,202.488 z" />
    <path id="text_b"    style="fill:#C1272D; stroke:none;" d="M 127.097,94.498 l -0.629,0.444 l -0.438 -0.109 l 1.771 -7.813 c 0.027 -0.114,0.061 -0.278,0.099 -0.492 s 0.058 -0.387,0.058 -0.52 c 0 -0.191 -0.058 -0.326 -0.174 -0.403 s -0.325 -0.121 -0.625 -0.13 l 0.082 -0.355 l 1.729 -0.062 h 0.396 l -1.203,4.785 l 0.089,0.027 c 0.442 -0.592,0.857 -1.021,1.244 -1.285 s 0.775 -0.396,1.162 -0.396 c 0.497,0,0.883,0.189,1.159,0.567 s 0.414,0.912,0.414,1.6 c 0,0.492 -0.067,0.987 -0.202,1.483 s -0.321,0.946 -0.561,1.347 s -0.506,0.73 -0.8,0.988 s -0.604,0.45 -0.93,0.578 s -0.669,0.191 -1.029,0.191 C 128.104,94.942,127.566,94.794,127.097,94.498 z M 127.699,92.454 c -0.045,0.205 -0.074,0.379 -0.085,0.523 s -0.017,0.279 -0.017,0.407 c 0,0.36,0.079,0.62,0.236,0.779 s 0.418,0.239,0.783,0.239 c 0.237,0,0.454 -0.045,0.649 -0.137 s 0.382 -0.225,0.557 -0.4 s 0.335 -0.389,0.479 -0.639 s 0.27 -0.537,0.379 -0.858 s 0.192 -0.654,0.25 -0.998 s 0.085 -0.664,0.085 -0.96 c 0 -0.474 -0.067 -0.83 -0.202 -1.066 s -0.35 -0.355 -0.646 -0.355 c -0.219,0 -0.434,0.069 -0.646,0.208 s -0.448,0.369 -0.708,0.69 s -0.472,0.65 -0.636,0.988 s -0.303,0.768 -0.417,1.292 L 127.699,92.454 z " />
  </g>

  <!-- schwarze Texte -->  
  <g style="fill:#000000; stroke:none;">
    <path id="achse_xm3"   d="M 23.291,150.799 v -0.65 h 6.016 v 0.65 H 23.291 z M 30.811,148.049 v -0.928 c 0.377 -0.178,0.731 -0.313,1.06 -0.4 s 0.646 -0.131,0.952 -0.131 c 0.368,0,0.69,0.057,0.967,0.17 c 0.277,0.115,0.488,0.277,0.635,0.492 c 0.146,0.213,0.22,0.467,0.22,0.764 c 0,0.275 -0.055,0.52 -0.166,0.73 c -0.111,0.209 -0.266,0.393 -0.466,0.549 s -0.46,0.309 -0.779,0.459 v 0.043 c 0.199,0.037,0.39,0.098,0.574,0.184 s 0.348,0.197,0.491,0.334 s 0.258,0.301,0.344,0.492 c 0.086,0.189,0.129,0.406,0.129,0.65 c 0,0.379 -0.082,0.713 -0.247,1.006 s -0.416,0.525 -0.754,0.693 c -0.338,0.17 -0.75,0.254 -1.235,0.254 c -0.28,0 -0.582 -0.031 -0.906 -0.094 c -0.324 -0.064 -0.621 -0.148 -0.891 -0.252 v -1.035 h 0.586 c 0.114,0.338,0.265,0.584,0.452,0.736 c 0.187,0.154,0.442,0.23,0.764,0.23 c 0.423,0,0.743 -0.115,0.959 -0.348 c 0.216 -0.23,0.325 -0.572,0.325 -1.025 c 0 -0.475 -0.143 -0.838 -0.43 -1.088 c -0.287 -0.252 -0.707 -0.377 -1.26 -0.377 h -0.439 v -0.43 c 0.439 -0.025,0.81 -0.109,1.111 -0.254 c 0.301 -0.143,0.525 -0.326,0.671 -0.551 s 0.22 -0.477,0.22 -0.758 c 0 -0.361 -0.096 -0.639 -0.288 -0.834 s -0.472 -0.293 -0.84 -0.293 c -0.306,0 -0.555,0.082 -0.747,0.248 s -0.333,0.42 -0.425,0.762 H 30.811 z" />
    <path id="achse_xm2"   d="M 73.293,150.838 v -0.65 h 6.016 v 0.65 H 73.293 z M 83.464,152.59 c 0.16,0,0.288 -0.01,0.386 -0.029 s 0.176 -0.051,0.234 -0.098 c 0.059 -0.045,0.105 -0.105,0.139 -0.178 c 0.034 -0.074,0.077 -0.186,0.129 -0.34 h 0.415 l -0.083,1.426 h -4.019 v -0.234 c 0.14 -0.342,0.329 -0.691,0.566 -1.049 c 0.238 -0.359,0.575 -0.779,1.011 -1.266 c 0.377 -0.416,0.649 -0.732,0.815 -0.947 c 0.182 -0.234,0.318 -0.438,0.408 -0.607 c 0.089 -0.172,0.154 -0.332,0.193 -0.484 c 0.039 -0.15,0.059 -0.303,0.059 -0.455 c 0 -0.244 -0.039 -0.461 -0.117 -0.648 c -0.078 -0.186 -0.198 -0.334 -0.359 -0.441 s -0.364 -0.16 -0.608 -0.16 c -0.609,0 -1.019,0.338 -1.23,1.016 h -0.591 v -0.938 c 0.394 -0.186,0.763 -0.32,1.106 -0.404 c 0.343 -0.082,0.652 -0.123,0.925 -0.123 c 0.605,0,1.063,0.133,1.372,0.396 c 0.309,0.266,0.464,0.65,0.464,1.156 c 0,0.172 -0.017,0.33 -0.051,0.475 c -0.034,0.146 -0.088,0.289 -0.161,0.43 c -0.073,0.143 -0.172,0.295 -0.295,0.457 c -0.124,0.164 -0.26,0.328 -0.41,0.496 s -0.409,0.447 -0.776,0.838 c -0.619,0.654 -1.073,1.225 -1.362,1.713 H 83.464 z" />
    <path id="achse_xm1"   d="M 123.281,150.838 v -0.65 h 6.016 v 0.65 H 123.281 z M 133.418,152.098 c 0,0.188,0.011,0.33,0.032,0.428 c 0.021,0.096,0.059,0.174,0.112,0.234 c 0.054,0.059,0.131,0.107,0.232,0.141 c 0.101,0.035,0.228,0.061,0.381,0.078 s 0.355,0.029,0.605,0.037 v 0.355 h -3.608 v -0.355 c 0.361 -0.018,0.619 -0.039,0.774 -0.066 s 0.272 -0.068,0.354 -0.125 c 0.082 -0.055,0.141 -0.133,0.178 -0.234 c 0.038 -0.1,0.056 -0.266,0.056 -0.492 v -3.961 c 0 -0.129 -0.023 -0.225 -0.068 -0.285 s -0.112 -0.09 -0.2 -0.09 c -0.104,0 -0.252,0.053 -0.444,0.16 s -0.43,0.256 -0.713,0.445 l -0.215 -0.377 l 2.285 -1.361 h 0.269 c -0.02,0.313 -0.029,0.744 -0.029,1.299 V 152.098 z" />
    <path id="achse_null"  d="M 168.977,153.41 c -0.703,0 -1.227 -0.275 -1.57 -0.83 c -0.343 -0.553 -0.515 -1.393 -0.515 -2.52 c 0 -0.598,0.053 -1.115,0.159 -1.553 c 0.106 -0.436,0.254 -0.797,0.444 -1.08 c 0.19 -0.285,0.419 -0.496,0.686 -0.633 s 0.558 -0.205,0.874 -0.205 c 0.713,0,1.243,0.275,1.592,0.824 c 0.349,0.551,0.522,1.383,0.522,2.496 c 0,1.152 -0.187,2.023 -0.559,2.615 C 170.238,153.115,169.693,153.41,168.977,153.41 z M 167.844,149.914 c 0,1.063,0.099,1.84,0.295,2.338 c 0.197,0.496,0.502,0.744,0.916,0.744 c 0.394,0,0.686 -0.234,0.876 -0.701 c 0.191 -0.467,0.286 -1.191,0.286 -2.17 c 0 -0.75 -0.049 -1.355 -0.146 -1.818 c -0.098 -0.465 -0.233 -0.797 -0.408 -1 c -0.174 -0.201 -0.385 -0.303 -0.632 -0.303 c -0.225,0 -0.413,0.066 -0.564,0.201 c -0.151,0.133 -0.273,0.324 -0.366,0.576 c -0.093,0.25 -0.159,0.555 -0.198,0.916 C 167.864,149.057,167.844,149.463,167.844,149.914 z " />
    <path id="achse_xp1"   d="M 229.611,152.098 c 0,0.188,0.012,0.33,0.031,0.426 c 0.021,0.098,0.059,0.176,0.113,0.234 c 0.053,0.061,0.131,0.107,0.232,0.143 c 0.1,0.033,0.227,0.061,0.381,0.078 c 0.152,0.018,0.354,0.029,0.605,0.037 v 0.355 h -3.609 v -0.355 c 0.361 -0.018,0.619 -0.039,0.773 -0.066 c 0.156 -0.027,0.273 -0.068,0.355 -0.125 c 0.08 -0.055,0.141 -0.133,0.178 -0.234 c 0.037 -0.1,0.057 -0.266,0.057 -0.492 v -3.961 c 0 -0.129 -0.023 -0.225 -0.068 -0.285 c -0.047 -0.061 -0.113 -0.09 -0.201 -0.09 c -0.104,0 -0.252,0.053 -0.443,0.16 c -0.193,0.107 -0.43,0.256 -0.713,0.445 l -0.215 -0.377 l 2.285 -1.361 h 0.268 c -0.02,0.313 -0.029,0.744 -0.029,1.299 V 152.098 z " />
    <path id="achse_xp2"   d="M 279.777,152.59 c 0.16,0,0.289 -0.01,0.387 -0.029 s 0.176 -0.051,0.234 -0.098 c 0.059 -0.045,0.104 -0.105,0.139 -0.178 c 0.033 -0.074,0.078 -0.186,0.129 -0.34 h 0.416 l -0.084,1.426 h -4.018 v -0.234 c 0.139 -0.342,0.328 -0.691,0.566 -1.049 c 0.236 -0.359,0.574 -0.779,1.01 -1.266 c 0.379 -0.416,0.65 -0.732,0.816 -0.947 c 0.182 -0.234,0.318 -0.438,0.406 -0.607 c 0.09 -0.172,0.154 -0.332,0.193 -0.484 c 0.039 -0.15,0.059 -0.303,0.059 -0.455 c 0 -0.244 -0.039 -0.461 -0.117 -0.648 c -0.078 -0.186 -0.197 -0.334 -0.359 -0.441 c -0.16 -0.107 -0.363 -0.16 -0.607 -0.16 c -0.607,0 -1.018,0.338 -1.23,1.016 h -0.59 v -0.938 c 0.393 -0.186,0.762 -0.32,1.105 -0.404 c 0.344 -0.082,0.652 -0.123,0.926 -0.123 c 0.605,0,1.063,0.133,1.371,0.396 c 0.311,0.266,0.465,0.65,0.465,1.156 c 0,0.172 -0.018,0.33 -0.053,0.475 c -0.033,0.146 -0.088,0.289 -0.16,0.43 c -0.074,0.143 -0.172,0.295 -0.295,0.457 c -0.125,0.164 -0.262,0.328 -0.41,0.496 c -0.15,0.168 -0.408,0.447 -0.777,0.838 c -0.617,0.654 -1.072,1.225 -1.361,1.713 H 279.777 z " />
    <path id="achse_ym2"   d="M 160.293,240.838 v -0.65 h 6.016 v 0.65 H 160.293 z M 170.464,242.59 c 0.16,0,0.288 -0.01,0.386 -0.029 s 0.176 -0.051,0.234 -0.098 c 0.059 -0.045,0.104 -0.105,0.14 -0.178 c 0.033 -0.074,0.076 -0.186,0.129 -0.34 h 0.415 l -0.083,1.426 h -4.019 v -0.234 c 0.14 -0.342,0.329 -0.691,0.566 -1.049 c 0.237 -0.359,0.575 -0.779,1.011 -1.266 c 0.377 -0.416,0.649 -0.732,0.815 -0.947 c 0.183 -0.234,0.318 -0.438,0.407 -0.607 c 0.09 -0.172,0.154 -0.332,0.193 -0.484 c 0.039 -0.15,0.059 -0.303,0.059 -0.455 c 0 -0.244 -0.039 -0.461 -0.117 -0.648 c -0.078 -0.186 -0.197 -0.334 -0.359 -0.441 c -0.16 -0.107 -0.363 -0.16 -0.607 -0.16 c -0.609,0 -1.02,0.338 -1.23,1.016 h -0.591 v -0.938 c 0.394 -0.186,0.763 -0.32,1.106 -0.404 c 0.343 -0.082,0.651 -0.123,0.925 -0.123 c 0.605,0,1.063,0.133,1.372,0.396 c 0.309,0.266,0.464,0.65,0.464,1.156 c 0,0.172 -0.017,0.33 -0.052,0.475 c -0.033,0.146 -0.088,0.289 -0.16,0.43 c -0.074,0.143 -0.172,0.295 -0.296,0.457 c -0.124,0.164 -0.261,0.328 -0.41,0.496 s -0.409,0.447 -0.776,0.838 c -0.619,0.654 -1.072,1.225 -1.362,1.713 H 170.464 z" />
    <path id="achse_ym1"   d="M 160.281,190.838 v -0.65 h 6.016 v 0.65 H 160.281 z M 170.417,192.098 c 0,0.188,0.012,0.33,0.032,0.428 c 0.021,0.096,0.059,0.174,0.112,0.234 c 0.054,0.059,0.131,0.107,0.232,0.141 c 0.101,0.035,0.228,0.061,0.381,0.078 c 0.152,0.018,0.354,0.029,0.605,0.037 v 0.355 h -3.609 v -0.355 c 0.361 -0.018,0.619 -0.039,0.774 -0.066 s 0.272 -0.068,0.354 -0.125 c 0.081 -0.055,0.141 -0.133,0.178 -0.234 c 0.037 -0.1,0.057 -0.266,0.057 -0.492 v -3.961 c 0 -0.129 -0.023 -0.225 -0.068 -0.285 c -0.046 -0.061 -0.113 -0.09 -0.201 -0.09 c -0.104,0 -0.252,0.053 -0.443,0.16 c -0.192,0.107 -0.43,0.256 -0.713,0.445 l -0.215 -0.377 l 2.285 -1.361 h 0.268 c -0.02,0.313 -0.029,0.744 -0.029,1.299 V 192.098 z" />
    <path id="achse_yp1"   d="M 169.612,92.097 c 0,0.188,0.011,0.331,0.031,0.427 c 0.021,0.097,0.059,0.175,0.113,0.234 c 0.053,0.061,0.131,0.107,0.231,0.143 c 0.101,0.033,0.228,0.06,0.381,0.078 c 0.153,0.018,0.354,0.029,0.605,0.036 v 0.356 h -3.608 v -0.356 c 0.361 -0.017,0.619 -0.038,0.773 -0.065 c 0.155 -0.028,0.273 -0.069,0.354 -0.125 s 0.141 -0.134,0.179 -0.234 c 0.037 -0.101,0.056 -0.266,0.056 -0.493 v -3.96 c 0 -0.13 -0.022 -0.226 -0.068 -0.285 c -0.046 -0.061 -0.112 -0.091 -0.2 -0.091 c -0.104,0 -0.252,0.054 -0.444,0.161 s -0.43,0.256 -0.713,0.444 l -0.215 -0.376 l 2.285 -1.362 h 0.269 c -0.02,0.313 -0.029,0.745 -0.029,1.299 V 92.097 z " />
    <path id="achse_yp2"   d="M 169.778,42.59 c 0.159,0,0.288 -0.01,0.386 -0.029 s 0.176 -0.052,0.234 -0.098 s 0.104 -0.105,0.14 -0.178 c 0.033 -0.074,0.077 -0.187,0.129 -0.34 h 0.415 l -0.083,1.426 h -4.019 v -0.234 c 0.14 -0.342,0.329 -0.691,0.566 -1.05 s 0.574 -0.779,1.011 -1.265 c 0.378 -0.417,0.649 -0.732,0.815 -0.947 c 0.183 -0.234,0.318 -0.438,0.407 -0.607 c 0.09 -0.172,0.154 -0.332,0.193 -0.484 c 0.039 -0.15,0.059 -0.303,0.059 -0.456 c 0 -0.244 -0.039 -0.46 -0.117 -0.647 c -0.078 -0.187 -0.197 -0.334 -0.359 -0.441 c -0.16 -0.107 -0.363 -0.161 -0.607 -0.161 c -0.608,0 -1.019,0.339 -1.23,1.016 h -0.591 v -0.938 c 0.394 -0.186,0.763 -0.319,1.106 -0.403 c 0.343 -0.082,0.651 -0.124,0.925 -0.124 c 0.605,0,1.063,0.133,1.372,0.397 c 0.31,0.266,0.464,0.65,0.464,1.155 c 0,0.173 -0.017,0.331 -0.052,0.476 c -0.033,0.146 -0.088,0.289 -0.16,0.43 c -0.074,0.143 -0.172,0.294 -0.296,0.457 s -0.261,0.328 -0.41,0.496 c -0.149,0.167 -0.408,0.446 -0.776,0.837 c -0.618,0.654 -1.072,1.226 -1.362,1.714 H 169.778 z " />
    <path id="achse_xp3"   d="M 327.088,148.049 v -0.928 c 0.377 -0.178,0.73 -0.313,1.059 -0.4 c 0.33 -0.088,0.646 -0.131,0.953 -0.131 c 0.367,0,0.689,0.057,0.967,0.17 c 0.275,0.115,0.488,0.277,0.635,0.492 c 0.146,0.213,0.219,0.467,0.219,0.764 c 0,0.275 -0.055,0.52 -0.166,0.73 c -0.109,0.209 -0.266,0.393 -0.465,0.549 c -0.201,0.156 -0.461,0.309 -0.779,0.459 v 0.043 c 0.197,0.037,0.389,0.098,0.574,0.184 c 0.184,0.086,0.346,0.197,0.49,0.334 c 0.143,0.137,0.258,0.301,0.344,0.492 c 0.086,0.189,0.129,0.406,0.129,0.65 c 0,0.379 -0.082,0.713 -0.246,1.006 s -0.416,0.525 -0.754,0.693 c -0.34,0.17 -0.75,0.254 -1.236,0.254 c -0.279,0 -0.582 -0.031 -0.904 -0.094 c -0.324 -0.064 -0.621 -0.148 -0.893 -0.252 v -1.035 h 0.586 c 0.115,0.338,0.266,0.584,0.453,0.736 c 0.186,0.154,0.441,0.23,0.764,0.23 c 0.422,0,0.742 -0.115,0.959 -0.348 c 0.217 -0.23,0.324 -0.572,0.324 -1.025 c 0 -0.475 -0.143 -0.838 -0.43 -1.088 c -0.285 -0.252 -0.705 -0.377 -1.26 -0.377 h -0.439 v -0.43 c 0.439 -0.025,0.811 -0.109,1.111 -0.254 c 0.301 -0.143,0.525 -0.326,0.672 -0.551 s 0.219 -0.477,0.219 -0.758 c 0 -0.361 -0.096 -0.639 -0.287 -0.834 c -0.193 -0.195 -0.473 -0.293 -0.84 -0.293 c -0.307,0 -0.555,0.082 -0.748,0.248 c -0.191,0.166 -0.334,0.42 -0.424,0.762 H 327.088 z " />
    <path id="achse_Im"    d="M 158.685,12.957 c 0,0.305,0.01,0.529,0.031,0.67 s 0.055,0.253,0.103,0.335 s 0.119,0.15,0.212,0.205 s 0.245,0.109,0.455,0.164 v 0.335 H 156.6 v -0.335 c 0.283 -0.073,0.472 -0.154,0.567 -0.243 s 0.158 -0.215,0.188 -0.379 s 0.044 -0.415,0.044 -0.752 V 7.043 c 0 -0.314 -0.011 -0.543 -0.034 -0.687 s -0.061 -0.255 -0.113 -0.335 s -0.122 -0.144 -0.208 -0.191 s -0.235 -0.102 -0.444 -0.161 V 5.334 h 2.885 v 0.335 c -0.201,0.05 -0.345,0.1 -0.434,0.15 s -0.16,0.113 -0.212,0.188 s -0.091,0.188 -0.116,0.338 s -0.038,0.383 -0.038,0.697 V 12.957 z M 162.821,9.183 l 0.096,0.027 c 0.273 -0.273,0.498 -0.479,0.673 -0.619 s 0.345 -0.25,0.509 -0.335 s 0.318 -0.145,0.461 -0.181 s 0.291 -0.055,0.441 -0.055 c 0.455,0,0.827,0.105,1.114,0.314 s 0.485,0.531,0.595,0.964 c 0.342 -0.346,0.619 -0.602,0.83 -0.766 c 0.213 -0.164,0.429 -0.291,0.65 -0.379 c 0.221 -0.089,0.459 -0.133,0.714 -0.133 c 0.306,0,0.568,0.044,0.79,0.133 c 0.221,0.089,0.407,0.226,0.561,0.41 c 0.152,0.185,0.264,0.416,0.334,0.694 c 0.071,0.278,0.106,0.652,0.106,1.121 v 2.577 c 0,0.346,0.012,0.585,0.034,0.718 s 0.056,0.235,0.1,0.308 c 0.043,0.073,0.107,0.136,0.194,0.188 s 0.232,0.106,0.438,0.161 v 0.335 h -2.687 v -0.335 c 0.178 -0.055,0.306 -0.103,0.383 -0.144 s 0.143 -0.098,0.195 -0.171 c 0.052 -0.073,0.093 -0.186,0.123 -0.338 c 0.029 -0.153,0.044 -0.384,0.044 -0.694 v -1.791 c 0 -0.387 -0.011 -0.708 -0.03 -0.96 c -0.021 -0.253 -0.053 -0.455 -0.096 -0.605 c -0.044 -0.15 -0.096 -0.269 -0.158 -0.355 c -0.061 -0.086 -0.131 -0.162 -0.208 -0.226 s -0.169 -0.114 -0.273 -0.15 s -0.244 -0.055 -0.417 -0.055 c -0.183,0 -0.352,0.037 -0.51,0.109 c -0.156,0.073 -0.328,0.196 -0.512,0.369 c -0.186,0.173 -0.318,0.348 -0.4,0.523 s -0.123,0.382 -0.123,0.619 v 2.495 c 0,0.346,0.012,0.585,0.034,0.718 s 0.056,0.235,0.099,0.308 c 0.044,0.073,0.109,0.136,0.195,0.188 s 0.232,0.106,0.438,0.161 v 0.335 h -2.687 v -0.335 c 0.178 -0.055,0.306 -0.103,0.383 -0.144 s 0.143 -0.098,0.194 -0.171 c 0.053 -0.073,0.094 -0.186,0.123 -0.338 c 0.03 -0.153,0.045 -0.384,0.045 -0.694 v -1.791 c 0 -0.406 -0.012 -0.736 -0.034 -0.991 s -0.058 -0.46 -0.106 -0.615 c -0.047 -0.155 -0.109 -0.28 -0.184 -0.376 c -0.076 -0.096 -0.152 -0.168 -0.229 -0.219 c -0.078 -0.05 -0.168 -0.088 -0.273 -0.113 s -0.223 -0.038 -0.355 -0.038 c -0.187,0 -0.362,0.042 -0.526,0.126 s -0.332,0.206 -0.502,0.366 s -0.3,0.326 -0.386,0.499 s -0.13,0.36 -0.13,0.561 v 2.563 c 0,0.26,0.007,0.458,0.021,0.595 s 0.035,0.244,0.065,0.321 s 0.067,0.14,0.113,0.188 s 0.11,0.093,0.195,0.137 s 0.211,0.088,0.379,0.133 v 0.335 h -2.68 v -0.335 c 0.173 -0.055,0.297 -0.103,0.373 -0.144 s 0.14 -0.098,0.195 -0.171 s 0.096 -0.185,0.123 -0.335 s 0.041 -0.385,0.041 -0.704 v -2.98 c 0 -0.292 -0.004 -0.526 -0.014 -0.704 s -0.041 -0.32 -0.096 -0.427 s -0.138 -0.187 -0.25 -0.239 s -0.27 -0.097 -0.475 -0.133 V 8.13 l 1.6 -0.062 h 0.417 L 162.821,9.183 z" />
    <path id="achse_Re"    d="M 354.178,150.557 v 2.324 c 0,0.328,0.012,0.566,0.037,0.715 s 0.063,0.26,0.113,0.334 c 0.049,0.076,0.117,0.137,0.205,0.186 c 0.086,0.047,0.234,0.102,0.443,0.16 v 0.336 h -2.885 v -0.336 c 0.283 -0.072,0.473 -0.154,0.568 -0.242 c 0.096 -0.09,0.158 -0.215,0.188 -0.379 s 0.045 -0.416,0.045 -0.752 v -5.914 c 0 -0.314 -0.012 -0.543 -0.035 -0.688 c -0.021 -0.143 -0.061 -0.254 -0.113 -0.334 c -0.051 -0.08 -0.121 -0.145 -0.207 -0.191 c -0.088 -0.049 -0.234 -0.102 -0.445 -0.16 v -0.336 h 3.385 c 1.066,0,1.863,0.193,2.393,0.582 c 0.527,0.387,0.793,0.988,0.793,1.805 c 0,0.623 -0.172,1.154 -0.518,1.592 c -0.344,0.438 -0.859,0.779 -1.547,1.025 v 0.055 c 0.277,0.115,0.516,0.277,0.713,0.488 c 0.199,0.213,0.42,0.543,0.66,0.988 l 0.615,1.121 c 0.178,0.328,0.33,0.58,0.459,0.752 c 0.127,0.174,0.258,0.307,0.389,0.396 c 0.133,0.092,0.309,0.156,0.527,0.191 v 0.336 h -1.895 c -0.172 -0.242 -0.336 -0.502 -0.492 -0.779 c -0.154 -0.279 -0.307 -0.561 -0.457 -0.848 l -0.602 -1.143 c -0.184 -0.346 -0.332 -0.602 -0.449 -0.766 c -0.115 -0.164 -0.223 -0.279 -0.32 -0.346 c -0.098 -0.064 -0.203 -0.111 -0.314 -0.137 c -0.111 -0.023 -0.279 -0.037 -0.502 -0.037 H 354.178 z M 354.178,145.908 v 4.061 h 0.771 c 0.396,0,0.719 -0.027,0.965 -0.086 c 0.246 -0.057,0.473 -0.164,0.684 -0.324 c 0.209 -0.158,0.377 -0.381,0.502 -0.666 s 0.188 -0.635,0.188 -1.049 c 0 -0.434 -0.074 -0.793 -0.223 -1.08 c -0.146 -0.287 -0.371 -0.506 -0.672 -0.656 s -0.707 -0.227 -1.217 -0.227 C 354.766,145.881,354.432,145.891,354.178,145.908 z M 365.832,153.449 c -0.291,0.305 -0.559,0.545 -0.803,0.717 c -0.244,0.174 -0.512,0.309 -0.803,0.406 c -0.293,0.1 -0.613,0.148 -0.965,0.148 c -0.938,0 -1.646 -0.281 -2.125 -0.846 c -0.479 -0.563 -0.719 -1.393 -0.719 -2.49 c 0 -0.68,0.123 -1.279,0.365 -1.799 c 0.244 -0.52,0.592 -0.92,1.043 -1.203 c 0.451 -0.281,0.971 -0.424,1.559 -0.424 c 0.461,0,0.854,0.074,1.176,0.219 c 0.324,0.146,0.582,0.346,0.775,0.598 c 0.195,0.254,0.346,0.572,0.451,0.957 c 0.107,0.387,0.168,0.889,0.182,1.508 h -4.307 v 0.123 c 0,0.539,0.061,0.99,0.182,1.357 s 0.318,0.654,0.594,0.861 c 0.277,0.207,0.635,0.311,1.078,0.311 c 0.373,0,0.709 -0.068,1.008 -0.209 c 0.299 -0.139,0.596 -0.365,0.893 -0.68 L 365.832,153.449 z M 364.684,150.674 c -0.027 -0.492 -0.088 -0.895 -0.184 -1.207 s -0.24 -0.551 -0.432 -0.719 c -0.191 -0.166 -0.441 -0.248 -0.752 -0.248 c -0.469,0 -0.844,0.188 -1.125,0.563 c -0.279,0.377 -0.445,0.914 -0.494,1.611 H 364.684 z" />
    <path id="formel_z"    d="M 258.711,28.283 v 1.982 h -5.264 V 29.93 l 3.746 -5.646 h -1.854 c -0.227,0 -0.408,0.041 -0.539,0.123 c -0.133,0.082 -0.258,0.219 -0.377,0.41 c -0.117,0.191 -0.232,0.449 -0.342,0.772 h -0.594 V 23.73 h 5.182 v 0.342 l -3.74,5.64 h 1.799 c 0.236,0,0.414 -0.018,0.533 -0.055 c 0.117 -0.037,0.221 -0.095,0.307 -0.174 c 0.088 -0.08,0.172 -0.206,0.254 -0.379 s 0.18 -0.447,0.293 -0.82 H 258.711 z " />
    <path id="formel_g1"   d="M 260.275,25.302 v -0.909 h 8.422 v 0.909 H 260.275 z M 260.275,28.139 V 27.23 h 8.422 v 0.909 H 260.275 z " />
    <path id="formel_a"    d="M 274.33,29.288 l -0.102 -0.027 c -0.396,0.406 -0.77,0.693 -1.119,0.861 c -0.348,0.168 -0.719,0.253 -1.109,0.253 c -0.348,0 -0.652 -0.067 -0.916 -0.202 c -0.266 -0.134 -0.467 -0.324 -0.609 -0.567 c -0.141 -0.244 -0.211 -0.525 -0.211 -0.844 c 0 -0.666,0.328 -1.179,0.986 -1.542 c 0.66 -0.362,1.646 -0.573,2.965 -0.632 v -0.444 c 0 -0.474 -0.047 -0.848 -0.137 -1.121 c -0.092 -0.273 -0.234 -0.474 -0.432 -0.602 c -0.195 -0.127 -0.457 -0.191 -0.785 -0.191 c -0.355,0 -0.643,0.093 -0.859,0.28 c -0.215,0.187 -0.379,0.467 -0.488,0.841 h -0.895 v -0.889 c 0.438 -0.228,0.801 -0.396,1.094 -0.502 c 0.291 -0.107,0.582 -0.191,0.875 -0.253 c 0.291 -0.062,0.588 -0.092,0.889 -0.092 c 0.451,0,0.813,0.072,1.086,0.215 s 0.479,0.363,0.615,0.66 s 0.205,0.743,0.205,1.34 v 2.379 c 0,0.337,0.002,0.575,0.008,0.714 c 0.004,0.139,0.018,0.268,0.041,0.386 c 0.021,0.119,0.057,0.213,0.102,0.284 c 0.047,0.071,0.113,0.131,0.201,0.181 c 0.09,0.05,0.234,0.103,0.436,0.157 v 0.335 h -1.873 L 274.33,29.288 z M 274.215,27.148 c -0.926,0.009 -1.619,0.132 -2.078,0.369 c -0.461,0.237 -0.691,0.595 -0.691,1.073 c 0,0.26,0.053,0.465,0.158,0.615 c 0.104,0.15,0.236,0.254,0.396,0.311 c 0.158,0.057,0.348,0.085,0.566,0.085 c 0.311,0,0.592 -0.075,0.844 -0.226 c 0.254 -0.15,0.451 -0.342,0.592 -0.574 c 0.143 -0.232,0.213 -0.462,0.213 -0.69 V 27.148 z " />
    <path id="formel_pl"   d="M 282.268,26.717 v 3.938 h -0.971 v -3.938 h -3.727 v -0.909 h 3.727 v -3.938 h 0.971 v 3.938 h 3.725 v 0.909 H 282.268 z " />
    <path id="formel_b"    d="M 289.396,24.803 l 0.027,0.007 c 0.32 -0.333,0.584 -0.574,0.797 -0.725 c 0.211 -0.15,0.43 -0.266,0.656 -0.345 c 0.225 -0.08,0.473 -0.12,0.742 -0.12 c 0.486,0,0.904,0.124,1.254,0.373 c 0.348,0.249,0.617,0.621,0.807,1.118 s 0.283,1.105,0.283,1.825 c 0,0.743 -0.113,1.371 -0.338,1.883 c -0.227,0.513 -0.559,0.9 -0.998,1.162 s -0.961,0.393 -1.563,0.393 c -0.336,0 -0.654 -0.031 -0.953 -0.092 s -0.611 -0.17 -0.939 -0.325 l -0.479,0.417 l -0.473 -0.109 v -7.431 c 0 -0.438 -0.004 -0.743 -0.01 -0.916 c -0.008 -0.173 -0.025 -0.32 -0.055 -0.441 s -0.07 -0.215 -0.123 -0.284 s -0.123 -0.123 -0.213 -0.164 c -0.088 -0.041 -0.248 -0.082 -0.48 -0.123 v -0.355 l 1.654 -0.068 h 0.402 V 24.803 z M 289.396,27.804 c 0,0.351,0.016,0.63,0.049,0.837 c 0.031,0.208,0.084,0.379,0.16,0.516 c 0.074,0.137,0.184,0.262,0.328,0.376 c 0.143,0.114,0.305,0.192,0.482,0.236 s 0.375,0.065,0.594,0.065 c 0.547,0,0.963 -0.223,1.244 -0.67 c 0.283 -0.447,0.424 -1.117,0.424 -2.01 c 0 -0.902 -0.129 -1.58 -0.387 -2.034 c -0.256 -0.454 -0.645 -0.68 -1.164 -0.68 c -0.26,0 -0.48,0.04 -0.664,0.12 c -0.182,0.08 -0.363,0.204 -0.543,0.373 s -0.313,0.335 -0.396,0.499 s -0.127,0.351 -0.127,0.561 V 27.804 z " />
    <path id="formel_i"    d="M 295.338,29.93 c 0.178 -0.055,0.303 -0.103,0.379 -0.144 c 0.074 -0.041,0.139 -0.098,0.191 -0.171 s 0.094 -0.185,0.123 -0.335 s 0.045 -0.385,0.045 -0.704 v -2.98 c 0 -0.292 -0.006 -0.526 -0.014 -0.704 c -0.01 -0.178 -0.041 -0.32 -0.096 -0.427 s -0.139 -0.187 -0.25 -0.239 s -0.27 -0.097 -0.475 -0.133 V 23.73 l 1.592 -0.062 h 0.418 v 4.888 c 0,0.392,0.018,0.664,0.055,0.817 c 0.035,0.153,0.105,0.269,0.207,0.349 c 0.104,0.08,0.271,0.149,0.504,0.208 v 0.335 h -2.68 V 29.93 z M 297.293,21.05 v 1.326 h -1.258 V 21.05 H 297.293 z " />
    <path id="formel_g2"   d="M 299.582,25.302 v -0.909 h 8.422 v 0.909 H 299.582 z M 299.582,28.139 V 27.23 h 8.422 v 0.909 H 299.582 z " />
    <path id="formel_r"    d="M 311.531,24.865 l 0.096,0.021 c 0.252 -0.305,0.484 -0.546,0.697 -0.721 c 0.215 -0.175,0.445 -0.311,0.693 -0.407 c 0.25 -0.096,0.531 -0.144,0.846 -0.144 c 0.264,0,0.504,0.014,0.717,0.041 v 1.572 h -0.771 c -0.109 -0.246 -0.227 -0.425 -0.35 -0.537 s -0.291 -0.167 -0.506 -0.167 c -0.164,0 -0.326,0.048 -0.488,0.144 s -0.318,0.235 -0.469,0.417 s -0.254,0.353 -0.311,0.513 s -0.086,0.349 -0.086,0.567 v 2.393 c 0,0.415,0.025,0.701,0.076,0.858 c 0.049,0.157,0.133,0.272,0.248,0.345 c 0.117,0.073,0.291,0.13,0.523,0.171 v 0.335 h -2.754 V 29.93 c 0.172 -0.055,0.297 -0.103,0.371 -0.144 c 0.076 -0.041,0.141 -0.098,0.195 -0.171 s 0.096 -0.185,0.123 -0.335 s 0.041 -0.385,0.041 -0.704 v -2.98 c 0 -0.292 -0.004 -0.526 -0.014 -0.704 c -0.008 -0.178 -0.041 -0.32 -0.096 -0.427 s -0.137 -0.187 -0.25 -0.239 c -0.111 -0.052 -0.27 -0.097 -0.475 -0.133 v -0.355 l 1.6 -0.068 h 0.418 L 311.531,24.865 z " />
    <path id="formel_e"    d="M 320.732,29.103 c -0.291,0.305 -0.559,0.544 -0.803,0.718 s -0.512,0.309 -0.803,0.407 c -0.293,0.098 -0.613,0.147 -0.965,0.147 c -0.938,0 -1.646 -0.281 -2.125 -0.844 s -0.719 -1.394 -0.719 -2.492 c 0 -0.679,0.123 -1.278,0.365 -1.798 c 0.244 -0.52,0.592 -0.92,1.043 -1.203 s 0.971 -0.424,1.559 -0.424 c 0.461,0,0.854,0.073,1.176,0.219 c 0.324,0.146,0.582,0.345,0.775,0.598 c 0.195,0.253,0.346,0.572,0.451,0.957 c 0.107,0.385,0.168,0.888,0.182,1.507 h -4.307 v 0.123 c 0,0.538,0.061,0.99,0.182,1.357 s 0.318,0.654,0.594,0.861 c 0.277,0.208,0.635,0.311,1.078,0.311 c 0.373,0,0.709 -0.069,1.008 -0.208 s 0.596 -0.366,0.893 -0.68 L 320.732,29.103 z M 319.584,26.328 c -0.027 -0.492 -0.088 -0.895 -0.184 -1.207 s -0.24 -0.551 -0.432 -0.718 s -0.441 -0.25 -0.752 -0.25 c -0.469,0 -0.844,0.188 -1.125,0.564 c -0.279,0.376 -0.445,0.913 -0.494,1.61 H 319.584 z " />
    <path id="formel_i2"   d="M 321.898,25.074 c 0.102 -0.031,0.174 -0.059,0.217 -0.082 s 0.078 -0.056,0.109 -0.098 c 0.029 -0.042,0.053 -0.105,0.07 -0.191 c 0.016 -0.086,0.025 -0.22,0.025 -0.402 v -1.703 c 0 -0.167 -0.004 -0.301 -0.008 -0.402 c -0.006 -0.102 -0.023 -0.183 -0.055 -0.244 s -0.08 -0.107 -0.143 -0.137 c -0.064 -0.03 -0.154 -0.055 -0.271 -0.076 v -0.207 l 0.91 -0.035 h 0.238 v 2.793 c 0,0.224,0.01,0.379,0.031,0.467 c 0.02,0.087,0.061,0.154,0.119,0.199 s 0.154,0.085,0.287,0.119 v 0.191 h -1.531 V 25.074 z M 323.016,20 v 0.758 h -0.719 V 20 H 323.016 z " />
    <path id="formel_phi"  d="M 326.82,25.313 v 1.641 h -0.652 v -1.641 c -1.348 -0.057 -2.02 -0.635 -2.02 -1.734 c 0 -0.818,0.457 -1.527,1.371 -2.129 l 0.23,0.273 c -0.57,0.44 -0.855,1.029 -0.855,1.766 c 0,0.932,0.424,1.434,1.273,1.504 v -1.695 c 0 -0.565,0.123 -1.012,0.371 -1.34 c 0.246 -0.328,0.598 -0.492,1.051 -0.492 c 0.416,0,0.76,0.151,1.033,0.453 c 0.271,0.302,0.408,0.721,0.408,1.258 c 0,0.669 -0.188,1.187 -0.563,1.553 S 327.543,25.289,326.82,25.313 z M 326.82,25.008 c 0.986 -0.055,1.48 -0.67,1.48 -1.848 c 0 -0.432 -0.07 -0.768 -0.209 -1.008 c -0.141 -0.24 -0.328 -0.359 -0.564 -0.359 c -0.178,0 -0.326,0.066 -0.445,0.197 c -0.121,0.131 -0.193,0.307 -0.221,0.527 s -0.041,0.571 -0.041,1.053 V 25.008 z " />
    <path id="zeiger_phi"  d="M 221.07,129.539 V 132 h -0.979 v -2.461 c -2.02 -0.086 -3.029 -0.953 -3.029 -2.602 c 0 -1.227,0.686 -2.291,2.057 -3.193 l 0.346,0.41 c -0.855,0.66 -1.283,1.543 -1.283,2.648 c 0,1.398,0.637,2.15,1.91,2.256 v -2.543 c 0 -0.848,0.186 -1.518,0.557 -2.01 s 0.896 -0.738,1.576 -0.738 c 0.625,0,1.141,0.227,1.549,0.68 s 0.613,1.082,0.613,1.887 c 0,1.004 -0.281,1.78 -0.844,2.329 S 222.156,129.504,221.07,129.539 z M 221.07,129.082 c 1.48 -0.082,2.221 -1.006,2.221 -2.771 c 0 -0.648 -0.105 -1.152 -0.314 -1.512 s -0.49 -0.539 -0.846 -0.539 c -0.266,0 -0.488,0.099 -0.668,0.296 s -0.291,0.461 -0.332,0.791 s -0.061,0.856 -0.061,1.579 V 129.082 z " />
    <path id="Complex"     d="M 15.843,249.18 v 3.352 h -1.148 c -0.242 -0.914 -0.572 -1.594 -0.99 -2.039 s -0.928 -0.668 -1.529 -0.668 c -1.141,0 -1.996,0.604 -2.566,1.811 s -0.855,2.99 -0.855,5.35 c 0,2.148,0.281,3.822,0.844,5.021 s 1.355,1.799,2.379,1.799 c 0.531,0,0.975 -0.113,1.33 -0.34 s 0.637 -0.537,0.844 -0.932 s 0.385 -0.924,0.533 -1.588 h 1.16 v 3.469 c -0.875,0.203 -1.674,0.352 -2.396,0.445 S 11.972,265,11.191,265 c -1.445,0 -2.705 -0.307 -3.779 -0.92 s -1.906 -1.525 -2.496 -2.736 s -0.885 -2.668 -0.885 -4.371 c 0 -1.641,0.311 -3.094,0.932 -4.359 s 1.51 -2.246,2.666 -2.941 s 2.473 -1.043,3.949 -1.043 c 0.875,0,1.605,0.037,2.191,0.111 S 15.046,248.961,15.843,249.18 z M 9.75,264.121 l 0.129 -0.152 c -0.789 -0.695 -1.396 -1.66 -1.822 -2.895 s -0.639 -2.598 -0.639 -4.09 c 0 -1.602,0.182 -2.996,0.545 -4.184 s 0.893 -2.125,1.588 -2.813 l -0.199 -0.164 c -0.789,0.344 -1.488,0.865 -2.098,1.564 s -1.072,1.52 -1.389,2.461 s -0.475,1.967 -0.475,3.076 c 0,1.852,0.357,3.373,1.072,4.564 S 8.273,263.559,9.75,264.121 z " />
  </g>
</svg>
