<?xml version="1.0" encoding="UTF-8" standalone="no"?>
<!-- Created with Inkscape (http://www.inkscape.org/) -->

<svg
   xmlns:dc="http://purl.org/dc/elements/1.1/"
   xmlns:cc="http://creativecommons.org/ns#"
   xmlns:rdf="http://www.w3.org/1999/02/22-rdf-syntax-ns#"
   xmlns:svg="http://www.w3.org/2000/svg"
   xmlns="http://www.w3.org/2000/svg"
   xmlns:sodipodi="http://sodipodi.sourceforge.net/DTD/sodipodi-0.dtd"
   xmlns:inkscape="http://www.inkscape.org/namespaces/inkscape"
   width="114.71533"
   height="106.08978"
   id="svg2"
   version="1.1"
   inkscape:version="0.48.4 r9939"
   sodipodi:docname="mengen_quiz_2.svg">
  <defs
     id="defs4">
    <inkscape:path-effect
       effect="spiro"
       id="path-effect2989"
       is_visible="true" />
  </defs>
  <sodipodi:namedview
     id="base"
     pagecolor="#ffffff"
     bordercolor="#666666"
     borderopacity="1.0"
     inkscape:pageopacity="0.0"
     inkscape:pageshadow="2"
     inkscape:zoom="3.9288621"
     inkscape:cx="53.271368"
     inkscape:cy="45.45784"
     inkscape:document-units="px"
     inkscape:current-layer="layer1"
     showgrid="false"
     fit-margin-top="10"
     fit-margin-bottom="10"
     fit-margin-left="10"
     fit-margin-right="10"
     inkscape:window-width="1600"
     inkscape:window-height="834"
     inkscape:window-x="0"
     inkscape:window-y="27"
     inkscape:window-maximized="1"
     showguides="true"
     inkscape:guide-bbox="true" />
  <metadata
     id="metadata7">
    <rdf:RDF>
      <cc:Work
         rdf:about="">
        <dc:format>image/svg+xml</dc:format>
        <dc:type
           rdf:resource="http://purl.org/dc/dcmitype/StillImage" />
        <dc:title></dc:title>
      </cc:Work>
    </rdf:RDF>
  </metadata>
  <g
     inkscape:label="Layer 1"
     inkscape:groupmode="layer"
     id="layer1"
     transform="translate(-233.85469,-193.3748)">
    <g
       id="g3953"
       transform="matrix(1.0873079,0,0,1,-25.425144,-3.6425781e-6)">
      <path
         inkscape:connector-curvature="0"
         id="path3879"
         d="m 311.49361,200.24782 c -10.20706,0 -18.97183,11.6032 -22.71875,28.15625 -4.51219,-3.87577 -10.4697,-6.21875 -17,-6.21875 -14.08784,0 -25.5,10.97156 -25.5,24.5 0,13.52843 11.41216,24.46875 25.5,24.46875 6.57862,0 12.56976,-2.38546 17.09375,-6.3125 3.79814,16.33363 12.50275,27.75 22.625,27.75 13.61764,0 24.65625,-20.6917 24.65625,-46.1875 0,-25.4958 -11.03861,-46.15625 -24.65625,-46.15625 z"
         style="fill:none;stroke:#000000;stroke-width:0.95901132;stroke-miterlimit:4;stroke-opacity:1;stroke-dasharray:none" />
      <path
         transform="translate(233.03111,198.55264)"
         d="m 64.251966,48.118561 c 0,13.528439 -11.420451,24.495405 -25.508291,24.495405 -14.08784,0 -25.508291,-10.966966 -25.508291,-24.495405 0,-13.528439 11.420451,-24.495405 25.508291,-24.495405 14.08784,0 25.508291,10.966966 25.508291,24.495405 z"
         sodipodi:ry="24.495405"
         sodipodi:rx="25.508291"
         sodipodi:cy="48.118561"
         sodipodi:cx="38.743675"
         id="path3879-0"
         style="fill:#ea1880;fill-opacity:0.39215686;stroke:#000000;stroke-width:0.47950566;stroke-miterlimit:4;stroke-opacity:1;stroke-dasharray:none"
         sodipodi:type="arc" />
      <path
         transform="translate(232.85113,193.87322)"
         d="m 103.30709,52.546474 c 0,25.495801 -11.039281,46.164231 -24.656921,46.164231 -13.617639,0 -24.656917,-20.66843 -24.656917,-46.164231 0,-25.4958 11.039278,-46.1642299 24.656917,-46.1642299 13.61764,0 24.656921,20.6684299 24.656921,46.1642299 z"
         sodipodi:ry="46.16423"
         sodipodi:rx="24.656918"
         sodipodi:cy="52.546474"
         sodipodi:cx="78.650169"
         id="path3885-8"
         style="fill:#ea1880;fill-opacity:0.39215686;stroke:#000000;stroke-width:0.47950566;stroke-miterlimit:4;stroke-opacity:1;stroke-dasharray:none"
         sodipodi:type="arc" />
      <text
         sodipodi:linespacing="125%"
         id="text3928"
         y="250.15074"
         x="263.371"
         style="font-size:40px;font-style:normal;font-weight:normal;line-height:125%;letter-spacing:0px;word-spacing:0px;fill:#000000;fill-opacity:1;stroke:none;font-family:Sans"
         xml:space="preserve"><tspan
           style="font-size:14px"
           y="250.15074"
           x="263.371"
           id="tspan3930"
           sodipodi:role="line">M</tspan></text>
      <text
         sodipodi:linespacing="125%"
         id="text3928-7"
         y="251.29427"
         x="307.72174"
         style="font-size:40px;font-style:normal;font-weight:normal;line-height:125%;letter-spacing:0px;word-spacing:0px;fill:#000000;fill-opacity:1;stroke:none;font-family:Sans"
         xml:space="preserve"><tspan
           style="font-size:14px"
           y="251.29427"
           x="307.72174"
           id="tspan3930-8"
           sodipodi:role="line">N</tspan></text>
    </g>
  </g>
</svg>
